<svg width="38" height="32" viewBox="0 0 38 32" fill="none" xmlns="http://www.w3.org/2000/svg">
<path d="M29.564 14.5007C30.4048 13.6518 31.2462 12.8036 32.0883 11.9561C32.9406 11.1018 33.8207 11.1076 34.6739 11.9647C35.282 12.5735 35.8939 13.1785 36.4934 13.7921C37.2231 14.5352 37.2212 15.4671 36.4838 16.2073C34.2226 18.4777 31.9613 20.7468 29.7 23.0147C29.5611 23.1665 29.4798 23.3623 29.4702 23.5679C29.4529 25.2189 29.4702 26.87 29.4568 28.521C29.4453 30.055 28.4532 31.2458 26.9593 31.5383C26.7827 31.5672 26.6038 31.5794 26.4249 31.5747C18.85 31.5747 11.2755 31.5747 3.70131 31.5747C2.94057 31.5815 2.20625 31.2956 1.64991 30.7761C1.09358 30.2566 0.757692 29.543 0.711585 28.7827C0.702966 28.6638 0.695312 28.544 0.695312 28.4241C0.695312 20.146 0.695312 11.8685 0.695312 3.59165C0.695312 2.09403 1.47003 0.982799 2.80784 0.565728C3.12779 0.472076 3.45993 0.426832 3.79324 0.431498C11.3074 0.423828 18.8223 0.421911 26.3378 0.425746C28.1515 0.425746 29.4548 1.71914 29.4577 3.53892C29.4647 7.04423 29.4647 10.5495 29.4577 14.0549V14.47L29.564 14.5007ZM28.7021 5.42484H1.44897V24.5372C1.44897 25.8651 1.44035 27.1931 1.44897 28.52C1.45567 29.4002 1.81669 30.1231 2.60578 30.521C3.02458 30.7201 3.48285 30.822 3.94646 30.8192C11.377 30.8364 18.807 30.8406 26.2362 30.8316C26.3196 30.8316 26.4038 30.8316 26.4871 30.8316C27.8096 30.7597 28.6964 29.8307 28.6993 28.5047C28.7031 27.1413 28.7031 25.7779 28.6993 24.4145C28.6993 24.3129 28.6878 24.2112 28.6792 24.0569C28.5537 24.1738 28.4675 24.2486 28.3861 24.332C27.7158 25.0032 27.0608 25.6743 26.3751 26.3302C26.1798 26.5176 25.9453 26.6591 25.6885 26.7444C24.3823 27.1537 23.0646 27.5277 21.7555 27.9284C21.3389 28.0569 20.9549 28.0838 20.6265 27.7492C20.298 27.4145 20.3392 27.0454 20.4608 26.6466C20.8659 25.3119 21.2556 23.9725 21.6703 22.6408C21.7409 22.4162 21.8625 22.2111 22.0256 22.0415C24.163 19.8855 26.3077 17.7366 28.4599 15.5947C28.5409 15.5189 28.6045 15.4264 28.6463 15.3236C28.6881 15.2208 28.7072 15.1101 28.7021 14.9993C28.6945 11.9382 28.6926 8.87614 28.6964 5.81315L28.7021 5.42484ZM1.42694 4.63289H28.6983C28.6983 4.19281 28.7069 3.77573 28.6983 3.35962C28.694 3.02939 28.615 2.70443 28.4672 2.40916C28.3194 2.1139 28.1067 1.85602 27.8451 1.65491C27.3663 1.26372 26.8003 1.16976 26.1999 1.17551C18.7942 1.17551 11.3885 1.17551 3.98285 1.17551C3.82771 1.17551 3.67258 1.17551 3.5184 1.19469C2.48991 1.28386 1.67305 2.00774 1.51695 3.03172C1.43364 3.54467 1.45376 4.07488 1.42694 4.63289ZM25.8791 25.6475L33.6148 17.9015L32.3095 16.5985L24.5728 24.3455L25.8791 25.6475ZM30.4757 14.7586L22.7352 22.5104L23.9303 23.704L31.6689 15.9542L30.4757 14.7586ZM34.2468 17.3406C34.8482 16.75 35.4735 16.1603 36.0663 15.541C36.14 15.4688 36.1984 15.3824 36.2379 15.2871C36.2775 15.1917 36.2974 15.0894 36.2965 14.9862C36.2956 14.883 36.2739 14.781 36.2327 14.6864C36.1915 14.5917 36.1317 14.5064 36.0567 14.4355C35.3609 13.7126 34.6516 13.0024 33.9289 12.3051C33.6569 12.0414 33.1628 11.9944 32.9061 12.2456C32.2655 12.8621 31.666 13.5218 31.0627 14.1498L34.2468 17.3406ZM25.0536 26.1441L22.2429 23.3282L21.9154 24.4337C21.6684 25.2554 21.4165 26.0761 21.18 26.9006C21.1311 27.0684 21.0392 27.3426 21.4031 27.2362C22.649 26.8719 23.8901 26.4941 25.0574 26.1441H25.0536Z" fill="#373737" stroke="#373737" stroke-width="0.8"/>
<path d="M13.4976 17.6534H20.584C20.6798 17.6534 20.7995 17.6179 20.8646 17.663C21.0044 17.7589 21.2084 17.8941 21.2122 18.0177C21.2161 18.1414 21.0274 18.3054 20.8924 18.4013C20.8215 18.454 20.6846 18.4204 20.5773 18.4204H6.2914C6.02135 18.4204 5.76184 18.3658 5.76567 18.0283C5.7695 17.6908 6.02326 17.6505 6.2981 17.6505C8.69792 17.6569 11.0977 17.6579 13.4976 17.6534Z" fill="#373737" stroke="#373737" stroke-width="0.8"/>
<path d="M12.3281 26.0583H18.2367C18.3439 26.0583 18.4799 26.02 18.5527 26.0708C18.6925 26.1667 18.8735 26.3095 18.8907 26.4543C18.9041 26.5617 18.7059 26.7189 18.5728 26.811C18.4991 26.8627 18.365 26.832 18.2577 26.832H6.40612C6.34579 26.832 6.28641 26.832 6.22704 26.832C5.97614 26.8234 5.76069 26.7438 5.75781 26.4543C5.75781 26.1456 5.96945 26.0612 6.23663 26.0612C7.78799 26.0612 9.33966 26.0612 10.8917 26.0612L12.3281 26.0583Z" fill="#373737" stroke="#373737" stroke-width="0.8"/>
<path d="M10.7514 22.6094H6.34631C6.23906 22.6094 6.10117 22.642 6.03126 22.5893C5.91443 22.4992 5.77749 22.3573 5.766 22.2278C5.75738 22.1224 5.90006 21.967 6.01498 21.899C6.11074 21.8386 6.26875 21.8606 6.39803 21.8606H15.0579C15.551 21.8606 15.7522 21.9709 15.7282 22.2441C15.6899 22.6679 15.3586 22.6056 15.077 22.6056C13.6368 22.6094 12.1949 22.6107 10.7514 22.6094Z" fill="#373737" stroke="#373737" stroke-width="0.8"/>
<path d="M8.67286 3.28878C8.50623 3.28878 8.31853 3.33576 8.1768 3.27536C8.03507 3.21495 7.84642 3.05963 7.82152 2.92061C7.80333 2.81514 7.99485 2.57257 8.10881 2.55819C8.49907 2.5112 8.89356 2.5112 9.28382 2.55819C9.39874 2.57257 9.57111 2.80555 9.57111 2.93019C9.57111 3.05484 9.37958 3.21783 9.24264 3.27056C9.07218 3.33001 8.86534 3.28494 8.67381 3.28494L8.67286 3.28878Z" fill="#373737" stroke="#373737" stroke-width="0.8"/>
<path d="M12.1465 3.28887C11.9798 3.28887 11.7931 3.33585 11.6514 3.27641C11.5096 3.21696 11.3038 3.05685 11.297 2.93125C11.2903 2.80565 11.478 2.57074 11.6054 2.54773C11.971 2.49548 12.3421 2.49548 12.7076 2.54773C12.8388 2.56691 13.0342 2.79414 13.0304 2.91974C13.0265 3.04534 12.8273 3.21313 12.678 3.27161C12.5286 3.3301 12.3246 3.28887 12.1465 3.28887Z" fill="#373737" stroke="#373737" stroke-width="0.8"/>
<path d="M5.22874 3.28785C5.04966 3.28785 4.85144 3.33675 4.69726 3.27443C4.54308 3.21211 4.37454 3.05007 4.35252 2.91009C4.33624 2.80463 4.53159 2.57164 4.6532 2.55534C5.03082 2.50597 5.41325 2.50597 5.79087 2.55534C5.9144 2.57164 6.07816 2.80463 6.08965 2.94557C6.09539 3.05391 5.89813 3.22457 5.76023 3.27539C5.60222 3.33196 5.40782 3.28785 5.22874 3.28785Z" fill="#373737" stroke="#373737" stroke-width="0.8"/>
<path d="M17.4791 11.2814C17.3652 11.5372 17.2503 11.7931 17.1396 12.05C17.0566 12.246 16.9332 12.3919 16.7139 12.4017C16.4649 12.4126 16.3266 12.2514 16.2329 12.0424C16.1198 11.7498 15.9664 11.4752 15.7775 11.2269C15.7775 11.8627 15.7721 12.4997 15.7775 13.1355C15.7775 13.4741 15.7221 13.7887 15.3262 13.7887C14.9304 13.7887 14.874 13.4697 14.875 13.1355C14.88 11.7034 14.88 10.2721 14.875 8.84148C14.875 8.54425 14.9261 8.28404 15.2613 8.23069C15.5582 8.18279 15.7051 8.38529 15.8104 8.63788C16.085 9.29984 16.3649 9.96071 16.6841 10.7196C16.9917 9.99882 17.2716 9.3619 17.5355 8.71736C17.6526 8.42884 17.7877 8.17299 18.1432 8.2492C18.4986 8.32541 18.5188 8.62482 18.5178 8.93076C18.5135 10.3251 18.5135 11.7198 18.5178 13.1148C18.5178 13.4578 18.4486 13.7779 18.0708 13.7887C17.6621 13.7996 17.5696 13.4708 17.5728 13.1061C17.5728 12.5084 17.5728 11.9085 17.5728 11.314L17.4791 11.2814Z" fill="#373737" stroke="#373737" stroke-width="0.5"/>
<path d="M5.76677 10.9695C5.76677 10.2825 5.76677 9.59437 5.76677 8.90084C5.76677 8.53611 5.85403 8.21275 6.27013 8.22799C6.65962 8.24214 6.72454 8.56441 6.70644 8.90192C6.70644 8.97378 6.70644 9.04673 6.70644 9.11967C6.70644 10.6123 6.70645 10.6047 8.15375 10.5503C8.42725 10.5394 8.52941 10.4665 8.51664 10.179C8.49749 9.72719 8.51664 9.27428 8.51026 8.82136C8.50281 8.48493 8.61667 8.22472 8.96786 8.22364C9.31904 8.22255 9.44143 8.498 9.44249 8.82136C9.44249 10.2883 9.44249 11.7544 9.44249 13.2199C9.44249 13.5465 9.28606 13.8045 8.94019 13.7893C8.62094 13.7751 8.506 13.5334 8.51452 13.2177C8.52303 12.7474 8.50813 12.2759 8.51452 11.8023C8.51984 11.5704 8.43364 11.4659 8.20696 11.4866C8.17152 11.4888 8.13598 11.4888 8.10054 11.4866C6.70645 11.4398 6.70964 11.4398 6.70432 12.8606C6.70432 13.2449 6.81074 13.7762 6.24565 13.7752C5.69653 13.7752 5.76996 13.2558 5.76783 12.8617C5.76464 12.2368 5.76677 11.6085 5.76677 10.9695Z" fill="#373737" stroke="#373737" stroke-width="0.5"/>
<path d="M19.3849 11.009C19.3849 10.3209 19.3849 9.63281 19.3849 8.94581C19.3849 8.58979 19.4371 8.24357 19.8511 8.23268C20.265 8.22179 20.3299 8.5593 20.3278 8.92185C20.314 10.0835 20.3353 11.2398 20.314 12.3982C20.3076 12.7444 20.3927 12.8762 20.7514 12.8577C21.3154 12.8283 21.8837 12.8577 22.4541 12.849C22.785 12.849 23.0383 12.9894 23.0383 13.3313C23.0383 13.6731 22.7818 13.8158 22.453 13.8147C21.6385 13.8147 20.8227 13.8147 20.0054 13.8147C19.5882 13.8147 19.3839 13.5969 19.3828 13.1821C19.3828 12.4581 19.3849 11.7341 19.3849 11.009Z" fill="#373737" stroke="#373737" stroke-width="0.5"/>
<path d="M11.6947 11.3329C11.6947 10.7526 11.6735 10.1712 11.7022 9.5909C11.7203 9.22182 11.5883 9.10423 11.2478 9.14669C11.0889 9.16248 10.9289 9.16248 10.77 9.14669C10.5007 9.12818 10.3443 8.97249 10.3315 8.69813C10.3244 8.64246 10.3285 8.58589 10.3435 8.53189C10.3585 8.47789 10.3841 8.42759 10.4188 8.38407C10.4535 8.34055 10.4965 8.30473 10.5451 8.27879C10.5938 8.25286 10.6471 8.23736 10.7019 8.23323C11.6561 8.169 12.6135 8.169 13.5677 8.23323C13.8263 8.24957 13.9732 8.45098 13.9466 8.7297C13.9242 8.98229 13.7774 9.11185 13.5347 9.14669C13.2431 9.18915 12.8239 9.00298 12.6834 9.25557C12.5429 9.50816 12.6217 9.92406 12.6195 10.267C12.6195 11.1554 12.6195 12.0449 12.6195 12.9333C12.6195 13.3122 12.6642 13.7902 12.1353 13.7902C11.6266 13.7902 11.6969 13.3253 11.6947 12.9671C11.6947 12.4206 11.6947 11.8773 11.6947 11.3329Z" fill="#373737" stroke="#373737" stroke-width="0.5"/>
</svg>
