<svg width="32" height="32" viewBox="0 0 32 32" fill="none" xmlns="http://www.w3.org/2000/svg">
<g clip-path="url(#clip0_408_1405)">
<path d="M21.1974 17.4155C19.8727 17.4155 18.8726 16.9764 18.0411 16.1429C17.6665 15.7686 17.644 15.3843 18.0086 14.9937C18.1934 14.7954 18.3832 14.6069 18.5767 14.4148C19.352 13.6387 19.4032 13.6337 20.2859 14.2451C20.9102 14.6756 21.557 14.5907 22.1862 13.9656C23.8235 12.337 25.4553 10.7041 27.0817 9.06712C27.5811 8.56804 28.0918 8.06895 28.58 7.56363C29.2404 6.86741 29.2417 6.16994 28.58 5.47621C27.9182 4.78249 27.2066 4.08127 26.5087 3.40127C25.8107 2.72127 25.0753 2.71503 24.3749 3.4125C22.2224 5.55523 20.077 7.70462 17.9387 9.86066C17.2994 10.5045 17.2944 11.1084 17.8713 11.857C18.2671 12.3636 18.2458 12.683 17.7901 13.1609C17.5879 13.3705 17.3806 13.5738 17.1658 13.7785C16.5578 14.3749 16.2332 14.3699 15.6601 13.7598C14.1943 12.1939 14.1294 9.63608 15.6214 8.09266C17.9071 5.72783 20.2285 3.40003 22.5857 1.10923C24.0153 -0.280717 26.5074 -0.388021 28.0269 0.907101C29.1206 1.83581 30.1369 2.85189 31.0658 3.94527C32.4504 5.57977 32.2594 7.92048 30.6912 9.55123C29.5975 10.6916 28.4639 11.7971 27.3464 12.9126C26.2885 13.9723 25.2302 15.0316 24.1714 16.0905C23.3149 16.9501 22.2961 17.433 21.1974 17.4155Z" fill="#373737"/>
<path d="M11.0468 14.5994C12.0809 14.595 13.077 14.9886 13.8285 15.6986C14.3629 16.1877 14.3704 16.5446 13.8709 17.0711C13.7274 17.2221 13.5775 17.3656 13.4302 17.5128C12.6274 18.3163 12.6274 18.3163 11.6823 17.695C11.1704 17.3606 10.4462 17.3755 10.0105 17.8072C7.75228 20.0481 5.50491 22.3002 3.26837 24.5636C2.76895 25.0727 2.78144 25.7876 3.27461 26.3104C4.04454 27.1272 4.83528 27.922 5.64683 28.6948C6.22241 29.2375 7.01023 29.1527 7.64449 28.5213C9.52978 26.6439 11.4117 24.762 13.2904 22.8754C13.5551 22.6109 13.8272 22.3527 14.0819 22.0794C14.6463 21.4743 14.6762 20.8142 14.1831 20.1679C13.6899 19.5216 13.7099 19.3082 14.2692 18.7355C14.4141 18.5871 14.5626 18.4411 14.71 18.2939C15.4678 17.5452 15.7999 17.554 16.4654 18.37C17.8388 20.0569 17.8026 22.4013 16.2619 23.9934C14.022 26.3108 11.7434 28.5904 9.42615 30.8321C7.75561 32.4404 5.23357 32.3618 3.57426 30.7497C2.78435 29.9811 2.00526 29.2017 1.237 28.4115C-0.403581 26.7171 -0.42106 24.1456 1.237 22.4637C3.44566 20.2103 5.69303 17.9832 7.94039 15.7548C8.75694 14.9363 9.77824 14.5882 11.0468 14.5994Z" fill="#373737"/>
<path d="M12.3672 7.31031C12.3672 6.62656 12.3672 5.93783 12.3672 5.25907C12.3672 4.77621 12.557 4.43309 13.0651 4.41188C13.592 4.39067 13.8042 4.76124 13.8142 5.21915C13.8325 6.60743 13.8325 7.99613 13.8142 9.38525C13.8142 9.85189 13.5833 10.2 13.0501 10.1613C12.517 10.1226 12.3659 9.77828 12.3709 9.3004C12.3734 8.63787 12.3672 7.97409 12.3672 7.31031Z" fill="#373737"/>
<path d="M7.34824 12.3847H9.3459C9.80536 12.3847 10.1125 12.5806 10.1475 13.061C10.1824 13.5413 9.88027 13.8096 9.43204 13.8171C8.00288 13.8396 6.57248 13.8396 5.14082 13.8171C4.70258 13.8109 4.36922 13.5676 4.3917 13.0822C4.41667 12.5731 4.75503 12.3797 5.23821 12.3835C5.93989 12.3885 6.64406 12.3847 7.34824 12.3847Z" fill="#373737"/>
<path d="M19.6155 24.7682C19.6155 25.432 19.6155 26.0945 19.6155 26.7583C19.6155 27.2424 19.4232 27.5831 18.9151 27.6018C18.4069 27.6205 18.1772 27.2537 18.1772 26.792C18.1597 25.4037 18.1597 24.015 18.1772 22.6259C18.1772 22.1593 18.4107 21.8136 18.9438 21.8523C19.4769 21.891 19.6255 22.2404 19.6205 22.7157C19.6092 23.4007 19.6155 24.0845 19.6155 24.7682Z" fill="#373737"/>
<path d="M11.7038 10.9723C11.5377 11.1745 11.4079 11.4864 11.2043 11.5376C11.0621 11.5708 10.9146 11.5747 10.7708 11.5492C10.627 11.5237 10.4899 11.4692 10.3678 11.3891C9.8397 10.9574 9.38023 10.4408 8.89455 9.95671C8.43883 9.50129 7.97688 9.05336 7.5349 8.58423C7.23025 8.26107 7.14411 7.88801 7.48745 7.5349C7.8308 7.1818 8.2141 7.23171 8.53622 7.54613C9.50259 8.48815 10.454 9.44639 11.3991 10.4159C11.5252 10.5344 11.5764 10.7278 11.7038 10.9723Z" fill="#373737"/>
<path d="M21.0832 20.2728C21.3629 20.4662 21.5826 20.5785 21.7574 20.7445C22.6189 21.5879 23.4666 22.4438 24.3169 23.296C24.669 23.6504 24.9087 24.0447 24.4792 24.4814C24.0497 24.918 23.6502 24.6947 23.2931 24.3404C22.4104 23.467 21.5089 22.5936 20.6637 21.6827C20.5699 21.5583 20.503 21.4157 20.4673 21.2641C20.4316 21.1124 20.4279 20.955 20.4564 20.8019C20.5014 20.5972 20.8485 20.46 21.0832 20.2728Z" fill="#373737"/>
<path d="M25.1064 19.6289C24.5258 19.6289 23.9465 19.6289 23.3659 19.6289C22.9002 19.6352 22.5868 19.4181 22.5569 18.9576C22.5244 18.4511 22.8602 18.1965 23.3347 18.1891C24.4946 18.1703 25.6557 18.1666 26.8144 18.1891C27.2763 18.199 27.6322 18.4386 27.5935 18.9564C27.5547 19.4742 27.1989 19.6364 26.7195 19.6289C26.1838 19.6227 25.6445 19.6289 25.1064 19.6289Z" fill="#373737"/>
</g>
<defs>
<clipPath id="clip0_408_1405">
<rect width="32" height="32" fill="white"/>
</clipPath>
</defs>
</svg>
