<svg width="50" height="36" viewBox="0 0 50 36" fill="none" xmlns="http://www.w3.org/2000/svg">
<g clip-path="url(#clip0_408_1784)">
<path d="M25.3012 25.2862C22.8876 25.2862 20.474 25.3014 18.0604 25.2862C17.7122 25.2849 17.3677 25.2167 17.0468 25.0856C16.7259 24.9545 16.4348 24.763 16.1903 24.5222C15.9458 24.2814 15.7528 23.996 15.6222 23.6825C15.4917 23.3689 15.4263 23.0334 15.4297 22.6952C15.4193 19.705 15.4193 16.7143 15.4297 13.723C15.4257 13.0692 15.6777 12.4383 16.1345 11.9582C16.5913 11.4781 17.2189 11.1846 17.8902 11.1371C18.0465 11.1253 18.0638 11.0612 18.0638 10.9414C18.0638 9.76061 18.0239 8.56803 18.0743 7.38387C18.1923 4.70182 19.4755 2.67425 21.8805 1.36864C23.2225 0.649902 24.7661 0.367438 26.2853 0.562614C27.8045 0.75779 29.2194 1.42035 30.3229 2.45327C31.0448 3.10375 31.6186 3.89379 32.0074 4.77258C32.3962 5.65138 32.5913 6.59948 32.5803 7.55593C32.5803 8.6861 32.5803 9.81797 32.5803 10.9481C32.5803 11.0527 32.5803 11.1168 32.7296 11.1337C33.4083 11.1752 34.0446 11.4681 34.5073 11.9521C34.97 12.4362 35.2238 13.0743 35.2162 13.7348C35.2289 16.7115 35.2289 19.6882 35.2162 22.6649C35.2162 24.183 34.0198 25.2879 32.4119 25.2896C30.0411 25.2896 27.668 25.2896 25.2925 25.2896L25.3012 25.2862ZM25.3186 23.5791H26.923C28.715 23.5791 30.507 23.5622 32.3059 23.5791C33.1637 23.5909 33.4745 23.1203 33.4711 22.4607C33.452 19.5813 33.4711 16.7036 33.4711 13.8242C33.4711 13.1714 33.1099 12.8222 32.4431 12.8222H18.2253C17.5447 12.8222 17.1835 13.1714 17.1835 13.8343C17.1835 16.5523 17.1835 19.2693 17.1835 21.9851C17.1835 22.2178 17.1835 22.4489 17.1835 22.68C17.1816 22.8822 17.2522 23.0787 17.383 23.2359C17.5138 23.3931 17.6968 23.5013 17.9006 23.542C18.043 23.564 18.1872 23.5725 18.3312 23.5673L25.3186 23.5791ZM25.3186 11.1269C27.055 11.1269 28.8001 11.1269 30.5417 11.1269C30.7275 11.1269 30.7866 11.0915 30.7848 10.8992C30.7744 9.80447 30.7848 8.70635 30.7848 7.61497C30.7875 7.31322 30.7631 7.01183 30.7119 6.7142C30.5925 6.01502 30.3302 5.34614 29.9404 4.74698C29.5507 4.14783 29.0415 3.63052 28.4427 3.22556C27.8439 2.8206 27.1678 2.53618 26.4541 2.38906C25.7404 2.24193 25.0036 2.23509 24.2872 2.36893C21.8562 2.80582 19.9461 4.94135 19.8819 7.35014C19.8489 8.53092 19.8819 9.72182 19.868 10.9077C19.868 11.0763 19.9149 11.1286 20.0937 11.1269C21.8336 11.1236 23.5752 11.1269 25.3169 11.1269H25.3186Z" fill="#373737" stroke="#373737" stroke-width="0.4"/>
<path d="M9.21002 13.922H6.47862C5.6992 13.9045 4.95081 13.6219 4.3638 13.1235C3.7768 12.6251 3.38839 11.9424 3.26625 11.1944C3.23849 10.9931 3.22457 10.7902 3.22458 10.5871C3.22458 9.64587 3.22458 8.70462 3.22458 7.76505C3.22458 7.63348 3.19679 7.57613 3.05093 7.53902C2.37092 7.36651 1.77427 6.96872 1.36403 6.41436C0.953789 5.85999 0.755712 5.18386 0.804008 4.50273C0.848977 3.81085 1.13726 3.15498 1.62058 2.64493C2.1039 2.13488 2.75292 1.8016 3.45899 1.70091C3.91635 1.63663 4.38272 1.67264 4.82388 1.80627C5.26505 1.93991 5.66983 2.16778 6.00853 2.47319C6.34722 2.7786 6.61124 3.15378 6.78122 3.57123C6.95121 3.98868 7.02284 4.43779 6.99087 4.88564C6.94378 5.48425 6.7117 6.0551 6.32503 6.52343C5.93836 6.99177 5.41512 7.33575 4.82382 7.51034C4.61198 7.57276 4.56856 7.66553 4.5703 7.85952C4.58072 8.78559 4.5703 9.71503 4.5703 10.6394C4.56091 10.9139 4.60956 11.1874 4.71324 11.4429C4.81692 11.6984 4.97342 11.9306 5.1731 12.125C5.37277 12.3194 5.61136 12.4721 5.87414 12.5734C6.13692 12.6747 6.4183 12.7227 6.70089 12.7142H11.99C12.0491 12.7142 12.1064 12.7142 12.1637 12.7142C12.5804 12.7328 12.7627 12.9217 12.7593 13.3265C12.7648 13.4076 12.7523 13.4889 12.7225 13.5648C12.6927 13.6407 12.6463 13.7094 12.5866 13.7663C12.5269 13.8232 12.4553 13.8668 12.3766 13.8943C12.2979 13.9217 12.214 13.9323 12.1307 13.9254L9.21002 13.922ZM5.7476 4.67647C5.74276 4.21554 5.55366 3.77448 5.22024 3.44649C4.88682 3.1185 4.4352 2.92928 3.96082 2.9188C3.4837 2.92785 3.02871 3.11589 2.69111 3.44353C2.35352 3.77117 2.15951 4.21299 2.14973 4.67647C2.16462 5.13323 2.35865 5.5672 2.6921 5.88955C3.02554 6.21191 3.4732 6.39828 3.94346 6.41053C4.41715 6.40581 4.87035 6.22217 5.2071 5.89851C5.54384 5.57484 5.7377 5.13656 5.7476 4.67647Z" fill="#373737" stroke="#373737" stroke-width="0.4"/>
<path d="M9.34544 23.2317C10.3057 23.2317 11.2677 23.2317 12.2279 23.2317C12.315 23.2242 12.4026 23.2358 12.4845 23.2655C12.5663 23.2953 12.6403 23.3425 12.7009 23.4036C12.7615 23.4648 12.8073 23.5384 12.8348 23.619C12.8623 23.6995 12.8709 23.7851 12.86 23.8693C12.8513 24.2252 12.6047 24.4445 12.2036 24.4462C11.2729 24.4462 10.3404 24.4462 9.40795 24.4462C8.47549 24.4462 7.58645 24.4462 6.67657 24.4462C6.16078 24.4362 5.6616 24.6235 5.28672 24.9678C4.91184 25.3121 4.69132 25.7857 4.67274 26.2865C4.64496 26.9292 4.67274 27.5753 4.68316 28.2213C4.68316 28.6211 4.68316 29.0226 4.68316 29.4224C4.68316 29.5438 4.72483 29.591 4.84291 29.6197C6.35012 30.0296 7.20791 31.2559 7.08462 32.8247C6.98043 34.1455 5.81356 35.2993 4.39491 35.4831C3.97833 35.5319 3.5559 35.4983 3.15305 35.3843C2.75019 35.2703 2.37525 35.0783 2.0508 34.8199C1.72634 34.5614 1.45907 34.2418 1.26509 33.8804C1.07112 33.519 0.954432 33.1231 0.922072 32.7167C0.871344 32.0363 1.06271 31.3596 1.46414 30.7998C1.86557 30.2401 2.45271 29.8312 3.12733 29.6416C3.30097 29.5961 3.33396 29.5253 3.33222 29.3667C3.33222 28.4187 3.33222 27.4724 3.33222 26.5244C3.32543 26.0902 3.40846 25.659 3.5764 25.2566C3.74433 24.8541 3.99374 24.4885 4.30985 24.1814C4.62595 23.8743 5.00231 23.632 5.41661 23.4689C5.83091 23.3058 6.27472 23.2251 6.72171 23.2317H9.34544ZM3.95039 34.2264C4.30374 34.2241 4.64847 34.1201 4.94106 33.9277C5.23365 33.7352 5.46099 33.4628 5.59439 33.145C5.72779 32.8271 5.76128 32.478 5.69062 32.1416C5.61996 31.8053 5.44833 31.4968 5.19738 31.2552C4.94643 31.0135 4.6274 30.8495 4.28058 30.7837C3.93375 30.718 3.57465 30.7536 3.24861 30.886C2.92257 31.0183 2.64421 31.2415 2.44863 31.5274C2.25306 31.8133 2.14904 32.1491 2.14972 32.4924C2.15248 32.9541 2.34358 33.3959 2.68112 33.721C3.01866 34.046 3.4751 34.2278 3.95039 34.2264Z" fill="#373737" stroke="#373737" stroke-width="0.4"/>
<path d="M41.2778 24.4411C40.3384 24.4411 39.399 24.4411 38.4596 24.4411C38.0585 24.4411 37.8067 24.2252 37.7859 23.8777C37.775 23.7938 37.7833 23.7086 37.8102 23.6282C37.837 23.5478 37.8818 23.4741 37.9414 23.4124C38.0009 23.3507 38.0737 23.3025 38.1545 23.2713C38.2354 23.24 38.3224 23.2265 38.4093 23.2316C40.3193 23.2316 42.2294 23.2147 44.1516 23.2316C45.9054 23.2502 47.364 24.716 47.3727 26.4366C47.3727 27.4195 47.3727 28.4017 47.3727 29.3835C47.3727 29.5201 47.3935 29.5876 47.5463 29.6281C48.2265 29.8003 48.8233 30.198 49.2336 30.7524C49.6439 31.3069 49.8419 31.9832 49.7932 32.6644C49.744 33.4616 49.3707 34.2071 48.7556 34.737C48.1404 35.2669 47.3338 35.5377 46.5131 35.4898C45.6925 35.4419 44.925 35.0793 44.3796 34.4818C43.8341 33.8842 43.5554 33.1006 43.6046 32.3034C43.6706 31.1074 44.5874 30.011 45.8516 29.6433C45.8868 29.639 45.9207 29.6278 45.9513 29.6103C45.9819 29.5929 46.0085 29.5695 46.0295 29.5417C46.0505 29.5139 46.0653 29.4823 46.0733 29.4487C46.0812 29.4151 46.082 29.3803 46.0756 29.3464C46.0651 28.4051 46.0756 27.4656 46.0756 26.5243C46.0839 26.2495 46.0345 25.976 45.9305 25.7204C45.8264 25.4647 45.6699 25.2324 45.4703 25.0374C45.2708 24.8425 45.0325 24.6891 44.77 24.5866C44.5074 24.484 44.2261 24.4345 43.9432 24.4411H41.2778ZM46.6781 34.2247C47.0317 34.227 47.3782 34.1274 47.6736 33.9385C47.969 33.7496 48.2001 33.4799 48.3377 33.1634C48.4753 32.847 48.5133 32.4979 48.4468 32.1605C48.3803 31.8231 48.2123 31.5124 47.964 31.2677C47.7158 31.023 47.3984 30.8553 47.0521 30.7858C46.7058 30.7163 46.346 30.7481 46.0182 30.8771C45.6905 31.0062 45.4095 31.2268 45.2108 31.511C45.012 31.7952 44.9045 32.1302 44.9017 32.4738C44.8988 32.7024 44.9425 32.9294 45.0303 33.1416C45.1182 33.3538 45.2485 33.547 45.4137 33.7099C45.5789 33.8729 45.7756 34.0025 45.9927 34.0911C46.2097 34.1797 46.4427 34.2257 46.6781 34.2264V34.2247Z" fill="#373737" stroke="#373737" stroke-width="0.4"/>
<path d="M41.3236 13.9223H38.4393C38.0434 13.9223 37.8038 13.7216 37.783 13.3775C37.7604 12.9962 37.9566 12.7702 38.3786 12.723C38.4646 12.7148 38.5509 12.7108 38.6373 12.7112H43.9056C44.1845 12.7169 44.4617 12.6678 44.7206 12.5667C44.9794 12.4657 45.2146 12.3148 45.4118 12.1232C45.6091 11.9316 45.7644 11.7031 45.8684 11.4517C45.9724 11.2002 46.023 10.9309 46.0171 10.66C46.0171 9.69848 46.0171 8.73699 46.0171 7.7755C46.0171 7.65236 46.0171 7.58151 45.8434 7.54103C45.1755 7.37613 44.5864 6.99277 44.1753 6.45544C43.7641 5.91812 43.5561 5.25962 43.5861 4.59076C43.6069 3.92628 43.8528 3.28703 44.2858 2.7722C44.7187 2.25737 45.3145 1.89573 45.9806 1.7434C46.7565 1.56317 47.5743 1.68712 48.2568 2.0884C48.9393 2.48968 49.4316 3.13599 49.6271 3.88736C49.8357 4.63804 49.7336 5.43822 49.3425 6.11666C48.9515 6.7951 48.3026 7.29788 47.5347 7.51741C47.4989 7.52162 47.4644 7.53296 47.4333 7.55072C47.4023 7.56847 47.3753 7.59226 47.3541 7.62059C47.3329 7.64893 47.318 7.68121 47.3102 7.7154C47.3025 7.7496 47.302 7.78499 47.309 7.81935C47.309 8.75892 47.309 9.70017 47.309 10.6414C47.3148 11.0736 47.2316 11.5026 47.0643 11.9032C46.8971 12.3037 46.6491 12.6678 46.3349 12.9739C46.0207 13.28 45.6468 13.5221 45.235 13.6858C44.8232 13.8495 44.3818 13.9317 43.9369 13.9274C43.0739 13.9037 42.1987 13.9223 41.3236 13.9223ZM48.4897 4.67679C48.48 4.21616 48.287 3.77709 47.9513 3.45162C47.6156 3.12615 47.1633 2.93954 46.6891 2.93092C46.2164 2.94169 45.7662 3.12924 45.4324 3.45449C45.0986 3.77973 44.9068 4.21759 44.8971 4.67679C44.9056 5.13751 45.0983 5.57694 45.4343 5.90213C45.7704 6.22733 46.2235 6.41279 46.6978 6.41929C47.1704 6.41021 47.6211 6.22366 47.9552 5.89878C48.2893 5.5739 48.4809 5.13594 48.4897 4.67679Z" fill="#373737" stroke="#373737" stroke-width="0.4"/>
<path d="M9.66287 19.2928C8.82418 19.2928 7.98549 19.2928 7.14854 19.2928C7.00268 19.2928 6.93669 19.3249 6.89675 19.475C6.53558 20.8245 5.28883 21.6814 3.79377 21.6342C3.11818 21.5996 2.4726 21.352 1.95493 20.9289C1.43727 20.5058 1.07576 19.9302 0.925218 19.2895C0.833894 18.8893 0.82742 18.4753 0.906205 18.0727C0.984989 17.6701 1.14737 17.2873 1.38345 16.9476C1.61954 16.6079 1.92437 16.3185 2.27936 16.0971C2.63435 15.8756 3.03206 15.7267 3.44823 15.6594C4.17827 15.5444 4.92648 15.6902 5.55441 16.0698C6.18234 16.4494 6.64748 17.0371 6.86376 17.7241C6.92975 17.9316 7.02178 17.9704 7.2232 17.9704C8.85544 17.9619 10.4877 17.9704 12.1216 17.9704C12.6825 17.9704 12.9256 18.2403 12.8544 18.7801C12.844 18.9038 12.7902 19.0204 12.7021 19.1103C12.6139 19.2003 12.4967 19.2581 12.3699 19.2743C12.2341 19.2917 12.0971 19.2991 11.9602 19.2962L9.66287 19.2928ZM5.74378 18.5945C5.74217 18.1323 5.55553 17.6889 5.22335 17.358C4.89118 17.0271 4.43952 16.8348 3.96395 16.8216C3.48633 16.8302 3.03056 17.0177 2.6918 17.3449C2.35304 17.672 2.15747 18.1137 2.14591 18.5776C2.15791 19.0258 2.34328 19.4531 2.66508 19.7745C2.98688 20.0959 3.42149 20.2877 3.88233 20.3117C4.1207 20.318 4.35801 20.2785 4.58065 20.1956C4.8033 20.1126 5.00691 19.9878 5.17983 19.8283C5.35274 19.6688 5.49155 19.4777 5.58832 19.266C5.6851 19.0543 5.73793 18.8261 5.74378 18.5945Z" fill="#373737" stroke="#373737" stroke-width="0.4"/>
<path d="M40.9808 17.9653C41.8195 17.9653 42.6582 17.9653 43.4951 17.9653C43.634 17.9653 43.707 17.9451 43.7486 17.7966C43.9205 17.1439 44.3217 16.5701 44.8829 16.1743C45.4441 15.7785 46.13 15.5856 46.8221 15.6291C48.397 15.7117 49.576 16.7828 49.774 18.2285C49.8592 18.9933 49.6374 19.7605 49.1548 20.3704C48.6722 20.9803 47.966 21.3859 47.1833 21.5026C46.4444 21.6156 45.6885 21.4613 45.059 21.0689C44.4294 20.6765 43.97 20.0734 43.7677 19.3738C43.7642 19.3428 43.7539 19.3129 43.7375 19.286C43.7212 19.2591 43.6991 19.2359 43.6729 19.2179C43.6466 19.1999 43.6168 19.1875 43.5852 19.1815C43.5537 19.1755 43.5212 19.1761 43.4899 19.1832C41.8056 19.1832 40.123 19.1832 38.4387 19.1832C37.9924 19.1832 37.7441 18.9049 37.7858 18.4849C37.8222 18.166 38.0758 17.9687 38.4612 17.9687C39.3051 17.9636 40.1438 17.9653 40.9808 17.9653ZM46.6901 20.3269C47.1646 20.3269 47.6199 20.1452 47.9573 19.8212C48.2947 19.4972 48.4871 19.057 48.4925 18.5962C48.4875 18.1311 48.2948 17.6865 47.9557 17.3581C47.6167 17.0297 47.1585 16.8437 46.6797 16.8402C46.2094 16.8515 45.7617 17.0389 45.4304 17.3633C45.099 17.6877 44.9095 18.124 44.9016 18.581C44.9083 19.0398 45.0989 19.4779 45.4329 19.8023C45.7669 20.1268 46.2179 20.3119 46.6901 20.3184V20.3269Z" fill="#373737" stroke="#373737" stroke-width="0.4"/>
<path d="M24.1673 19.6894C24.1673 19.578 24.1673 19.465 24.1673 19.352C24.1829 18.9691 24.2281 18.5777 23.8044 18.3399C23.6021 18.092 23.4657 17.7994 23.4072 17.4882C23.3488 17.1769 23.3701 16.8565 23.4693 16.5551C23.5684 16.2537 23.7424 15.9807 23.9759 15.7601C24.2094 15.5395 24.4952 15.3781 24.808 15.2901C25.8499 14.9983 26.9803 15.6831 27.239 16.7678C27.3202 17.0722 27.3146 17.3924 27.2228 17.694C27.1311 17.9956 26.9566 18.2672 26.7181 18.4799C26.6453 18.543 26.5881 18.6214 26.5508 18.709C26.5135 18.7966 26.4971 18.8913 26.5028 18.986C26.5167 19.5122 26.5028 20.0402 26.5028 20.5665C26.5051 20.7159 26.4766 20.8643 26.4189 21.0028C26.3613 21.1414 26.2756 21.2673 26.167 21.3731C26.0583 21.4789 25.929 21.5625 25.7866 21.619C25.6441 21.6754 25.4915 21.7036 25.3377 21.7017C25.0275 21.6974 24.7313 21.5763 24.5113 21.3639C24.2914 21.1515 24.1649 20.8644 24.1586 20.5631C24.1638 20.2764 24.1673 19.9812 24.1673 19.6894Z" fill="#373737" stroke="#373737" stroke-width="0.4"/>
</g>
<defs>
<clipPath id="clip0_408_1784">
<rect width="49" height="35" fill="white" transform="translate(0.796875 0.5)"/>
</clipPath>
</defs>
</svg>
