<svg width="41" height="21" viewBox="0 0 41 21" fill="none" xmlns="http://www.w3.org/2000/svg">
<g clip-path="url(#clip0_408_1906)">
<path d="M11.9172 7.77564C7.97676 10.5313 5.91084 14.3334 5.64683 19.1063C5.60888 19.7869 5.40428 20.0045 4.73104 19.9748C3.60897 19.9237 2.48029 19.9171 1.35823 19.9748C0.661886 20.0061 0.505138 19.6996 0.544741 19.0964C0.917663 13.4929 3.01988 8.71341 7.24578 4.94092C7.32664 4.86841 7.41078 4.78765 7.48008 4.71184L7.6946 4.51736C7.75431 4.51444 7.81147 4.49232 7.85756 4.45431C7.90365 4.41629 7.93622 4.36441 7.95038 4.30641C8.03486 4.30017 8.11596 4.2707 8.1847 4.22124C8.25343 4.17179 8.30712 4.10429 8.3398 4.02623C8.40002 4.01867 8.45699 3.99468 8.50444 3.95688C8.5519 3.91908 8.58799 3.86894 8.60876 3.81198C8.70927 3.80645 8.8065 3.7744 8.89056 3.7191C8.97462 3.6638 9.04252 3.58723 9.0873 3.49719L9.10214 3.48236C9.83276 3.13478 10.5233 2.7087 11.1615 2.21168L11.4007 2.10785C11.8858 1.92656 12.3792 1.76505 12.8545 1.55903C14.4468 0.868483 16.1431 0.548755 17.8196 0.159805L18.3311 0.130138C18.7733 0.158156 19.2222 0.255393 19.6364 0.00158691H20.4878C22.5867 0.151563 24.6609 0.400425 26.6938 1.01846C28.2812 1.50135 29.6772 2.36825 31.2002 2.97145C31.22 3.26316 32.3124 3.13626 31.5055 3.751C31.4802 3.75066 31.4553 3.75724 31.4335 3.77002C31.4117 3.7828 31.3938 3.8013 31.3818 3.82351H31.3553C31.1552 3.81178 30.955 3.8461 30.7702 3.92382C30.5853 4.00153 30.4209 4.12058 30.2894 4.2718L29.8571 4.3987L29.7217 4.47451L29.7086 4.48275C28.8835 4.79424 28.0238 5.03322 27.306 5.58203L27.0684 5.64796C26.3374 6.00559 25.6229 5.95615 24.8754 5.64796C24.486 5.48315 24.0504 5.33647 23.6065 5.3958L23.1115 5.32328C23.0242 5.24622 22.9181 5.19359 22.8039 5.17072C22.6898 5.14785 22.5716 5.15557 22.4613 5.19308L21.7897 5.16671C20.9193 5.08427 20.0431 5.08427 19.1727 5.16671C18.9486 5.1183 18.7152 5.13605 18.5011 5.2178C18.3922 5.18426 18.2769 5.17708 18.1647 5.19685C18.0526 5.21663 17.9467 5.26279 17.8559 5.33152L17.5127 5.37107C17.4293 5.33781 17.3373 5.33287 17.2508 5.35699C17.1643 5.38111 17.0882 5.43297 17.0341 5.50457L16.6876 5.5639C16.0094 5.67762 15.3494 5.84078 14.7752 6.24621L14.7372 6.22479L14.7059 6.25281C14.3989 6.29401 14.0953 6.3418 13.8957 6.61868L13.8742 6.63187L13.6449 6.75547L13.3627 6.88403L13.003 7.08674C12.9807 7.08427 12.9582 7.08862 12.9384 7.09922C12.9187 7.10981 12.9026 7.12615 12.8924 7.14607C12.5145 7.27792 12.1515 7.4246 11.9172 7.77564Z" fill="#373737"/>
<path d="M37.2124 6.05341C37.2421 6.38303 37.0012 6.51323 36.8362 6.67474C33.7373 9.70064 30.6357 12.7221 27.5313 15.7392C26.0808 17.1517 24.6403 18.574 23.1915 19.9897C22.0249 21.1285 20.657 21.2406 19.2313 20.6324C17.8056 20.0243 17.0862 18.8706 16.9921 17.3544C16.9013 15.8002 17.6125 14.5806 18.9887 13.9494C22.8021 12.2057 26.6617 10.5675 30.5014 8.88483C32.5096 8.0031 34.5145 7.11313 36.5243 6.23305C36.7339 6.14241 36.9434 5.971 37.2124 6.05341Z" fill="#373737"/>
<path d="M37.92 19.9551C37.2302 19.8777 36.2402 20.2699 35.7088 19.7788C35.1775 19.2876 35.4465 18.2856 35.3227 17.5126C35.1744 16.5977 34.9418 15.6985 34.628 14.8263C34.5142 14.5098 34.5076 14.289 34.793 14.0302C35.8276 13.0628 36.8424 12.0706 37.8457 11.0637C38.1889 10.7225 38.3589 10.7983 38.5519 11.2021C39.7748 13.7191 40.4497 16.4664 40.5321 19.2629C40.5486 19.8249 40.3555 19.9864 39.8291 19.9568C39.2235 19.9287 38.6196 19.9551 37.92 19.9551Z" fill="#373737"/>
</g>
<defs>
<clipPath id="clip0_408_1906">
<rect width="40" height="21" fill="white" transform="translate(0.53125)"/>
</clipPath>
</defs>
</svg>
