<svg width="39" height="44" viewBox="0 0 39 44" fill="none" xmlns="http://www.w3.org/2000/svg">
<path d="M0.500403 20.4807C0.500403 16.4408 0.573853 12.4009 0.471017 8.36095C0.41617 6.2257 1.35933 4.8137 3.0106 3.7042C4.75 2.54149 6.69606 1.90102 8.72341 1.51772C12.8672 0.729445 16.9954 0.809257 21.0638 1.97886C23.0392 2.54544 24.9021 3.35835 26.3339 4.92603C27.0639 5.69467 27.4655 6.72051 27.4524 7.78354C27.4456 16.159 27.4289 24.5344 27.4651 32.9099C27.473 34.6175 26.7678 35.8659 25.4936 36.8729C23.7728 38.2288 21.7719 38.951 19.6613 39.3836C15.0582 40.3305 10.4912 40.2408 6.00363 38.7461C4.28674 38.1746 2.68838 37.3666 1.48078 35.9447C0.834069 35.2157 0.480987 34.2702 0.490612 33.2932C0.50922 29.0217 0.500403 24.7512 0.500403 20.4807ZM13.8535 12.9832C16.541 12.9497 19.0609 12.6679 21.4869 11.8166C23.0677 11.2628 24.5789 10.5701 25.6719 9.21623C26.4652 8.23089 26.5053 7.11843 25.7894 6.08578C25.095 5.08369 24.099 4.46292 23.0304 3.95153C20.8219 2.89524 18.4674 2.4272 16.0464 2.24885C12.83 2.01138 9.66168 2.24885 6.58245 3.26967C5.00758 3.79092 3.51596 4.48263 2.38378 5.7685C1.41908 6.86322 1.375 8.04564 2.25743 9.2044C2.98317 10.1572 3.97627 10.7514 5.035 11.2401C7.87721 12.5516 10.9035 12.929 13.8535 12.9832ZM1.61104 10.3119V10.8401C1.61104 12.5152 1.62573 14.1903 1.60418 15.8653C1.59374 16.2759 1.66483 16.6844 1.81333 17.067C1.96183 17.4496 2.18474 17.7984 2.46899 18.0932C3.52086 19.2362 4.86458 19.9023 6.2945 20.3841C10.738 21.8789 15.2521 21.9558 19.7975 20.93C21.6054 20.5221 23.3233 19.8727 24.808 18.7091C25.7816 17.9444 26.3643 17.0005 26.3095 15.6752C26.2438 14.0681 26.2948 12.457 26.2928 10.847C26.2928 10.6992 26.2791 10.5514 26.2673 10.3316C24.6866 11.853 22.8395 12.66 20.8807 13.2069C17.3098 14.2001 13.6811 14.3627 10.0241 13.8227C6.97519 13.3734 4.06639 12.5516 1.61496 10.3119H1.61104ZM1.61104 27.5742V28.0964C1.61104 29.7883 1.61985 31.4801 1.61104 33.172C1.60516 34.046 1.9362 34.7613 2.5209 35.3821C3.51107 36.4354 4.75294 37.0848 6.08492 37.5499C10.5813 39.1175 15.1551 39.2131 19.769 38.1765C21.6093 37.7627 23.3615 37.1124 24.8619 35.9102C25.8021 35.1555 26.3614 34.2352 26.3153 32.9542C26.2575 31.3461 26.3026 29.7351 26.3016 28.126C26.3016 27.9713 26.286 27.8166 26.2732 27.5831C24.8697 28.9438 23.2371 29.7292 21.4742 30.2741C18.012 31.3491 14.4725 31.5944 10.883 31.1786C7.52366 30.7855 4.31711 29.9745 1.61398 27.5742H1.61104ZM26.2713 18.9485C24.8159 20.3851 23.1078 21.1685 21.2822 21.7144C17.1384 22.9529 12.9368 23.0446 8.71068 22.2336C6.53838 21.8178 4.45912 21.1232 2.63842 19.7998C2.30347 19.5565 1.99692 19.2756 1.61202 18.9574V19.52C1.61202 21.1291 1.64727 22.7391 1.60026 24.3482C1.56403 25.5631 2.08996 26.4588 2.96163 27.2057C3.92046 28.0206 5.02815 28.5753 6.20637 28.9793C10.5931 30.479 15.0542 30.5785 19.5555 29.6168C21.3664 29.2296 23.1 28.6118 24.6073 27.4905C25.4045 26.8993 26.2037 26.2095 26.2468 25.1503C26.33 23.1106 26.2713 21.0759 26.2713 18.9485Z" fill="#373737" stroke="#373737" stroke-width="0.5"/>
<path d="M24.2433 16.1698C24.2484 16.4783 24.1924 16.7847 24.0787 17.0712C23.9649 17.3577 23.7957 17.6186 23.5807 17.8387C23.3658 18.0588 23.1096 18.2336 22.8268 18.3531C22.5441 18.4726 22.2406 18.5343 21.9339 18.5346C21.324 18.5279 20.7406 18.2829 20.3069 17.8513C19.8732 17.4198 19.6232 16.8356 19.6098 16.222C19.6038 15.9096 19.6601 15.5991 19.7757 15.309C19.8912 15.0189 20.0634 14.7551 20.2822 14.5332C20.501 14.3113 20.7618 14.136 21.0492 14.0175C21.3367 13.899 21.6449 13.8398 21.9555 13.8434C22.2578 13.8442 22.5569 13.9051 22.8358 14.0226C23.1146 14.14 23.3676 14.3118 23.5802 14.528C23.7928 14.7442 23.9609 15.0006 24.0747 15.2823C24.1885 15.5641 24.2458 15.8657 24.2433 16.1698ZM21.9369 17.3719C22.2495 17.3667 22.548 17.2399 22.7698 17.0182C22.9916 16.7965 23.1195 16.4971 23.1268 16.1826C23.1147 15.8684 22.9839 15.5707 22.7612 15.3501C22.5385 15.1294 22.2405 15.0026 21.9281 14.9953C21.7729 14.9959 21.6195 15.0272 21.4764 15.0874C21.3333 15.1477 21.2034 15.2357 21.0941 15.3465C20.9849 15.4572 20.8983 15.5886 20.8395 15.733C20.7807 15.8774 20.7507 16.032 20.7513 16.188C20.7519 16.3441 20.783 16.4985 20.8429 16.6425C20.9028 16.7864 20.9903 16.9171 21.1004 17.027C21.2105 17.137 21.341 17.224 21.4845 17.2832C21.628 17.3424 21.7818 17.3725 21.9369 17.3719Z" fill="#373737" stroke="#373737" stroke-width="0.5"/>
<path d="M24.2451 33.4954C24.2439 33.804 24.181 34.1093 24.0602 34.393C23.9395 34.6767 23.7633 34.9331 23.5421 35.1469C23.3209 35.3608 23.0593 35.5278 22.7728 35.638C22.4862 35.7481 22.1806 35.7993 21.874 35.7883C20.5949 35.7696 19.5901 34.7044 19.6097 33.3821C19.6292 32.1011 20.6664 31.1089 21.9602 31.1227C23.2765 31.1365 24.2667 32.1672 24.2451 33.4954ZM21.9524 34.6414C22.2656 34.6302 22.5625 34.4981 22.7814 34.2724C23.0003 34.0466 23.1243 33.7447 23.1277 33.4294C23.1289 33.2694 23.0983 33.1108 23.0377 32.9628C22.9771 32.8149 22.8877 32.6806 22.7748 32.568C22.6619 32.4553 22.5277 32.3665 22.3802 32.3067C22.2326 32.247 22.0747 32.2175 21.9157 32.2201C21.7567 32.2227 21.5998 32.2572 21.4542 32.3217C21.3086 32.3861 21.1773 32.4792 21.0681 32.5955C20.9588 32.7117 20.8737 32.8488 20.8179 32.9986C20.762 33.1484 20.7365 33.3079 20.7428 33.4678C20.7549 33.7827 20.8876 34.0806 21.113 34.2993C21.3385 34.518 21.6392 34.6406 21.9524 34.6414Z" fill="#373737" stroke="#373737" stroke-width="0.5"/>
<path d="M24.2429 24.8253C24.2429 26.1466 23.2303 27.1517 21.909 27.1458C21.6068 27.1463 21.3075 27.0868 21.0282 26.9706C20.7489 26.8545 20.4951 26.684 20.2815 26.4689C20.0678 26.2539 19.8985 25.9985 19.7831 25.7175C19.6678 25.4364 19.6088 25.1352 19.6094 24.8312C19.6074 24.5229 19.6658 24.2173 19.7814 23.9319C19.897 23.6464 20.0674 23.3867 20.283 23.1676C20.4985 22.9486 20.7549 22.7745 21.0375 22.6553C21.3201 22.5361 21.6232 22.4743 21.9296 22.4733C22.2363 22.4703 22.5405 22.5293 22.8241 22.6467C23.1077 22.7642 23.3649 22.9377 23.5807 23.1571C23.7964 23.3764 23.9662 23.6371 24.0799 23.9236C24.1937 24.2102 24.2491 24.5168 24.2429 24.8253ZM21.9296 23.6261C21.6145 23.6268 21.3126 23.7533 21.0903 23.9779C20.868 24.2025 20.7434 24.5068 20.7441 24.8238C20.7447 25.1408 20.8705 25.4445 21.0938 25.6682C21.317 25.8919 21.6194 26.0172 21.9345 26.0166C22.2496 26.0159 22.5515 25.8894 22.7738 25.6647C22.9962 25.4401 23.1207 25.1359 23.1201 24.8189C23.1194 24.5019 22.9936 24.1981 22.7704 23.9744C22.5471 23.7508 22.2447 23.6255 21.9296 23.6261Z" fill="#373737" stroke="#373737" stroke-width="0.5"/>
<path d="M16.4219 18.459H38.5156L36.5065 41.1456L27.4454 43.7094L18.4339 41.1441L16.4219 18.459Z" fill="white"/>
<path d="M18.3359 20.6484H36.5968L34.9362 39.3993L27.4471 41.5183L19.9989 39.3981L18.3359 20.6484ZM33.1972 24.4854L21.7367 24.483L21.9215 26.7623L30.7262 26.7646L30.5051 29.1269H24.7305L24.9398 31.364H30.3157L29.9976 34.428L27.4669 35.1273L24.8977 34.4221L24.7328 32.5872H22.4641L22.7167 35.94L27.4669 37.4194L32.1389 36.0897L33.1972 24.4854Z" fill="#373737"/>
</svg>
