<svg width="34" height="34" viewBox="0 0 34 34" fill="none" xmlns="http://www.w3.org/2000/svg">
<path d="M22.6032 15.7765C22.4188 15.7848 22.1966 15.8034 21.9752 15.8029C18.696 15.8021 15.4169 15.7997 12.1382 15.7956C12.0085 15.8026 11.8786 15.7998 11.7494 15.7874C11.2722 15.7111 11.0248 15.4193 11.0128 14.9569C11.0008 14.4945 11.276 14.2451 11.7106 14.1573C11.8384 14.1372 11.9678 14.1292 12.097 14.1336C15.4695 14.1292 18.8424 14.126 22.2156 14.1238C22.3269 14.1189 22.4384 14.1248 22.5485 14.1412C22.995 14.2205 23.2293 14.5015 23.2584 14.9406C23.2874 15.3798 23.0281 15.6239 22.6032 15.7765Z" fill="#373737"/>
<path d="M22.6032 18.3253C22.4188 18.3337 22.1966 18.3522 21.9752 18.3518C18.696 18.351 15.4169 18.3485 12.1382 18.3445C12.0085 18.3514 11.8786 18.3486 11.7494 18.3362C11.2722 18.26 11.0248 17.9681 11.0128 17.5057C11.0008 17.0433 11.276 16.7939 11.7106 16.7062C11.8384 16.686 11.9678 16.6781 12.097 16.6824C15.4695 16.6781 18.8424 16.6748 22.2156 16.6726C22.3269 16.6678 22.4384 16.6736 22.5485 16.69C22.995 16.7694 23.2293 17.0503 23.2584 17.4895C23.2874 17.9287 23.0281 18.1728 22.6032 18.3253Z" fill="#373737"/>
<path d="M22.6032 20.8804C22.4188 20.8887 22.1966 20.9073 21.9752 20.9068C18.696 20.906 15.4169 20.9036 12.1382 20.8995C12.0085 20.9064 11.8786 20.9037 11.7494 20.8912C11.2722 20.815 11.0248 20.5232 11.0128 20.0608C11.0008 19.5984 11.276 19.349 11.7106 19.2612C11.8384 19.2411 11.9678 19.2331 12.097 19.2375C15.4695 19.2331 18.8424 19.2299 22.2156 19.2276C22.3269 19.2228 22.4384 19.2286 22.5485 19.245C22.995 19.3244 23.2293 19.6053 23.2584 20.0445C23.2874 20.4837 23.0281 20.7278 22.6032 20.8804Z" fill="#373737"/>
<path d="M6.60673 17.5193C7.68634 18.5944 8.70137 19.5993 9.70848 20.6122C10.2489 21.1537 10.3135 21.7508 9.89962 22.1798C9.4857 22.6088 8.87141 22.5611 8.33885 22.0302C7.12698 20.8165 5.91554 19.5989 4.70454 18.3772C4.11266 17.7788 4.10871 17.2637 4.694 16.6706C5.91554 15.4348 7.14236 14.2013 8.37445 12.97C8.87405 12.4735 9.47779 12.4337 9.88908 12.8468C10.3004 13.2599 10.2608 13.8663 9.76516 14.3668C8.74355 15.3982 7.70744 16.419 6.60673 17.5193Z" fill="#373737"/>
<path d="M27.6583 17.5062C26.5668 16.4258 25.5491 15.4235 24.5354 14.412C23.9989 13.8758 23.9436 13.2694 24.368 12.8443C24.7925 12.4193 25.391 12.4816 25.9288 13.0191C27.1433 14.2328 28.3543 15.4504 29.5618 16.6721C30.1458 17.2639 30.1418 17.7803 29.5486 18.38C28.342 19.6025 27.1306 20.8197 25.9143 22.0317C25.387 22.5613 24.7714 22.6116 24.3548 22.1786C23.9383 21.7457 24.0082 21.1538 24.5473 20.611C25.5584 19.5981 26.5734 18.5919 27.6583 17.5062Z" fill="#373737"/>
<rect x="1.8125" y="1.67773" width="30.6445" height="30.6445" rx="4" stroke="#373737" stroke-width="2"/>
</svg>
