<svg width="39" height="29" viewBox="0 0 39 29" fill="none" xmlns="http://www.w3.org/2000/svg">
<g clip-path="url(#clip0_408_1863)">
<path d="M32.7408 11.7379C33.7343 11.7379 34.6193 11.7248 35.5044 11.7379C38.0542 11.7831 39.4278 13.9568 38.3051 16.1961C36.3182 20.1564 34.3045 24.1008 32.3176 28.0597C31.982 28.7297 31.5053 28.9983 30.7345 28.9969C21.6265 28.9774 12.5184 28.973 3.4103 28.9837C1.63571 28.9837 0.703125 28.0714 0.703125 26.343C0.703125 18.4368 0.703125 10.5307 0.703125 2.62448C0.703125 0.928219 1.5481 0.0304529 3.26775 0.0114757C6.11452 -0.0191797 8.96129 0.0114769 11.8066 0.00125843C12.2904 -0.0187681 12.7708 0.0888502 13.198 0.312943C13.6252 0.537036 13.9836 0.869436 14.236 1.27565C14.8301 2.15151 15.4864 2.96607 16.0775 3.83464C16.1891 4.01944 16.3513 4.16969 16.5456 4.26828C16.7399 4.36687 16.9585 4.40983 17.1764 4.39228C21.3849 4.37281 25.5924 4.37281 29.799 4.39228C30.3647 4.37565 30.9281 4.46994 31.4563 4.66964C32.4215 5.08859 32.7453 5.94548 32.7423 6.94543C32.7363 8.50448 32.7408 10.0591 32.7408 11.7379ZM3.64494 26.7255C3.72527 26.7573 3.80894 26.7803 3.89442 26.7941C12.6065 26.7941 21.3186 26.7902 30.0306 26.7824C30.2475 26.7824 30.5519 26.5474 30.6662 26.3445C31.1325 25.5168 31.5379 24.6569 31.9671 23.8088C33.3977 20.9866 34.8272 18.1609 36.2558 15.3319C36.7102 14.4297 36.4043 13.9597 35.3752 13.9334C35.2757 13.9334 35.1762 13.9334 35.0782 13.9334C26.9834 13.9334 18.8916 13.9436 10.7968 13.9188C9.98743 13.9188 9.53895 14.1801 9.20185 14.9056C7.45102 18.65 5.66901 22.3797 3.88699 26.1182C3.80086 26.3094 3.73849 26.505 3.64494 26.7255ZM2.98262 2.20115V22.8381C4.44832 19.7725 5.86355 16.8822 7.19561 13.9626C7.91435 12.389 9.05781 11.7131 10.7997 11.7218C17.062 11.7583 23.3243 11.7364 29.5866 11.7364H30.5088C30.5088 10.2343 30.4717 8.85045 30.5237 7.47095C30.5504 6.78194 30.3633 6.55567 29.6327 6.56297C25.9691 6.59801 22.3056 6.57319 18.6436 6.58049C15.0187 6.58049 15.3439 6.75274 13.4817 3.93683C12.5817 2.57631 11.5972 2.03911 9.94139 2.15881C7.65002 2.31793 5.3423 2.19823 2.98262 2.19823V2.20115Z" fill="#373737"/>
</g>
<defs>
<clipPath id="clip0_408_1863">
<rect width="38" height="29" fill="white" transform="translate(0.703125)"/>
</clipPath>
</defs>
</svg>
