<svg width="34" height="29" viewBox="0 0 34 29" fill="none" xmlns="http://www.w3.org/2000/svg">
<path d="M16.1125 16.3741L15.8065 8.02207H18.7045L18.3985 16.3741H16.1125ZM17.2645 20.7121C16.7725 20.7121 16.3705 20.5681 16.0585 20.2801C15.7585 19.9801 15.6085 19.6201 15.6085 19.2001C15.6085 18.7681 15.7585 18.4081 16.0585 18.1201C16.3705 17.8201 16.7725 17.6701 17.2645 17.6701C17.7445 17.6701 18.1345 17.8201 18.4345 18.1201C18.7345 18.4081 18.8845 18.7681 18.8845 19.2001C18.8845 19.6201 18.7345 19.9801 18.4345 20.2801C18.1345 20.5681 17.7445 20.7121 17.2645 20.7121Z" fill="#373737"/>
<path d="M4.05613 13.9678C5.67266 15.5776 7.19246 17.0823 8.70043 18.5989C9.50969 19.4097 9.6064 20.3038 8.98664 20.9461C8.36687 21.5884 7.44708 21.517 6.64967 20.7221C4.83511 18.9048 3.0212 17.0816 1.20795 15.2525C0.32172 14.3564 0.315808 13.5852 1.19217 12.6971C3.02121 10.8468 4.85814 8.99977 6.70297 7.15608C7.45103 6.41266 8.35502 6.35318 8.97084 6.97171C9.58666 7.59024 9.52745 8.49821 8.78531 9.24758C7.25562 10.7919 5.70424 12.3204 4.05613 13.9678Z" fill="#373737"/>
<path d="M29.5442 13.9484C27.91 12.3307 26.3862 10.8299 24.8684 9.31534C24.065 8.51244 23.9821 7.60448 24.6177 6.96811C25.2532 6.33174 26.1493 6.42491 26.9546 7.22979C28.7732 9.04705 30.5864 10.8703 32.3944 12.6994C33.2688 13.5856 33.2629 14.3587 32.3747 15.2568C30.568 17.0872 28.7541 18.9098 26.9329 20.7244C26.1434 21.5174 25.2217 21.5927 24.5979 20.9445C23.9742 20.2962 24.0788 19.41 24.8861 18.5972C26.4 17.0806 27.9198 15.574 29.5442 13.9484Z" fill="#373737"/>
</svg>
