<svg width="35" height="34" viewBox="0 0 35 34" fill="none" xmlns="http://www.w3.org/2000/svg">
<path d="M34.3362 16.989C34.3362 20.7711 34.3362 24.5532 34.3362 28.3353C34.3362 31.1592 32.222 33.2201 29.3273 33.2214C21.5185 33.2214 13.7101 33.2214 5.90211 33.2214C3.04918 33.2214 0.92318 31.1491 0.921875 28.3708C0.921875 20.7863 0.921875 13.2014 0.921875 5.61609C0.921875 2.83655 3.04656 0.762986 5.8982 0.761719C13.7288 0.761719 21.5593 0.761719 29.3899 0.761719C32.1998 0.761719 34.3336 2.84542 34.3375 5.57807C34.341 9.38298 34.3406 13.1866 34.3362 16.989ZM17.631 31.8525C21.4589 31.8525 25.2893 31.7853 29.1158 31.8791C31.3345 31.9324 32.975 30.2428 32.9554 28.1769C32.8867 20.7191 32.8867 13.2606 32.9554 5.80114C32.9679 5.31421 32.8786 4.82987 32.6931 4.37735C32.5076 3.92482 32.2296 3.51347 31.8759 3.1681C31.5222 2.82274 31.1002 2.55051 30.6353 2.36784C30.1703 2.18517 29.6721 2.09583 29.1707 2.10523C21.4706 2.1686 13.7705 2.12804 6.07047 2.13438C5.68064 2.12183 5.29076 2.15761 4.91025 2.24084C3.25147 2.66544 2.32616 3.92403 2.32485 5.74157C2.32485 13.2006 2.36922 20.6596 2.29483 28.1173C2.27264 30.253 3.90662 31.9425 6.21011 31.8804C10.0158 31.7777 13.824 31.8525 17.631 31.8525Z" fill="#373737" stroke="#373737"/>
<path d="M21.1668 14.3021C22.0477 14.3021 22.8438 14.2945 23.6386 14.3021C24.4034 14.3122 24.5613 14.4605 24.5666 15.202C24.577 16.4061 24.577 17.6097 24.5666 18.813C24.5666 19.5088 24.3917 19.6698 23.6687 19.6774C22.5163 19.6875 21.3626 19.7053 20.2128 19.6685C19.7168 19.6521 19.5015 19.8079 19.3331 20.2655C18.2499 23.2085 16.445 25.5888 13.4981 27.0109C12.4455 27.5255 11.2832 27.7925 10.1048 27.7904C9.53318 27.7904 9.26432 27.5293 9.26563 26.983C9.26563 25.7371 9.26563 24.4912 9.26563 23.2453C9.26563 22.6978 9.52664 22.4202 10.0904 22.41C11.9854 22.3746 13.1718 21.3695 13.8008 19.7281C14.5552 17.7572 15.2012 15.747 15.9386 13.771C16.6211 11.9434 17.4251 10.1689 18.8202 8.71894C20.5625 6.91027 22.7486 6.16628 25.2543 6.19669C25.6981 6.19669 25.9591 6.45019 25.9643 6.86211C25.9826 8.19294 25.9787 9.52378 25.9643 10.8533C25.9643 11.3071 25.685 11.5314 25.223 11.5669C24.701 11.6075 24.1789 11.6392 23.6673 11.7228C22.2187 11.9611 21.6706 13.0384 21.1668 14.3021ZM10.7091 26.5965C11.7649 26.1757 12.7411 25.9158 13.5803 25.4304C16.06 23.988 17.4695 21.7548 18.2656 19.1172C18.4261 18.5874 18.6989 18.344 19.277 18.3567C20.4072 18.3795 21.5387 18.3466 22.6703 18.3706C23.1062 18.3808 23.2445 18.23 23.2223 17.8218C23.1903 17.2942 23.1903 16.7652 23.2223 16.2375C23.2536 15.7762 23.114 15.5936 22.6089 15.6177C21.7841 15.6545 20.9554 15.6418 20.1292 15.6177C19.4663 15.6 19.2013 15.1843 19.4636 14.5898C19.7012 14.0473 19.9857 13.5251 20.2284 12.9839C20.9245 11.4106 22.1426 10.5183 23.8827 10.3071L24.5261 10.2323V7.61118C24.429 7.60145 24.3314 7.59722 24.2338 7.59851C21.9707 7.76708 20.1606 8.77724 19.0604 10.6708C18.1285 12.2729 17.4264 14.0093 16.719 15.7255C16.0834 17.2667 15.6397 18.8827 15.0002 20.4227C14.3751 21.9259 13.3036 23.0717 11.6318 23.5432C11.3264 23.6293 11.0132 23.6876 10.7078 23.7574L10.7091 26.5965Z" fill="#373737" stroke="#373737"/>
</svg>
