<svg width="35" height="34" viewBox="0 0 35 34" fill="none" xmlns="http://www.w3.org/2000/svg">
<path d="M17.3307 32.9992H1.79325C1.13317 32.9992 0.851562 32.7227 0.851562 32.0713V1.87428C0.851562 1.30939 1.14752 1.00896 1.71343 1.00098C1.81792 1.00098 1.9224 1.00098 2.02733 1.00098H32.9906C33.5412 1.00098 33.8516 1.30805 33.8516 1.85254C33.8516 11.9627 33.8516 22.0728 33.8516 32.1827C33.8516 32.6642 33.5547 32.9739 33.0686 32.9988C32.9937 33.0023 32.9188 32.9988 32.8444 32.9988L17.3307 32.9992ZM19.528 19.92V2.55323H2.42777V19.92H19.528ZM21.1423 13.6631V31.4478H32.2798V13.6613L21.1423 13.6631ZM2.42867 21.4913V31.4469H19.5365V21.4913H2.42867ZM32.2718 12.1002V2.55323H21.141V12.1002H32.2718Z" fill="#373737" stroke="#373737" stroke-width="0.4"/>
</svg>
