<svg width="37" height="36" viewBox="0 0 37 36" fill="none" xmlns="http://www.w3.org/2000/svg">
<g clip-path="url(#clip0_408_1980)">
<path d="M17.2969 32.7133C24.4975 32.7133 29.9998 29.0238 32.1562 23.5926C32.8039 22.031 33.1534 20.3627 33.1867 18.6733C33.1867 18.1368 33.3409 17.8908 33.9271 17.877C34.5673 17.8403 35.2039 17.7576 35.8321 17.6295C36.3936 17.5326 36.5463 17.7571 36.5309 18.292C36.4152 22.2305 35.2568 25.8063 32.8288 28.9469C30.5829 31.897 27.466 34.0716 23.916 35.1652C20.646 36.2077 17.141 36.2708 13.8354 35.3466C9.23707 34.0968 5.6892 31.4481 3.16405 27.4235C1.70017 25.093 0.9073 22.5472 0.626556 19.8155C0.179217 15.3574 1.31453 11.3205 3.86591 7.67098C5.34438 5.57295 7.27226 3.82862 9.5101 2.56414C9.98983 2.28743 10.2551 2.37659 10.4773 2.83931C10.7518 3.41272 11.0496 3.9769 11.318 4.55338C11.5077 4.96229 11.3951 5.29742 10.994 5.52494C8.78032 6.78871 6.96163 8.6395 5.74011 10.8716C4.30448 13.3954 3.66835 16.293 3.91527 19.1837C4.20218 22.8854 5.65989 26.0245 8.32233 28.598C11.1791 31.3451 14.636 32.6518 17.2969 32.7133Z" fill="#373737"/>
<path d="M14.7902 17.5618C14.6575 15.8939 16.0134 14.5856 17.9586 14.5687C21.3969 14.538 24.8353 14.558 28.2752 14.5826C28.7055 14.5826 29.3334 14.4688 29.4922 14.9039C29.5786 15.136 28.9014 15.3435 28.5667 15.5403C25.6359 17.2113 22.705 18.8624 19.7896 20.5441C18.7623 21.1375 17.7226 21.4511 16.6058 20.8608C15.3131 20.1844 14.7794 19.0591 14.7902 17.5618Z" fill="#373737"/>
<path d="M18.543 0.0138682C19.194 -0.0476229 19.8218 0.121478 20.4588 0.179895C20.809 0.21064 20.9987 0.356682 20.9216 0.717942C20.7442 1.50195 20.5529 2.28443 20.3617 3.0669C20.2614 3.48197 19.9699 3.53731 19.5904 3.49427C18.1805 3.34054 16.7814 3.37129 15.4116 3.80172C14.9118 3.95545 14.517 3.85707 14.2917 3.32056C14.0449 2.73485 13.7611 2.16298 13.4942 1.58497C13.2737 1.10995 13.4001 0.782508 13.9231 0.6626C15.4408 0.310882 16.9868 0.0937901 18.543 0.0138682Z" fill="#373737"/>
<path d="M33.3897 14.7594C32.9269 14.8163 32.714 14.5749 32.6184 14.1783C32.2903 12.8429 31.7261 11.5764 30.9525 10.4381C30.5776 9.89546 30.5036 9.46809 31.1237 9.03919C31.6167 8.67268 32.0874 8.27742 32.5336 7.85549C32.8791 7.54803 33.1228 7.58031 33.4051 7.96617C34.6931 9.71252 35.5107 11.6679 36.1277 13.7279C36.2573 14.1599 36.1539 14.5073 35.5832 14.4566C34.8289 14.3905 34.1162 14.6364 33.3897 14.7594Z" fill="#373737"/>
<path d="M24.3275 1.11139C25.1743 1.35512 25.9956 1.67944 26.7801 2.07988C28.0352 2.71211 29.2098 3.49195 30.2786 4.40271C30.7167 4.77473 30.9543 5.05144 30.3465 5.50186C29.7125 5.97227 29.2096 6.81777 28.5294 6.96996C27.8121 7.12369 27.2522 6.20132 26.5873 5.79702C25.7775 5.3097 24.9738 4.82085 24.0776 4.51493C23.7506 4.40271 23.5901 4.21823 23.6426 3.90002C23.786 3.04683 23.9511 2.19517 24.1161 1.34506C24.1408 1.21439 24.2195 1.10832 24.3275 1.11139Z" fill="#373737"/>
</g>
<defs>
<clipPath id="clip0_408_1980">
<rect width="36" height="36" fill="white" transform="translate(0.53125)"/>
</clipPath>
</defs>
</svg>
