<svg width="43" height="34" viewBox="0 0 43 34" fill="none" xmlns="http://www.w3.org/2000/svg">
<path d="M21.2596 0.65277C21.1761 0.65277 18.9201 1.93392 14.4918 4.49623L7.84929 8.33969L7.13908 7.92193C6.60991 7.64341 6.2757 7.44846 6.13644 7.33705C5.94148 7.1978 5.82311 7.05158 5.78134 6.8984C5.73956 6.74521 5.71171 6.48063 5.69778 6.10464C5.68386 5.72865 5.64904 5.44317 5.59334 5.24821C5.53764 5.05326 5.42624 4.84437 5.25913 4.62156C4.70211 3.89743 3.97101 3.53537 3.06585 3.53537C2.16069 3.53537 1.44352 3.88351 0.914346 4.57979C0.496578 5.13681 0.336434 5.79131 0.433913 6.54329C0.531392 7.29528 0.858643 7.88015 1.41567 8.29792C1.74988 8.57643 2.20943 8.74354 2.7943 8.79924C3.37917 8.85494 3.85264 8.78531 4.21471 8.59035C4.46537 8.47895 4.66033 8.44414 4.79958 8.48591C4.93884 8.52769 5.31483 8.71568 5.92756 9.0499L7.13908 9.7601V25.134L21.3014 33.3222L21.7609 33.0715C23.8498 31.8461 26.5165 30.3073 29.7612 28.4552C33.0059 26.6031 34.6769 25.677 34.7744 25.677C34.8719 25.677 35.2548 25.872 35.9233 26.2619L36.8841 26.805V27.6406C36.8841 28.3925 37.093 29.0122 37.5108 29.4996C37.9286 29.987 38.4995 30.2864 39.2236 30.3978C39.8085 30.4535 40.3516 30.3282 40.8529 30.0218C41.3542 29.7155 41.7233 29.2907 41.96 28.7476C42.1967 28.2045 42.2455 27.6545 42.1062 27.0975C41.8834 26.2619 41.3891 25.6631 40.6232 25.3011C39.8572 24.939 39.0983 24.939 38.3463 25.3011C38.1235 25.4125 37.9355 25.4473 37.7823 25.4055C37.6292 25.3637 37.2601 25.1897 36.6753 24.8833L35.5055 24.2149V8.75746L28.4035 4.66334C23.6966 1.96178 21.3153 0.624919 21.2596 0.65277ZM20.4659 3.53537V7.54594V11.5565H20.1317C19.0733 11.5008 18.1751 11.4103 17.4371 11.285C16.699 11.1596 16.33 11.0482 16.33 10.9507C16.33 10.8533 16.4971 10.4007 16.8313 9.593C17.1655 8.78531 17.4371 8.15866 17.6459 7.71304C17.8548 7.26742 18.2378 6.62685 18.7948 5.79131C19.3518 4.95578 19.7835 4.35698 20.0899 3.99491L20.4659 3.53537ZM22.3876 3.95313C22.4712 3.95313 22.5826 4.03669 22.7218 4.20379C22.8332 4.34305 23.0282 4.62156 23.3067 5.03933L23.5156 5.33177C24.0726 6.13945 24.6992 7.26742 25.3955 8.71568C26.0918 10.1639 26.3703 10.9438 26.2311 11.0552C26.2032 11.1109 25.8899 11.1805 25.2911 11.2641C24.6923 11.3476 24.0169 11.4172 23.2649 11.473L22.1787 11.5983V6.91928V4.66334C22.2066 4.18987 22.2762 3.95313 22.3876 3.95313ZM25.0613 4.62156L26.1057 5.24821C27.6375 6.1116 29.1276 6.96802 30.5758 7.81748C32.0241 8.66695 32.7482 9.11953 32.7482 9.17523C32.7482 9.23093 32.3026 9.41196 31.4114 9.71833C29.1554 10.5539 27.9857 10.8463 27.9021 10.5956C27.4287 9.25878 27.0387 8.25614 26.7324 7.58771C26.426 6.91928 26.0361 6.20908 25.5626 5.4571L25.0613 4.62156ZM17.4162 4.78867V4.80956C17.4162 4.80956 17.2908 5.01148 17.0402 5.41532C16.7338 5.91664 16.3787 6.58507 15.9749 7.42061C15.571 8.25614 15.2577 8.9942 15.0349 9.63477C14.7564 10.4146 14.6032 10.8045 14.5753 10.8045L13.322 10.4285C12.5701 10.2057 11.8111 9.95506 11.0452 9.67655C10.2793 9.39804 9.89635 9.22397 9.89635 9.15434C9.89635 9.08471 11.1497 8.32577 13.6563 6.87751C16.0236 5.5128 17.2769 4.81652 17.4162 4.78867ZM3.12851 5.16466C3.32347 5.16466 3.51147 5.22733 3.6925 5.35266C3.87353 5.47799 4.00583 5.64509 4.08938 5.85398C4.17293 6.06286 4.15204 6.32048 4.02671 6.62685C3.90138 6.93321 3.72731 7.11424 3.5045 7.16994C2.89178 7.42061 2.43223 7.2535 2.12587 6.66862C2.04232 6.47367 1.99358 6.32048 1.97965 6.20908C1.96573 6.09767 2.0075 5.95146 2.10498 5.77042C2.20246 5.58939 2.34172 5.44317 2.52275 5.33177C2.70378 5.22036 2.9057 5.16466 3.12851 5.16466ZM8.81015 10.6374C8.92156 10.6374 9.36021 10.7906 10.1261 11.097C10.892 11.4033 11.7485 11.6958 12.6954 11.9743C13.6423 12.2528 14.1297 12.399 14.1576 12.4129C14.1854 12.4269 14.1437 12.8377 14.0322 13.6453L13.698 16.1937H11.275C9.65961 16.1937 8.81712 16.1519 8.74749 16.0684C8.67786 15.9848 8.65001 15.0588 8.66393 13.2902C8.67786 11.5217 8.7266 10.6374 8.81015 10.6374ZM33.6255 10.6792C33.7091 10.6792 33.7648 10.8324 33.7927 11.1387C33.8205 11.4451 33.8344 12.1971 33.8344 13.3947V16.1937H31.3696C29.7542 16.1937 28.9117 16.1589 28.8421 16.0893C28.7725 16.0197 28.7377 15.7481 28.7377 15.2746C28.7377 14.8012 28.682 14.2024 28.5706 13.4782L28.3617 12.392L29.1137 12.1832C29.6428 12.0439 30.4644 11.7793 31.5785 11.3894L33.6255 10.6792ZM26.7324 12.7263L26.8995 13.7289C27.0109 14.3973 27.0805 14.9543 27.1084 15.4L27.1502 16.1102L24.0169 16.1937L23.7662 15.7342C23.6548 15.5114 23.4181 15.2259 23.056 14.8778C22.694 14.5296 22.4433 14.3555 22.304 14.3555C22.2762 14.3555 22.2483 14.2929 22.2205 14.1676C22.1926 14.0422 22.1787 13.896 22.1787 13.7289V13.1022H23.1814C23.8776 13.1022 24.6435 13.0326 25.4791 12.8934L26.7324 12.7263ZM16.0793 12.8516C16.33 12.8516 16.7617 12.8794 17.3744 12.9351C18.2656 13.0465 19.0037 13.1022 19.5886 13.1022H20.4659V13.6871C20.4659 13.9378 20.4311 14.1188 20.3614 14.2302C20.2918 14.3416 20.1317 14.467 19.881 14.6062C19.7139 14.7176 19.5398 14.8708 19.3588 15.0658C19.1778 15.2607 19.0455 15.4278 18.9619 15.5671L18.6277 16.1937H15.3691L15.4944 15.1493C15.5501 14.5923 15.6198 14.084 15.7033 13.6245C15.7869 13.1649 15.8565 12.9073 15.9122 12.8516H16.0793ZM21.3014 15.8595C21.5521 15.8595 21.7749 15.9361 21.9698 16.0893C22.1648 16.2425 22.2832 16.4305 22.3249 16.6533C22.3667 16.8761 22.3319 17.1128 22.2205 17.3635C22.1091 17.6141 21.9559 17.7812 21.7609 17.8648C21.5103 17.9762 21.3432 18.018 21.2596 17.9901C20.8419 17.9344 20.5494 17.7255 20.3823 17.3635C20.2152 17.0014 20.2222 16.6602 20.4032 16.3399C20.5842 16.0197 20.8836 15.8595 21.3014 15.8595ZM13.698 17.6977L13.7816 18.3661L14.0322 20.2461C14.1158 20.8588 14.1297 21.2557 14.074 21.4367C14.0183 21.6177 13.8651 21.7083 13.6145 21.7083C13.4752 21.7083 12.8834 21.8754 11.839 22.2096C10.7945 22.5438 10.0078 22.8223 9.47858 23.0451L8.64305 23.3793L8.7266 17.7812L13.698 17.6977ZM33.8344 17.6977V20.5385C33.8344 22.4324 33.8205 23.3793 33.7927 23.3793L33.3331 23.1704C33.1103 23.0312 32.4697 22.7805 31.4114 22.4185C30.353 22.0564 29.5732 21.8197 29.0719 21.7083L28.4035 21.5412L28.5288 20.6638C28.6123 20.079 28.682 19.4523 28.7377 18.7839L28.8212 17.7812L33.8344 17.6977ZM16.4135 17.6977H16.6224H18.6277L18.9619 18.2408C19.0455 18.4079 19.1778 18.582 19.3588 18.763C19.5398 18.944 19.7139 19.0902 19.881 19.2017C20.1317 19.3688 20.2918 19.508 20.3614 19.6194C20.4311 19.7308 20.4659 19.9119 20.4659 20.1625V20.7474L18.8366 20.8309C17.7225 20.9145 16.9566 20.9981 16.5389 21.0816H16.4553C16.2046 21.1373 16.0375 21.1512 15.954 21.1234C15.8704 21.0955 15.8078 20.9911 15.766 20.8101C15.7242 20.629 15.6755 20.26 15.6198 19.703L15.4944 19.0763C15.4387 18.575 15.4178 18.2477 15.4318 18.0946C15.4457 17.9414 15.5153 17.8369 15.6407 17.7812C15.766 17.7255 16.0236 17.6977 16.4135 17.6977ZM24.0169 17.6977H25.5209C26.5513 17.6977 27.0875 17.7395 27.1293 17.823C27.171 17.9066 27.1432 18.3522 27.0457 19.1599C26.9482 19.9676 26.8577 20.5107 26.7742 20.7892L26.6906 21.1652L25.3955 20.9981C24.5043 20.8588 23.7523 20.7892 23.1396 20.7892H22.1787V20.2043C22.1787 19.9258 22.2066 19.7308 22.2623 19.6194C22.318 19.508 22.4851 19.3688 22.7636 19.2017C22.9307 19.0902 23.1048 18.944 23.2858 18.763C23.4668 18.582 23.5991 18.4079 23.6827 18.2408L24.0169 17.6977ZM20.4659 22.3349V26.3037C20.4659 28.9496 20.4311 30.2725 20.3614 30.2725C20.2918 30.2725 19.9158 29.7712 19.2335 28.7685C18.5511 27.7659 18.0567 26.9443 17.7504 26.3037C17.3326 25.5239 16.9845 24.7649 16.706 24.0269C16.4274 23.2888 16.316 22.8919 16.3717 22.8362C16.4274 22.7805 16.7895 22.7109 17.4579 22.6273C18.1264 22.5438 18.8087 22.4742 19.505 22.4185L20.4659 22.3349ZM22.1787 22.3349L23.1396 22.4185C23.6966 22.4463 24.3441 22.5159 25.0822 22.6273C25.8203 22.7388 26.2171 22.8153 26.2728 22.8571C26.3285 22.8989 26.1266 23.4559 25.6671 24.5282C25.2075 25.6005 24.8107 26.443 24.4764 27.0557C23.9473 27.9191 23.432 28.685 22.9307 29.3534L22.1787 30.356V22.3349ZM14.6171 23.0869L14.9513 24.1313C15.4248 25.5239 16.0375 26.8329 16.7895 28.0583C17.2073 28.7546 17.4022 29.1167 17.3744 29.1445C17.3465 29.1724 16.1002 28.4691 13.6354 27.0348C11.1705 25.6005 9.93116 24.8485 9.91724 24.7788C9.90331 24.7092 10.2863 24.5282 11.0661 24.2358C11.8459 23.9433 12.6675 23.6718 13.5309 23.4211L14.6171 23.0869ZM28.111 23.1704C28.2224 23.1704 28.5288 23.2401 29.0301 23.3793C29.6985 23.5743 30.4853 23.8389 31.3905 24.1731C32.2957 24.5073 32.7482 24.7023 32.7482 24.758C32.7482 24.8137 32.4279 25.0365 31.7874 25.4264L28.0275 27.557C26.1614 28.6432 25.2284 29.1515 25.2284 29.0819C25.2284 29.0122 25.3398 28.8242 25.5626 28.5179C25.8968 28.0165 26.3077 27.2228 26.795 26.1366C27.2824 25.0504 27.6515 24.1174 27.9021 23.3376C27.93 23.2261 27.9996 23.1704 28.111 23.1704ZM39.4743 26.5961C39.7528 26.5961 39.9965 26.7075 40.2054 26.9304C40.4143 27.1532 40.5257 27.4108 40.5396 27.7032C40.5535 27.9957 40.456 28.2463 40.2472 28.4552C40.0383 28.6641 39.7876 28.7616 39.4952 28.7476C39.2027 28.7337 38.9521 28.6293 38.7432 28.4343C38.5343 28.2394 38.4299 28.0026 38.4299 27.7241C38.4299 27.5013 38.5482 27.2576 38.785 26.993C39.0217 26.7284 39.2515 26.5961 39.4743 26.5961Z" fill="#373737"/>
</svg>
