<svg width="36" height="39" viewBox="0 0 36 39" fill="none" xmlns="http://www.w3.org/2000/svg">
<g clip-path="url(#clip0_408_1634)">
<path d="M7.19371 32.6986C6.43668 32.6986 5.80211 32.6986 5.16913 32.6986C4.59838 32.702 4.03266 32.5916 3.5048 32.3739C2.97694 32.1562 2.49748 31.8354 2.09427 31.4303C1.69105 31.0252 1.37211 30.5438 1.15598 30.014C0.939856 29.4842 0.830847 28.9166 0.835282 28.3443C0.825739 24.2526 0.825739 20.1588 0.835282 16.0629C0.835282 14.1074 2.17917 12.7756 4.13537 12.7597C5.11347 12.7517 6.09156 12.7597 7.19371 12.7597V11.8888C7.19371 9.09863 7.19371 6.30847 7.19371 3.51831C7.19371 1.30288 8.48989 0.00934225 10.6926 0.00934225C16.523 0.00934225 22.3518 -0.000223578 28.187 0.0284862C28.6474 0.0301033 29.0928 0.192529 29.4466 0.487838C31.4124 2.38587 33.3177 4.3477 35.2627 6.26647C35.4542 6.44459 35.6046 6.66246 35.7035 6.90488C35.8024 7.14729 35.8474 7.40842 35.8353 7.67006C35.8194 16.653 35.8162 25.6381 35.8257 34.6253C35.8257 37.064 34.5932 38.2938 32.1678 38.2938H10.6974C8.48353 38.2938 7.19849 36.9987 7.19849 34.7848L7.19371 32.6986ZM27.8689 1.63623C27.589 1.61549 27.4077 1.59157 27.2328 1.59157C21.7194 1.59157 16.206 1.59157 10.6926 1.59157C9.35825 1.59157 8.78411 2.19128 8.78411 3.56297C8.78411 7.9747 8.78411 12.3875 8.78411 16.8013C8.78411 17.031 8.81591 17.2607 8.83659 17.5462H28.7516C30.7349 17.5462 31.8402 18.6515 31.8418 20.6548C31.8418 23.6321 31.8418 26.6094 31.8418 29.5868C31.8418 31.5837 30.7285 32.6986 28.75 32.6986C22.4945 32.6986 16.2389 32.6986 9.98328 32.6986H8.77774C8.77774 33.4466 8.77774 34.0814 8.77774 34.7162C8.77774 36.115 9.35824 36.6892 10.7673 36.6892H31.9929C33.7423 36.6892 34.2194 36.2107 34.2194 34.4818C34.2194 25.9252 34.2194 17.3654 34.2194 8.8025C34.2194 8.54571 34.1956 8.29051 34.1781 7.96992C32.4779 7.96992 30.8382 7.96992 29.2033 7.96992C28.0312 7.96992 27.861 7.80085 27.8594 6.65405C27.8673 5.01441 27.8705 3.36838 27.8705 1.63623H27.8689ZM2.4225 18.9562C2.4225 21.9867 2.41296 25.0634 2.4225 28.1433C2.4225 29.9999 3.53579 31.0988 5.40928 31.1004C13.1492 31.1068 20.8855 31.1068 28.618 31.1004C29.8903 31.1004 30.2482 30.724 30.2498 29.4225C30.2498 26.5281 30.2498 23.6321 30.2498 20.7346C30.2498 19.5336 29.8363 19.1205 28.6228 19.1205C20.7768 19.1205 12.9356 19.1205 5.09914 19.1205C4.24032 19.1173 3.37834 19.0168 2.42568 18.9562H2.4225ZM7.14917 17.5366V14.3738C6.00249 14.3738 4.89558 14.3243 3.79502 14.3913C2.99982 14.4392 2.40819 15.1984 2.42409 15.9863C2.42838 16.3757 2.57755 16.7493 2.84235 17.0341C3.10715 17.3188 3.46848 17.4941 3.85546 17.5255C4.93852 17.5749 6.01999 17.5366 7.15236 17.5366H7.14917ZM29.4864 6.3191H32.6338L29.4864 3.12913V6.3191Z" fill="#373737"/>
<path d="M18.3256 10.3676C16.3137 10.3676 14.3018 10.3581 12.282 10.3676C11.684 10.3676 11.1687 10.2416 11.1799 9.5462C11.1799 8.90821 11.6729 8.76307 12.2423 8.76466C16.2914 8.77104 20.3406 8.77104 24.3898 8.76466C24.9559 8.76466 25.4458 8.90183 25.4521 9.5478C25.4521 10.2432 24.9496 10.3724 24.3516 10.3676C22.3477 10.3581 20.3358 10.3676 18.3256 10.3676Z" fill="#373737"/>
<path d="M18.2382 13.5574C16.2534 13.5574 14.2622 13.5574 12.2837 13.5574C11.6905 13.5574 11.1704 13.433 11.1879 12.7296C11.2022 12.0821 11.6937 11.9545 12.2567 11.9561C16.3058 11.9635 20.355 11.9635 24.4042 11.9561C24.9735 11.9561 25.4507 12.098 25.4602 12.744C25.4697 13.39 25.0085 13.559 24.4296 13.5558C22.3653 13.5511 20.3009 13.5574 18.2382 13.5574Z" fill="#373737"/>
<path d="M15.1117 5.58569C16.1168 5.58569 17.1204 5.58569 18.1255 5.58569C18.6726 5.58569 19.0941 5.77709 19.1052 6.37202C19.1163 6.96695 18.7012 7.18068 18.151 7.18068C16.1428 7.18068 14.1336 7.18068 12.1233 7.18068C11.5635 7.18068 11.1691 6.94303 11.1882 6.35607C11.2072 5.76912 11.6239 5.57612 12.1774 5.5841C13.1555 5.59686 14.1336 5.58569 15.1117 5.58569Z" fill="#373737"/>
<path d="M10.2313 25.9151H8.24968C7.68986 25.9151 7.20001 25.7684 7.21433 25.1049C7.22864 24.4414 7.72802 24.3249 8.28307 24.3297C9.1562 24.3297 10.0325 24.3186 10.9041 24.3297C11.7501 24.3409 12.0173 24.6631 11.9521 25.5324C11.7931 27.6489 9.9021 29.4417 7.77891 29.5023C6.70094 29.5535 5.6422 29.2029 4.80671 28.5178C3.97121 27.8328 3.41811 26.8619 3.25397 25.7922C3.08983 24.7225 3.32627 23.6297 3.91774 22.7244C4.5092 21.8192 5.41383 21.1655 6.45729 20.8893C7.00724 20.7372 7.58188 20.6966 8.14768 20.7697C8.71348 20.8428 9.25907 21.0283 9.7526 21.3152C10.2059 21.5688 10.5605 21.9181 10.2759 22.4668C9.99117 23.0155 9.53632 23.0059 9.00353 22.7268C7.55149 21.9739 6.0581 22.3535 5.24541 23.6311C4.87636 24.2066 4.73383 24.8992 4.84552 25.5742C4.95721 26.2492 5.31513 26.8585 5.84975 27.2836C7.32723 28.515 9.43612 27.9169 10.2313 25.9151Z" fill="#373737"/>
<path d="M14.2854 27.9171C15.3987 27.9171 16.3529 27.9251 17.3072 27.9171C17.8543 27.9171 18.2932 28.0957 18.3075 28.6827C18.3234 29.3207 17.8765 29.5185 17.2913 29.5153C15.9156 29.5041 14.5383 29.544 13.1642 29.493C12.7936 29.4786 12.2926 29.3031 12.1113 29.0288C11.9698 28.8119 12.1352 28.2712 12.3244 27.9777C13.5077 26.1307 14.7355 24.3092 16.0492 22.3347C14.9772 22.3347 14.0453 22.3219 13.1133 22.3347C12.5201 22.3458 12 22.2166 12 21.526C12 20.8354 12.5487 20.7285 13.1292 20.7285C14.427 20.7381 15.7247 20.6998 17.0193 20.7508C17.4233 20.7668 18.0006 20.9103 18.1628 21.1815C18.325 21.4526 18.1262 22.0268 17.9163 22.3618C16.8985 23.9743 15.8217 25.5517 14.7689 27.1467C14.6194 27.3605 14.4922 27.579 14.2854 27.9171Z" fill="#373737"/>
<path d="M24.6905 26.3173C24.6905 27.0989 24.6905 27.7847 24.6905 28.469C24.6905 29.0527 24.4917 29.5073 23.8556 29.485C23.2687 29.4658 23.0922 29.0192 23.0938 28.4738C23.1022 26.2408 23.1022 24.0078 23.0938 21.7748C23.0938 21.089 23.38 20.7301 24.0862 20.7365C24.9863 20.7365 25.8897 20.7126 26.7899 20.7476C27.5107 20.7798 28.1907 21.0922 28.6859 21.6185C29.1811 22.1447 29.4526 22.8437 29.4429 23.5672C29.4332 24.2908 29.143 24.9821 28.6338 25.4948C28.1247 26.0076 27.4365 26.3014 26.7151 26.3141C26.0821 26.3317 25.4476 26.3173 24.6905 26.3173ZM24.7271 24.7223C25.4619 24.7223 26.1473 24.7766 26.8185 24.7064C27.4896 24.6362 27.8634 24.1912 27.857 23.5229C27.8507 22.8546 27.4515 22.4208 26.793 22.3618C26.1346 22.3028 25.4412 22.3474 24.7255 22.3474L24.7271 24.7223Z" fill="#373737"/>
<path d="M19.9235 25.1272C19.9235 24.0107 19.9235 22.8943 19.9235 21.7778C19.9235 21.2339 20.0826 20.7857 20.6806 20.765C21.3167 20.7426 21.5171 21.1956 21.514 21.7794C21.5076 24.0123 21.5076 26.2453 21.514 28.4783C21.514 29.027 21.3438 29.4688 20.7569 29.4895C20.1208 29.5119 19.9172 29.0621 19.922 28.4767C19.9283 27.3602 19.922 26.2437 19.9235 25.1272Z" fill="#373737"/>
</g>
<defs>
<clipPath id="clip0_408_1634">
<rect width="35" height="38.2812" fill="white" transform="translate(0.828125)"/>
</clipPath>
</defs>
</svg>
