<svg width="36" height="32" viewBox="0 0 36 32" fill="none" xmlns="http://www.w3.org/2000/svg">
<g clip-path="url(#clip0_408_1717)">
<path d="M17.6562 31.5727C13.2785 31.5727 8.90075 31.5727 4.52301 31.5727C1.9292 31.5727 0.206252 29.8664 0.203125 27.3068C0.203125 19.7874 0.203125 12.2681 0.203125 4.74868C0.203125 2.26669 1.94484 0.578944 4.45578 0.577393C13.2592 0.577393 22.0626 0.577393 30.866 0.577393C33.4927 0.577393 35.1797 2.23567 35.1844 4.8309C35.1969 12.3513 35.1969 19.8712 35.1844 27.3906C35.1844 29.8555 33.4348 31.5588 30.9286 31.5634C26.5092 31.5769 22.085 31.58 17.6562 31.5727ZM17.6812 29.7423C22.059 29.7423 26.4367 29.7423 30.8144 29.7423C32.5108 29.7423 33.366 28.8984 33.366 27.2277C33.366 19.758 33.366 12.2887 33.366 4.82004C33.366 3.29827 32.4796 2.41096 30.9395 2.41096C22.134 2.41096 13.3264 2.41096 4.51676 2.41096C2.92358 2.41096 2.04647 3.28741 2.04491 4.85416C2.04491 12.3001 2.04491 19.7461 2.04491 27.192C2.04491 28.917 2.88605 29.7485 4.63089 29.75L17.6812 29.7423Z" fill="#373737"/>
<path d="M13.6199 18.9175C13.6199 19.5799 13.6324 20.2206 13.6199 20.8597C13.6043 21.5484 13.2196 21.9967 12.6693 21.9456C12.0439 21.8804 11.7812 21.4802 11.7812 20.8768C11.7812 18.9393 11.7812 16.9986 11.7812 15.0658C11.7812 14.4453 12.0205 13.9985 12.6912 13.9396C13.2587 13.8915 13.6152 14.3569 13.6293 15.1123C13.6293 15.7235 13.6293 16.3347 13.6293 16.9862H16.4795C16.4795 16.3564 16.4795 15.7251 16.4795 15.0937C16.4795 14.4624 16.6765 14.0079 17.355 13.9412C17.9335 13.8807 18.3135 14.3367 18.3181 15.0798C18.3275 16.9909 18.3275 18.901 18.3181 20.81C18.3181 21.5345 17.9101 22.0076 17.341 21.9409C16.6515 21.8571 16.4545 21.3809 16.4686 20.7713C16.4811 20.1787 16.4686 19.5861 16.4686 18.9237L13.6199 18.9175Z" fill="#373737"/>
<path d="M19.2109 22.4326C19.4204 21.6787 19.5768 21.1358 19.7331 20.5897C20.4023 18.1822 21.0715 15.7752 21.7407 13.3687C21.9658 12.559 22.3957 12.2161 22.9648 12.4271C23.6512 12.68 23.6856 13.1903 23.5074 13.8232C22.7058 16.6454 21.9168 19.4718 21.1403 22.3023C20.9839 22.867 20.6712 23.3029 20.0583 23.1384C19.7144 23.0469 19.4533 22.6451 19.2109 22.4326Z" fill="#373737"/>
<path d="M8.01211 17.9791C8.80792 18.733 9.54744 19.4155 10.2666 20.1198C10.8748 20.717 10.9468 21.246 10.4715 21.6478C9.90548 22.1287 9.43018 21.882 8.9799 21.426C8.06839 20.5045 7.14438 19.597 6.22506 18.6849C5.73412 18.1963 5.70598 17.6983 6.20629 17.1988C7.16002 16.2474 8.1153 15.298 9.07215 14.3507C9.51774 13.9086 10.0212 13.7597 10.5027 14.2515C10.9843 14.7432 10.7873 15.2334 10.3464 15.6677C9.6006 16.3968 8.86889 17.1275 8.01211 17.9791Z" fill="#373737"/>
<path d="M27.4919 17.9589C26.5788 17.0933 25.8315 16.3782 25.0763 15.6724C24.6151 15.2411 24.4509 14.7416 24.9106 14.2545C25.3703 13.7674 25.8987 13.9148 26.3427 14.3522C27.3006 15.2975 28.2549 16.2468 29.2055 17.2003C29.698 17.6952 29.6886 18.1885 29.1883 18.6833C28.2502 19.6141 27.3121 20.5448 26.374 21.4755C25.9394 21.9083 25.4703 22.1131 24.9403 21.6539C24.4713 21.2522 24.5307 20.7573 25.0841 20.1834C25.4422 19.8095 25.8065 19.4403 26.1786 19.0882C26.5507 18.7361 26.9697 18.4118 27.4919 17.9589Z" fill="#373737"/>
<path d="M31.1758 5.82039C30.8477 5.82014 30.5325 5.69325 30.297 5.46655C30.0616 5.23986 29.9242 4.93116 29.9141 4.60577C29.9143 4.2809 30.0418 3.96884 30.2697 3.73553C30.4975 3.50222 30.8079 3.36594 31.1351 3.35547C31.4632 3.35602 31.7784 3.48241 32.0147 3.70821C32.251 3.93401 32.3902 4.24172 32.4031 4.56699C32.3982 4.8918 32.2685 5.2025 32.0403 5.4355C31.8122 5.66849 31.5029 5.80618 31.1758 5.82039Z" fill="#373737"/>
<path d="M27.5492 5.82039C27.2214 5.81974 26.9066 5.69267 26.6715 5.46601C26.4363 5.23936 26.2992 4.93089 26.2891 4.60577C26.2889 4.28078 26.4163 3.9685 26.6442 3.73511C26.8722 3.50171 27.1827 3.36555 27.5101 3.35547C27.8374 3.35721 28.1514 3.48414 28.3867 3.70981C28.622 3.93549 28.7606 4.24252 28.7734 4.56699C28.7682 4.89118 28.6387 5.20123 28.4113 5.43407C28.1839 5.66691 27.8756 5.80505 27.5492 5.82039Z" fill="#373737"/>
<path d="M23.9336 5.82039C23.6056 5.81975 23.2907 5.69273 23.0553 5.46612C22.8199 5.23951 22.6824 4.93103 22.6719 4.60577C22.6721 4.28064 22.7999 3.96836 23.028 3.735C23.2562 3.50165 23.567 3.36554 23.8945 3.35547C24.2215 3.35761 24.5351 3.48471 24.7701 3.71035C25.0051 3.93598 25.1434 4.24279 25.1562 4.56699C25.1518 4.89115 25.0228 5.2014 24.7955 5.43436C24.5683 5.66732 24.26 5.8054 23.9336 5.82039Z" fill="#373737"/>
</g>
<defs>
<clipPath id="clip0_408_1717">
<rect width="35" height="31" fill="white" transform="translate(0.203125 0.575684)"/>
</clipPath>
</defs>
</svg>
