<svg width="33" height="38" viewBox="0 0 33 38" fill="none" xmlns="http://www.w3.org/2000/svg">
<path d="M31.8419 12.3622C31.8419 14.4382 31.926 16.5172 31.8259 18.5918C31.5983 23.2654 29.7238 27.2451 26.5156 30.625C23.806 33.4805 20.5485 35.5768 17.0923 37.3776C16.7777 37.5428 16.2428 37.5775 15.9325 37.4211C11.621 35.2103 7.65891 32.5403 4.69421 28.6113C2.15863 25.2516 1.04524 21.4212 0.98145 17.2676C0.92926 13.8414 0.964051 10.4122 0.96985 6.98157C0.96985 5.75448 1.56279 5.29668 2.77186 5.52123C7.05292 6.31514 10.7033 4.9316 13.9899 2.2775C14.4726 1.88924 14.9351 1.45462 15.3932 1.02C16.1616 0.295626 16.7531 0.295625 17.52 1.03448C19.5496 2.98449 21.8155 4.5274 24.5584 5.30247C26.4017 5.80976 28.3385 5.87676 30.2124 5.49805C31.2634 5.29958 31.91 5.77621 31.9216 6.85552C31.9434 8.68963 31.9289 10.5252 31.9289 12.3607L31.8419 12.3622ZM2.26736 6.69761C2.24706 6.87436 2.22677 6.96708 2.22677 7.06125C2.22677 10.6092 2.18763 14.1601 2.24996 17.7066C2.3123 21.2864 3.33146 24.5838 5.43937 27.5189C8.21416 31.3885 12.0313 33.9687 16.1674 36.152C16.3486 36.249 16.6878 36.1954 16.8923 36.0882C19.5134 34.6829 22.0214 33.1111 24.2467 31.1132C28.3727 27.4088 30.6603 22.8627 30.6719 17.2589C30.6777 13.9751 30.6777 10.6913 30.6719 7.4075C30.6719 7.18004 30.6487 6.95259 30.6357 6.69327C24.8846 7.82908 20.4035 5.51109 16.4472 1.7603C12.4503 5.54876 7.97931 7.82908 2.27171 6.69761H2.26736Z" fill="#373737" stroke="#373737" stroke-width="0.7"/>
<path d="M16.4043 31.3711C15.2213 31.3711 14.0398 31.3842 12.8568 31.3711C11.958 31.3595 11.5245 30.9264 11.5201 30.0368C11.51 28.0593 11.5201 26.0818 11.5201 24.1042C11.5201 23.5436 11.6912 23.0409 12.2276 22.8887C12.764 22.7366 12.7452 22.4223 12.7336 22.0195C12.6959 20.8185 12.9597 19.7117 13.8629 18.8555C14.9328 17.8413 16.2086 17.5342 17.6047 17.9862C19.0326 18.4513 19.8836 19.4639 20.1083 20.9619C20.1631 21.3457 20.1878 21.7333 20.1823 22.1209C20.1823 22.4817 20.262 22.6685 20.6346 22.8772C20.9854 23.0727 21.3479 23.5928 21.3595 23.9825C21.4305 26.0296 21.4044 28.081 21.3885 30.131C21.3885 30.922 20.926 31.3552 20.1025 31.3668C18.8659 31.3842 17.6351 31.3711 16.4043 31.3711ZM12.78 23.9985V30.1223H20.1286V23.9985H12.78ZM18.8761 22.6946C19.0428 20.8591 18.6905 19.9188 17.6569 19.3408C17.2362 19.1015 16.7533 18.9939 16.2708 19.0318C15.7882 19.0698 15.3282 19.2516 14.9502 19.5537C13.8861 20.3766 13.8948 21.4994 14.0398 22.6932L18.8761 22.6946Z" fill="#373737" stroke="#373737" stroke-width="0.7"/>
<path d="M5.29995 13.5213C5.29995 14.5239 5.29995 15.4366 5.29995 16.3507C5.29995 16.7853 5.20137 17.1461 4.68671 17.1403C4.17206 17.1345 4.09232 16.7491 4.09377 16.329C4.09377 14.011 4.09377 11.6954 4.09377 9.38227C4.09377 8.96793 4.13871 8.56663 4.66496 8.55214C5.22601 8.53765 5.3072 8.93461 5.30285 9.39241C5.2927 10.3051 5.30285 11.2164 5.30285 12.174H8.41542C8.41542 11.4221 8.41542 10.6615 8.41542 9.89947C8.41542 9.63435 8.35018 9.33156 8.45456 9.11425C8.55894 8.89694 8.85759 8.57098 9.04895 8.58546C9.24031 8.59995 9.6071 8.94765 9.61 9.15482C9.64865 11.6148 9.64865 14.0776 9.61 16.5434C9.61 16.7491 9.24902 16.9505 9.05621 17.1548C8.84599 16.9432 8.47631 16.7506 8.45456 16.5159C8.36903 15.8263 8.41687 15.1207 8.41397 14.421C8.41397 14.1312 8.41397 13.8516 8.41397 13.5286L5.29995 13.5213Z" fill="#373737" stroke="#373737" stroke-width="0.7"/>
<path d="M24.4852 13.5272C24.4852 14.4848 24.4852 15.3729 24.4852 16.261C24.4852 16.6854 24.4605 17.1302 23.8821 17.1403C23.3036 17.1505 23.2602 16.7303 23.2616 16.2827C23.2616 13.9922 23.2746 11.7018 23.25 9.41131C23.25 8.74923 23.5197 8.48846 24.1532 8.50729C24.9955 8.53337 25.845 8.48556 26.6815 8.57249C27.2637 8.62857 27.8039 8.90041 28.1956 9.3345C28.5873 9.76859 28.8023 10.3335 28.7981 10.918C28.8228 12.203 28.0254 13.2143 26.7526 13.4011C26.0422 13.5055 25.3144 13.4794 24.4852 13.5272ZM24.5287 12.2233C25.2158 12.2233 25.8146 12.2465 26.4133 12.2161C26.728 12.1976 27.0243 12.0617 27.2434 11.8352C27.4625 11.6087 27.5885 11.3083 27.5963 10.9933C27.59 10.69 27.4736 10.3993 27.2688 10.1754C27.064 9.95155 26.7846 9.80972 26.4829 9.77639C25.8436 9.73148 25.1999 9.76625 24.5316 9.76625L24.5287 12.2233Z" fill="#373737" stroke="#373737" stroke-width="0.7"/>
<path d="M12.6906 9.74999C12.2369 9.74999 11.8541 9.82387 11.5236 9.72536C11.2858 9.65437 10.9698 9.35738 10.9611 9.14586C10.9524 8.93434 11.2873 8.56636 11.4859 8.55477C12.7385 8.49972 13.9954 8.49827 15.2552 8.55477C15.4582 8.56347 15.8032 8.95028 15.7974 9.15455C15.7916 9.35883 15.4553 9.65437 15.2175 9.72101C14.8623 9.81808 14.4622 9.74709 13.9983 9.74709V13.9137C13.9983 14.6627 13.9983 15.4102 13.9983 16.1578C13.9983 16.633 14.0142 17.1516 13.3503 17.14C12.7399 17.1284 12.7399 16.6272 12.7399 16.1838C12.7399 14.3005 12.7399 12.4171 12.7399 10.5338C12.724 10.2991 12.7051 10.0629 12.6906 9.74999Z" fill="#373737" stroke="#373737" stroke-width="0.7"/>
<path d="M18.9236 9.75144C18.4684 9.75144 18.0857 9.82968 17.7638 9.72681C17.5 9.64424 17.3043 9.34435 17.0781 9.14007C17.2796 8.93435 17.4754 8.56058 17.6856 8.56058C18.9381 8.50697 20.195 8.51132 21.4476 8.56927C21.639 8.57796 21.9681 8.97637 21.9536 9.1734C21.9391 9.37042 21.6143 9.66452 21.3737 9.73406C21.0417 9.83112 20.6619 9.75869 20.1893 9.75869V15.9115C20.1893 16.1042 20.253 16.3389 20.1661 16.4808C20.0109 16.7329 19.7645 16.9285 19.5557 17.1487C19.347 16.9068 18.9671 16.6721 18.9584 16.4243C18.9019 14.8814 18.9294 13.3371 18.9294 11.7884L18.9236 9.75144Z" fill="#373737" stroke="#373737" stroke-width="0.7"/>
<path d="M16.4527 25.8457C16.6938 25.8237 16.9365 25.8237 17.1776 25.8457C17.656 25.9384 17.8938 26.5947 17.5023 26.8279C16.9761 27.1423 17.0674 27.5639 17.0674 28.0014C17.0674 28.4389 17.0428 28.8707 16.4643 28.8707C15.8859 28.8707 15.8627 28.436 15.8598 28.0014C15.8569 27.5668 15.9482 27.1438 15.4249 26.8294C15.032 26.5947 15.2668 25.9384 15.7453 25.8457C15.9806 25.824 16.2174 25.824 16.4527 25.8457Z" fill="#373737" stroke="#373737" stroke-width="0.7"/>
</svg>
