<svg width="32" height="38" viewBox="0 0 32 38" fill="none" xmlns="http://www.w3.org/2000/svg">
<g clip-path="url(#clip0_408_1502)">
<path d="M4.64228 8.19609C5.23004 8.30893 5.29534 8.7395 5.29389 9.25173C5.28228 11.6273 5.3084 14.0028 5.27502 16.371C5.26632 16.9649 5.43031 17.097 5.98903 17.094C12.6115 17.0742 19.2331 17.0703 25.8536 17.0822C27.8651 17.0822 28.8229 18.0606 28.8258 20.1199C28.8258 22.7657 28.8258 25.411 28.8258 28.0557C28.8258 30.0468 27.8738 31.0252 25.9509 31.0252C19.3289 31.0252 12.7083 31.0386 6.08627 31.0074C5.39693 31.0074 5.2402 31.2167 5.27793 31.867C5.32872 32.7787 5.27793 33.6962 5.29389 34.6108C5.32001 35.9975 6.005 36.7102 7.36337 36.7117C14.2258 36.7216 21.0887 36.7216 27.9521 36.7117C29.3497 36.7117 30.0318 35.9886 30.0318 34.5603C30.0318 26.0073 30.0371 17.4538 30.0477 8.89985C30.0477 8.32526 29.8896 8.20797 29.3627 8.22133C27.8172 8.25697 26.2702 8.24212 24.7188 8.23024C23.671 8.23024 23.224 7.75958 23.2182 6.69207C23.2182 5.10935 23.1863 3.52664 23.2327 1.94096C23.2487 1.36043 23.0673 1.26244 22.5448 1.26392C17.5192 1.28471 12.4921 1.27283 7.4664 1.27877C5.97307 1.27877 5.30259 1.97065 5.28953 3.49546C5.28083 4.35957 5.27792 5.22516 5.28953 6.09076C5.28953 6.57329 5.14441 6.90884 4.63938 6.99495C4.20401 6.87172 4.03711 6.58072 4.04727 6.116C4.07049 5.10193 4.04727 4.08787 4.06034 3.0738C4.07277 2.26128 4.39479 1.48582 4.9578 0.912598C5.5208 0.339374 6.28032 0.0136776 7.07457 0.00487697C12.5893 -0.0144244 18.104 0.0048772 23.6086 -0.00997003C23.7766 -0.0137066 23.9435 0.0194814 24.098 0.087355C24.2525 0.155229 24.3909 0.256209 24.504 0.383482C26.6325 2.57394 28.7687 4.75995 30.9127 6.9415C31.0433 7.06789 31.1461 7.22133 31.2142 7.39159C31.2823 7.56186 31.314 7.74501 31.3074 7.92884C31.3074 16.8312 31.304 25.7341 31.2973 34.6375C31.2973 36.685 29.9592 37.993 27.9594 37.993C21.095 37.993 14.2302 37.993 7.36482 37.993C5.60881 37.993 4.41589 37.0205 4.09371 35.276C4.02986 34.93 3.94859 34.8098 3.6119 34.8439C3.37034 34.8618 3.12783 34.8618 2.88628 34.8439C1.36537 34.7697 0.340799 33.7556 0.332092 32.1952C0.305969 28.0379 0.305969 23.8837 0.332092 19.7324C0.34225 18.1126 1.41907 17.1 3.02269 17.0792C4.06033 17.0658 4.06034 17.0658 4.06034 15.9775C4.06034 13.7029 4.07194 11.4283 4.05018 9.1478C4.04147 8.66527 4.18659 8.35051 4.64228 8.19609ZM1.59467 30.0215C2.59023 29.6518 3.55965 29.7379 4.52038 29.7365H25.9843C27.1627 29.7365 27.5574 29.3326 27.5574 28.1463C27.5574 25.4263 27.5574 22.7043 27.5574 19.9803C27.5574 18.8044 27.1496 18.3976 25.977 18.3976C18.386 18.3976 10.7956 18.3976 3.20555 18.3976C1.9749 18.3976 1.59467 18.7792 1.59322 20.016C1.59322 22.2173 1.59322 24.4187 1.59322 26.62L1.59467 30.0215ZM24.504 2.42052C24.504 3.77607 24.504 5.15687 24.504 6.53617C24.504 6.83312 24.5649 6.98159 24.8987 6.9712C26.2614 6.95487 27.6256 6.96377 28.9477 6.96377L24.504 2.42052ZM4.05453 32.3332C4.03567 30.8663 4.20981 31.0445 3.2636 31.0311C2.19549 31.0148 1.58016 31.5048 1.59902 32.3199C1.61789 33.135 2.17952 33.5522 3.24328 33.5403C4.20981 33.5299 4.04147 33.6769 4.05453 32.3332Z" fill="#373737" stroke="#373737" stroke-width="0.5"/>
<path d="M18.7465 24.4359C18.5912 24.7848 18.4345 25.1338 18.2836 25.4841C18.1704 25.7514 18.002 25.9504 17.7031 25.9637C17.3635 25.9786 17.1748 25.7588 17.0471 25.4738C16.8928 25.0747 16.6837 24.7003 16.426 24.3617C16.426 25.2288 16.4187 26.0973 16.426 26.9644C16.426 27.4262 16.3505 27.8553 15.8107 27.8553C15.2708 27.8553 15.1939 27.4202 15.1953 26.9644C15.2021 25.0115 15.2021 23.0596 15.1953 21.1087C15.1953 20.7033 15.265 20.3485 15.7221 20.2757C16.127 20.2104 16.3273 20.4866 16.471 20.831C16.8454 21.7337 17.2271 22.635 17.6624 23.6698C18.0819 22.6869 18.4635 21.8184 18.8234 20.9394C18.9831 20.546 19.1674 20.1971 19.6521 20.301C20.1368 20.4049 20.1644 20.8132 20.1629 21.2304C20.1571 23.1319 20.1571 25.0338 20.1629 26.9362C20.1629 27.4039 20.0686 27.8404 19.5534 27.8553C18.9961 27.8701 18.8699 27.4217 18.8742 26.9243C18.8742 26.1092 18.8742 25.2911 18.8742 24.4805L18.7465 24.4359Z" fill="#373737" stroke="#373737" stroke-width="0.5"/>
<path d="M2.7828 24.0101C2.7828 23.0732 2.7828 22.1349 2.7828 21.1891C2.7828 20.6917 2.9018 20.2508 3.46924 20.2716C4.00039 20.2909 4.08892 20.7303 4.06425 21.1906C4.06425 21.2886 4.06425 21.3881 4.06425 21.4876C4.06425 23.5231 4.06425 23.5127 6.03794 23.4385C6.41091 23.4236 6.55023 23.3242 6.53281 22.9322C6.50669 22.316 6.53281 21.6984 6.5241 21.0807C6.51395 20.622 6.66923 20.2671 7.14814 20.2656C7.62705 20.2641 7.79394 20.6398 7.79539 21.0807C7.79539 23.0812 7.79539 25.0806 7.79539 27.079C7.79539 27.5244 7.58207 27.8763 7.11041 27.8555C6.67504 27.8362 6.51831 27.5066 6.52991 27.0761C6.54152 26.4347 6.52121 25.7918 6.52991 25.1459C6.53717 24.8297 6.41962 24.6871 6.1105 24.7153C6.06217 24.7183 6.01371 24.7183 5.96538 24.7153C4.06425 24.6515 4.06861 24.6515 4.06135 26.5891C4.06135 27.1132 4.20647 27.8377 3.43586 27.8362C2.68702 27.8362 2.78716 27.128 2.78426 26.5905C2.7799 25.7383 2.7828 24.8816 2.7828 24.0101Z" fill="#373737" stroke="#373737" stroke-width="0.5"/>
<path d="M21.3467 24.0647C21.3467 23.1264 21.3467 22.188 21.3467 21.2512C21.3467 20.7657 21.4178 20.2935 21.9823 20.2787C22.5468 20.2638 22.6354 20.7241 22.6325 21.2185C22.6136 22.8027 22.6426 24.3795 22.6136 25.9592C22.6049 26.4314 22.721 26.611 23.21 26.5858C23.9792 26.5457 24.7542 26.5858 25.532 26.5739C25.9834 26.5739 26.3288 26.7654 26.3288 27.2316C26.3288 27.6978 25.979 27.8923 25.5306 27.8908C24.4199 27.8908 23.3073 27.8908 22.1927 27.8908C21.6238 27.8908 21.3452 27.5939 21.3438 27.0282C21.3438 26.0409 21.3467 25.0535 21.3467 24.0647Z" fill="#373737" stroke="#373737" stroke-width="0.5"/>
<path d="M10.8637 24.5061C10.8637 23.7147 10.8346 22.9219 10.8738 22.1305C10.8985 21.6272 10.7185 21.4669 10.2541 21.5248C10.0374 21.5463 9.81923 21.5463 9.60253 21.5248C9.23537 21.4995 9.02204 21.2872 9.00462 20.9131C8.99494 20.8371 9.0005 20.76 9.02097 20.6864C9.04144 20.6127 9.07638 20.5441 9.12366 20.4848C9.17094 20.4254 9.22955 20.3766 9.29592 20.3412C9.36229 20.3058 9.43502 20.2847 9.50965 20.2791C10.811 20.1915 12.1165 20.1915 13.4178 20.2791C13.7705 20.3013 13.9708 20.576 13.9345 20.9561C13.904 21.3006 13.7037 21.4772 13.3729 21.5248C12.9752 21.5827 12.4034 21.3288 12.2119 21.6732C12.0203 22.0177 12.1277 22.5849 12.1248 23.0525C12.1248 24.2641 12.1248 25.4771 12.1248 26.6886C12.1248 27.2053 12.1857 27.8571 11.4645 27.8571C10.7708 27.8571 10.8666 27.2231 10.8637 26.7347C10.8637 25.9893 10.8637 25.2484 10.8637 24.5061Z" fill="#373737" stroke="#373737" stroke-width="0.5"/>
</g>
<defs>
<clipPath id="clip0_408_1502">
<rect width="31" height="38" fill="white" transform="translate(0.3125 -0.00390625)"/>
</clipPath>
</defs>
</svg>
