<svg width="33" height="37" viewBox="0 0 33 37" fill="none" xmlns="http://www.w3.org/2000/svg">
<g clip-path="url(#clip0_408_1517)">
<path d="M16.9328 36.9997H16.4735C16.3696 36.9382 16.2604 36.8864 16.1473 36.8449C12.2844 35.7534 8.42753 34.6419 4.55078 33.5938C3.73317 33.374 3.49585 32.9746 3.44227 32.1711C3.26925 29.5501 3.02121 26.9338 2.79308 24.3175C2.5083 21.0592 2.21942 17.8015 1.92647 14.5442C1.69068 11.9016 1.44418 9.26206 1.22064 6.61788C1.03537 4.41181 0.874608 2.2042 0.703125 -0.00341797H32.7031C32.6848 0.461017 32.6832 0.925452 32.6419 1.38989C32.3617 4.62236 32.0693 7.85327 31.786 11.0857C31.5625 13.6262 31.3496 16.1667 31.1261 18.7056C30.8918 21.3745 30.6453 24.0404 30.4111 26.7093C30.2396 28.6584 30.0712 30.6075 29.9211 32.5597C29.8783 33.1294 29.6287 33.3724 29.0637 33.518C26.8742 34.083 24.7001 34.7054 22.5259 35.3324C20.6549 35.8696 18.7961 36.4423 16.9328 36.9997ZM7.8993 21.2383C7.8993 21.4473 7.88858 21.599 7.8993 21.7492C8.05241 23.5713 8.19174 25.3934 8.39537 27.2094C8.41987 27.4277 8.77969 27.7063 9.03538 27.7822C11.3994 28.4778 13.7711 29.1461 16.1504 29.787C16.5157 29.8748 16.897 29.8679 17.2589 29.7669C19.5892 29.1476 21.9043 28.4603 24.2361 27.8472C24.8486 27.6924 25.0017 27.3704 25.0492 26.7775C25.2023 24.6209 25.4197 22.4706 25.6049 20.3156C25.7581 18.5817 25.8897 16.8478 26.0383 15.0303H11.3826C11.2677 13.637 11.1575 12.3118 11.0411 10.8969H26.4088C26.5328 9.50356 26.6492 8.19076 26.7655 6.87177H6.60399C6.96686 11.0099 7.32362 15.0768 7.68496 19.2118H21.6088C21.5261 20.3141 21.4403 21.3405 21.373 22.3684C21.2413 24.4073 21.2459 24.4073 19.2861 24.9445C18.6737 25.1117 18.0612 25.2866 17.4488 25.4523C17.1808 25.525 16.8823 25.686 16.6419 25.6257C15.1506 25.2526 13.6715 24.8299 12.2293 24.4336C12.1267 23.3081 12.0317 22.2879 11.9353 21.2352L7.8993 21.2383Z" fill="#373737"/>
</g>
<defs>
<clipPath id="clip0_408_1517">
<rect width="32" height="37" fill="white" transform="translate(0.703125)"/>
</clipPath>
</defs>
</svg>
