<svg width="32" height="36" viewBox="0 0 32 36" fill="none" xmlns="http://www.w3.org/2000/svg">
<g clip-path="url(#clip0_2805_2329)">
<path d="M2.86831 27.4127C2.49538 27.4127 2.21427 27.431 1.93598 27.4127C0.83273 27.3284 0.0261334 26.5557 0.0190703 25.4569C-0.00635677 21.9209 -0.00635677 18.3844 0.0190703 14.8474C0.0190703 13.7234 0.788932 12.9984 1.92891 12.9099C2.21144 12.8874 2.49396 12.879 2.83299 12.8607C2.84571 12.591 2.86548 12.3437 2.86689 12.0964C2.86689 8.6765 2.86689 5.25757 2.86689 1.83957C2.86689 0.50337 3.35849 0.0130102 4.69483 0.0130102C10.132 0.0130102 15.572 0.0130091 21.0077 0.00317383C21.5191 0.00317383 21.8962 0.135249 22.2367 0.527256C24.3768 2.98889 26.5452 5.42523 28.6698 7.89811C28.9382 8.23852 29.0942 8.65326 29.1161 9.08537C29.1726 10.3204 29.1359 11.5611 29.1359 12.8467C29.5315 12.8748 29.879 12.8888 30.225 12.9268C31.2139 13.0321 31.9654 13.7389 31.9739 14.7168C32.0049 18.324 32.0049 21.9303 31.9739 25.5356C31.9654 26.5781 31.1263 27.3327 30.0555 27.4113C29.773 27.431 29.4905 27.4113 29.1317 27.4113V28.2122C29.1317 30.2495 29.1317 32.2868 29.1317 34.3256C29.1317 35.4608 28.5793 35.9961 27.4365 35.9976H4.55215C3.42206 35.9976 2.86831 35.4538 2.85701 34.3115C2.86266 32.0494 2.86831 29.7802 2.86831 27.4127ZM20.7195 1.47847H4.33319V12.8495H27.6696V9.33687H26.8574C25.1622 9.33687 23.4671 9.34389 21.7719 9.33687C20.9413 9.33687 20.7308 9.12471 20.7238 8.29292C20.7111 6.81763 20.7238 5.34233 20.7238 3.86563L20.7195 1.47847ZM27.6979 27.4788H4.32614V34.1274H27.6979V27.4788ZM17.6683 23.7498C17.7601 21.7827 17.8477 19.907 17.9353 18.0243C18.4466 19.633 18.8507 21.2362 19.2759 22.8351C19.3818 23.2327 19.3705 23.6978 20.0655 23.6781C20.6743 23.6571 20.9738 23.5376 21.1207 22.8969C21.358 21.8769 21.7239 20.8849 22.0276 19.8789C22.2212 19.2354 22.4006 18.5849 22.5927 17.9385L22.8484 17.9638V23.7245H24.6198C24.4785 21.0816 24.3288 18.4977 24.1833 15.8816C23.6055 15.8816 23.1083 15.9279 22.6294 15.8703C22.0375 15.7987 21.8115 16.0431 21.666 16.5883C21.2563 18.1142 20.7873 19.626 20.3353 21.1659C19.9002 19.5614 19.4877 17.9821 19.0357 16.4141C18.9792 16.2131 18.7701 15.9223 18.6119 15.9083C17.9438 15.8521 17.2671 15.8844 16.5552 15.8844C16.3913 18.561 16.2317 21.1406 16.072 23.7526L17.6683 23.7498ZM8.36056 23.7498V15.9251H6.66542V18.8392H3.76673V15.9139H2.05605V23.7315H3.80629V20.5238H6.6852V23.7554L8.36056 23.7498ZM15.2824 15.9139H9.42144V17.3821H11.498V23.7231H13.2143V17.3554H15.2824V15.9139ZM30.7858 22.2731H27.7134V15.9364H26.0183V23.7315H30.7915L30.7858 22.2731Z" fill="#373737"/>
</g>
<defs>
<clipPath id="clip0_2805_2329">
<rect width="32" height="36" fill="white"/>
</clipPath>
</defs>
</svg>
