<svg width="38" height="34" viewBox="0 0 38 34" fill="none" xmlns="http://www.w3.org/2000/svg">
<path d="M8.5459 5.78027C9.34878 5.7805 9.96582 6.37857 9.96582 7.07617C9.96575 7.77373 9.34873 8.37185 8.5459 8.37207C7.74284 8.37207 7.12507 7.77386 7.125 7.07617C7.125 6.37843 7.7428 5.78027 8.5459 5.78027Z" fill="#373737" stroke="white" stroke-width="0.5"/>
<path d="M15.002 5.5553C15.3917 5.5554 15.7654 5.71038 16.041 5.98596C16.3168 6.2617 16.4717 6.63605 16.4717 7.026V7.02698C16.4725 7.21793 16.433 7.40672 16.3564 7.58167C16.2798 7.75677 16.1674 7.91451 16.0264 8.04358C15.8854 8.17252 15.7191 8.27078 15.5381 8.33167C15.3569 8.39257 15.1649 8.41474 14.9746 8.39709L14.959 8.39612H14.9443C14.7608 8.40177 14.5774 8.37067 14.4062 8.30432C14.2352 8.23798 14.079 8.13813 13.9473 8.01038C13.8155 7.88256 13.7111 7.72924 13.6396 7.56018C13.5682 7.39117 13.5312 7.2095 13.5312 7.026C13.5312 6.63605 13.6862 6.2617 13.9619 5.98596C14.2377 5.71023 14.612 5.5553 15.002 5.5553Z" fill="#373737" stroke="white" stroke-width="0.5"/>
<path d="M21.3818 5.75537C22.1807 5.7556 22.8015 6.36086 22.8018 7.07568C22.8018 7.79069 22.1808 8.39674 21.3818 8.39697C20.5826 8.39697 19.9609 7.79082 19.9609 7.07568C19.9612 6.36072 20.5828 5.75537 21.3818 5.75537Z" fill="#373737" stroke="white" stroke-width="0.5"/>
<path d="M10.388 26L13.61 21.59L10.496 17.342H12.548L14.672 20.384L16.76 17.342H18.758L15.68 21.59C15.848 21.818 16.376 22.55 17.264 23.786C18.152 25.022 18.686 25.76 18.866 26H16.832L14.6 22.814L12.404 26H10.388ZM19.3177 26L22.5397 21.59L19.4257 17.342H21.4777L23.6017 20.384L25.6897 17.342H27.6877L24.6097 21.59C24.7777 21.818 25.3057 22.55 26.1937 23.786C27.0817 25.022 27.6157 25.76 27.7957 26H25.7617L23.5297 22.814L21.3337 26H19.3177Z" fill="#373737"/>
<path d="M3.63184 1.04297H34.7959C35.5561 1.04297 36.2857 1.34526 36.8232 1.88281C37.3606 2.42029 37.6621 3.14917 37.6621 3.90918V30.0869C37.6621 30.8471 37.3608 31.5767 36.8232 32.1143C36.2857 32.6518 35.5561 32.9531 34.7959 32.9531H3.63184C2.87181 32.9531 2.14295 32.6516 1.60547 32.1143C1.06791 31.5767 0.765625 30.8471 0.765625 30.0869V3.90918C0.765677 3.14903 1.06796 2.42032 1.60547 1.88281C2.14298 1.3453 2.87169 1.04302 3.63184 1.04297ZM3.38184 30.3369H35.0459V13.0088H3.38184V30.3369ZM3.38184 10.3926H35.0459V3.65918H3.38184V10.3926Z" fill="#373737" stroke="white" stroke-width="0.5"/>
</svg>
