<svg width="41" height="43" viewBox="0 0 41 43" fill="none" xmlns="http://www.w3.org/2000/svg">
<path d="M0.500403 19.9802C0.500403 15.9403 0.573853 11.9004 0.471017 7.86046C0.41617 5.72522 1.35933 4.31321 3.0106 3.20372C4.75 2.04101 6.69606 1.40053 8.72341 1.01723C12.8672 0.228956 16.9954 0.308769 21.0638 1.47837C23.0392 2.04495 24.9021 2.85786 26.3339 4.42554C27.0639 5.19418 27.4655 6.22002 27.4524 7.28305C27.4456 15.6585 27.4289 24.0339 27.4651 32.4094C27.473 34.117 26.7678 35.3654 25.4936 36.3724C23.7728 37.7283 21.7719 38.4505 19.6613 38.8831C15.0582 39.83 10.4912 39.7403 6.00363 38.2456C4.28674 37.6741 2.68838 36.8661 1.48078 35.4442C0.834069 34.7153 0.480987 33.7697 0.490612 32.7927C0.50922 28.5212 0.500403 24.2507 0.500403 19.9802ZM13.8535 12.4827C16.541 12.4492 19.0609 12.1674 21.4869 11.3161C23.0677 10.7623 24.5789 10.0696 25.6719 8.71574C26.4652 7.7304 26.5053 6.61794 25.7894 5.5853C25.095 4.5832 24.099 3.96243 23.0304 3.45104C20.8219 2.39475 18.4674 1.92671 16.0464 1.74836C12.83 1.51089 9.66168 1.74836 6.58245 2.76918C5.00758 3.29043 3.51596 3.98214 2.38378 5.26801C1.41908 6.36273 1.375 7.54515 2.25743 8.70392C2.98317 9.65675 3.97627 10.2509 5.035 10.7396C7.87721 12.0511 10.9035 12.4285 13.8535 12.4827ZM1.61104 9.81145V10.3396C1.61104 12.0147 1.62573 13.6898 1.60418 15.3649C1.59374 15.7754 1.66483 16.1839 1.81333 16.5665C1.96183 16.9491 2.18474 17.298 2.46899 17.5927C3.52086 18.7357 4.86458 19.4018 6.2945 19.8837C10.738 21.3784 15.2521 21.4553 19.7975 20.4295C21.6054 20.0216 23.3233 19.3723 24.808 18.2086C25.7816 17.4439 26.3643 16.5 26.3095 15.1747C26.2438 13.5676 26.2948 11.9565 26.2928 10.3465C26.2928 10.1987 26.2791 10.0509 26.2673 9.83115C24.6866 11.3525 22.8395 12.1595 20.8807 12.7064C17.3098 13.6996 13.6811 13.8622 10.0241 13.3222C6.97519 12.8729 4.06639 12.0511 1.61496 9.81145H1.61104ZM1.61104 27.0737V27.596C1.61104 29.2878 1.61985 30.9796 1.61104 32.6715C1.60516 33.5455 1.9362 34.2608 2.5209 34.8816C3.51107 35.9349 4.75294 36.5843 6.08492 37.0494C10.5813 38.6171 15.1551 38.7126 19.769 37.6761C21.6093 37.2622 23.3615 36.6119 24.8619 35.4098C25.8021 34.655 26.3614 33.7347 26.3153 32.4537C26.2575 30.8456 26.3026 29.2346 26.3016 27.6255C26.3016 27.4708 26.286 27.3161 26.2732 27.0826C24.8697 28.4434 23.2371 29.2287 21.4742 29.7736C18.012 30.8486 14.4725 31.0939 10.883 30.6781C7.52366 30.285 4.31711 29.474 1.61398 27.0737H1.61104ZM26.2713 18.448C24.8159 19.8846 23.1078 20.668 21.2822 21.2139C17.1384 22.4525 12.9368 22.5441 8.71068 21.7332C6.53838 21.3173 4.45912 20.6227 2.63842 19.2993C2.30347 19.056 1.99692 18.7751 1.61202 18.4569V19.0195C1.61202 20.6286 1.64727 22.2386 1.60026 23.8477C1.56403 25.0626 2.08996 25.9583 2.96163 26.7052C3.92046 27.5201 5.02815 28.0748 6.20637 28.4788C10.5931 29.9785 15.0542 30.078 19.5555 29.1163C21.3664 28.7291 23.1 28.1113 24.6073 26.99C25.4045 26.3988 26.2037 25.709 26.2468 24.6498C26.33 22.6101 26.2713 20.5754 26.2713 18.448Z" fill="#373737" stroke="#373737" stroke-width="0.5"/>
<path d="M24.2433 15.6693C24.2484 15.9778 24.1924 16.2842 24.0787 16.5707C23.9649 16.8572 23.7957 17.1181 23.5807 17.3382C23.3658 17.5583 23.1096 17.7331 22.8268 17.8526C22.5441 17.9721 22.2406 18.0338 21.9339 18.0342C21.324 18.0274 20.7406 17.7824 20.3069 17.3508C19.8732 16.9193 19.6232 16.3351 19.6098 15.7216C19.6038 15.4091 19.6601 15.0986 19.7757 14.8085C19.8912 14.5184 20.0634 14.2546 20.2822 14.0327C20.501 13.8109 20.7618 13.6355 21.0492 13.517C21.3367 13.3985 21.6449 13.3393 21.9555 13.3429C22.2578 13.3437 22.5569 13.4046 22.8358 13.5221C23.1146 13.6396 23.3676 13.8113 23.5802 14.0275C23.7928 14.2437 23.9609 14.5001 24.0747 14.7818C24.1885 15.0636 24.2458 15.3652 24.2433 15.6693ZM21.9369 16.8715C22.2495 16.8662 22.548 16.7394 22.7698 16.5178C22.9916 16.2961 23.1195 15.9966 23.1268 15.6821C23.1147 15.3679 22.9839 15.0702 22.7612 14.8496C22.5385 14.629 22.2405 14.5021 21.9281 14.4948C21.7729 14.4954 21.6195 14.5267 21.4764 14.587C21.3333 14.6472 21.2034 14.7352 21.0941 14.846C20.9849 14.9567 20.8983 15.0881 20.8395 15.2325C20.7807 15.3769 20.7507 15.5315 20.7513 15.6876C20.7519 15.8436 20.783 15.998 20.8429 16.142C20.9028 16.2859 20.9903 16.4166 21.1004 16.5265C21.2105 16.6365 21.341 16.7235 21.4845 16.7827C21.628 16.8419 21.7818 16.872 21.9369 16.8715Z" fill="#373737" stroke="#373737" stroke-width="0.5"/>
<path d="M24.2451 32.9949C24.2439 33.3036 24.181 33.6088 24.0602 33.8925C23.9395 34.1762 23.7633 34.4326 23.5421 34.6465C23.3209 34.8603 23.0593 35.0273 22.7728 35.1375C22.4862 35.2477 22.1806 35.2988 21.874 35.2878C20.5949 35.2691 19.5901 34.2039 19.6097 32.8816C19.6292 31.6007 20.6664 30.6084 21.9602 30.6222C23.2765 30.636 24.2667 31.6667 24.2451 32.9949ZM21.9524 34.1409C22.2656 34.1297 22.5625 33.9976 22.7814 33.7719C23.0003 33.5461 23.1243 33.2442 23.1277 32.9289C23.1289 32.7689 23.0983 32.6103 23.0377 32.4623C22.9771 32.3144 22.8877 32.1801 22.7748 32.0675C22.6619 31.9548 22.5277 31.866 22.3802 31.8062C22.2326 31.7465 22.0747 31.7171 21.9157 31.7196C21.7567 31.7222 21.5998 31.7567 21.4542 31.8212C21.3086 31.8856 21.1773 31.9787 21.0681 32.095C20.9588 32.2112 20.8737 32.3483 20.8179 32.4981C20.762 32.6479 20.7365 32.8075 20.7428 32.9673C20.7549 33.2822 20.8876 33.5801 21.113 33.7988C21.3385 34.0175 21.6392 34.1401 21.9524 34.1409Z" fill="#373737" stroke="#373737" stroke-width="0.5"/>
<path d="M24.2429 24.3248C24.2429 25.6461 23.2303 26.6512 21.909 26.6453C21.6068 26.6458 21.3075 26.5863 21.0282 26.4701C20.7489 26.354 20.4951 26.1835 20.2815 25.9684C20.0678 25.7534 19.8985 25.498 19.7831 25.217C19.6678 24.9359 19.6088 24.6348 19.6094 24.3307C19.6074 24.0225 19.6658 23.7168 19.7814 23.4314C19.897 23.1459 20.0674 22.8862 20.283 22.6671C20.4985 22.4481 20.7549 22.274 21.0375 22.1548C21.3201 22.0357 21.6232 21.9738 21.9296 21.9728C22.2363 21.9698 22.5405 22.0288 22.8241 22.1463C23.1077 22.2637 23.3649 22.4373 23.5807 22.6566C23.7964 22.8759 23.9662 23.1366 24.0799 23.4231C24.1937 23.7097 24.2491 24.0163 24.2429 24.3248ZM21.9296 23.1256C21.6145 23.1263 21.3126 23.2528 21.0903 23.4774C20.868 23.702 20.7434 24.0063 20.7441 24.3233C20.7447 24.6403 20.8705 24.9441 21.0938 25.1677C21.317 25.3914 21.6194 25.5167 21.9345 25.5161C22.2496 25.5154 22.5515 25.3889 22.7738 25.1643C22.9962 24.9396 23.1207 24.6354 23.1201 24.3184C23.1194 24.0014 22.9936 23.6976 22.7704 23.474C22.5471 23.2503 22.2447 23.125 21.9296 23.1256Z" fill="#373737" stroke="#373737" stroke-width="0.5"/>
<rect x="14.0156" y="18.918" width="26.9023" height="23.4077" rx="4" fill="white"/>
<path d="M31.5861 28.8526C32.8832 28.8526 33.9378 27.798 33.9378 26.5009C33.9378 25.2038 32.8832 24.1492 31.5861 24.1492C30.289 24.1492 29.2344 25.2038 29.2344 26.5009C29.2344 27.798 30.289 28.8526 31.5861 28.8526ZM31.5861 25.4322C32.175 25.4322 32.6548 25.912 32.6548 26.5009C32.6548 27.0898 32.175 27.5696 31.5861 27.5696C30.9972 27.5696 30.5174 27.0911 30.5174 26.5009C30.5174 25.9107 30.9972 25.4322 31.5861 25.4322Z" fill="#373737" stroke="#373737" stroke-width="0.5"/>
<path d="M36.1058 20.5901H18.534V20.5914C17.1574 20.6427 15.9219 21.9962 15.9219 23.4794V38.6725C15.9219 40.1428 17.2228 41.0447 18.534 41.1127L36.8859 41.1166C37.6813 41.1166 39.0156 40.7997 39.0156 38.6725V23.4807C39.0156 22.0219 37.5748 20.5901 36.1058 20.5901ZM18.6136 21.8731H36.1058C36.8666 21.8731 37.7326 22.7288 37.7326 23.4794V34.7337L33.3974 31.1516L30.0411 33.9922L26.341 29.9636L21.0795 33.6239C19.1588 34.9608 17.9541 35.8012 17.2036 36.3593V23.4807C17.2049 22.6839 17.9156 21.8731 18.6136 21.8731ZM36.8859 39.8349H18.6944C17.9721 39.8349 17.2049 39.4282 17.2049 38.6738V37.7449C17.2318 37.7295 17.2523 37.7244 17.2806 37.7077L17.2716 37.6987C17.9541 37.2048 22.6858 33.9088 26.137 31.5109L29.9205 35.6318L33.4077 32.6797L37.7326 36.2515V38.6738C37.7326 39.7476 37.349 39.8349 36.8859 39.8349Z" fill="#373737" stroke="#373737" stroke-width="0.5"/>
</svg>
