<svg width="37" height="32" viewBox="0 0 37 32" fill="none" xmlns="http://www.w3.org/2000/svg">
<path d="M25.2288 12.8881C27.2466 12.8881 28.8872 11.2474 28.8872 9.22961C28.8872 7.21178 27.2466 5.57117 25.2288 5.57117C23.2109 5.57117 21.5703 7.21178 21.5703 9.22961C21.5703 11.2474 23.2109 12.8881 25.2288 12.8881ZM25.2288 7.56704C26.1449 7.56704 26.8913 8.3135 26.8913 9.22961C26.8913 10.1457 26.1449 10.8922 25.2288 10.8922C24.3126 10.8922 23.5662 10.1477 23.5662 9.22961C23.5662 8.31151 24.3126 7.56704 25.2288 7.56704Z" fill="#373737"/>
<path d="M32.2585 0.0344238H4.92298V0.0364198C2.7814 0.116255 0.859375 2.2219 0.859375 4.52914V28.1643C0.859375 30.4516 2.88319 31.8547 4.92298 31.9605L33.472 31.9665C34.7094 31.9665 36.7852 31.4735 36.7852 28.1643V4.53113C36.7852 2.26182 34.5438 0.0344238 32.2585 0.0344238ZM5.04672 2.0303H32.2585C33.4421 2.0303 34.7893 3.36155 34.7893 4.52914V22.037L28.0452 16.4645L22.824 20.8834L17.0679 14.6163L8.8828 20.3105C5.89497 22.3902 4.02084 23.6975 2.85326 24.5657V4.53113C2.85525 3.29169 3.96097 2.0303 5.04672 2.0303ZM33.472 29.9726H5.17246C4.04879 29.9726 2.85525 29.3399 2.85525 28.1663V26.7213C2.89717 26.6973 2.9291 26.6894 2.97301 26.6634L2.95904 26.6494C4.02084 25.881 11.3816 20.7536 16.7505 17.0233L22.6364 23.4341L28.0612 18.8416L34.7893 24.3981V28.1663C34.7893 29.8369 34.1925 29.9726 33.472 29.9726Z" fill="#373737"/>
</svg>
