<svg width="38" height="44" viewBox="0 0 38 44" fill="none" xmlns="http://www.w3.org/2000/svg">
<path d="M0.344153 20.4807C0.344153 16.4408 0.417603 12.4009 0.314767 8.36095C0.25992 6.2257 1.20308 4.8137 2.85435 3.7042C4.59375 2.54149 6.53981 1.90102 8.56716 1.51772C12.711 0.729445 16.8391 0.809257 20.9076 1.97886C22.883 2.54544 24.7458 3.35835 26.1777 4.92603C26.9077 5.69467 27.3092 6.72051 27.2962 7.78354C27.2893 16.159 27.2727 24.5344 27.3089 32.9099C27.3167 34.6175 26.6116 35.8659 25.3374 36.8729C23.6166 38.2288 21.6157 38.951 19.5051 39.3836C14.9019 40.3305 10.335 40.2408 5.84738 38.7461C4.13049 38.1746 2.53213 37.3666 1.32453 35.9447C0.677819 35.2157 0.324737 34.2702 0.334362 33.2932C0.35297 29.0217 0.344153 24.7512 0.344153 20.4807ZM13.6972 12.9832C16.3847 12.9497 18.9047 12.6679 21.3307 11.8166C22.9114 11.2628 24.4226 10.5701 25.5156 9.21623C26.3089 8.23089 26.3491 7.11843 25.6331 6.08578C24.9388 5.08369 23.9427 4.46292 22.8742 3.95153C20.6656 2.89524 18.3112 2.4272 15.8901 2.24885C12.6738 2.01138 9.50543 2.24885 6.4262 3.26967C4.85133 3.79092 3.35971 4.48263 2.22753 5.7685C1.26283 6.86322 1.21875 8.04564 2.10118 9.2044C2.82692 10.1572 3.82002 10.7514 4.87875 11.2401C7.72096 12.5516 10.7473 12.929 13.6972 12.9832ZM1.45479 10.3119V10.8401C1.45479 12.5152 1.46948 14.1903 1.44793 15.8653C1.43749 16.2759 1.50858 16.6844 1.65708 17.067C1.80558 17.4496 2.02849 17.7984 2.31274 18.0932C3.36461 19.2362 4.70833 19.9023 6.13825 20.3841C10.5818 21.8789 15.0958 21.9558 19.6412 20.93C21.4492 20.5221 23.167 19.8727 24.6518 18.7091C25.6253 17.9444 26.2081 17.0005 26.1532 15.6752C26.0876 14.0681 26.1385 12.457 26.1366 10.847C26.1366 10.6992 26.1228 10.5514 26.1111 10.3316C24.5303 11.853 22.6832 12.66 20.7244 13.2069C17.1535 14.2001 13.5249 14.3627 9.8678 13.8227C6.81894 13.3734 3.91014 12.5516 1.45871 10.3119H1.45479ZM1.45479 27.5742V28.0964C1.45479 29.7883 1.4636 31.4801 1.45479 33.172C1.44891 34.046 1.77995 34.7613 2.36465 35.3821C3.35482 36.4354 4.59669 37.0848 5.92867 37.5499C10.4251 39.1175 14.9989 39.2131 19.6128 38.1765C21.4531 37.7627 23.2052 37.1124 24.7057 35.9102C25.6459 35.1555 26.2051 34.2352 26.1591 32.9542C26.1013 31.3461 26.1463 29.7351 26.1454 28.126C26.1454 27.9713 26.1297 27.8166 26.117 27.5831C24.7135 28.9438 23.0808 29.7292 21.3179 30.2741C17.8558 31.3491 14.3162 31.5944 10.7267 31.1786C7.36741 30.7855 4.16086 29.9745 1.45773 27.5742H1.45479ZM26.115 18.9485C24.6596 20.3851 22.9516 21.1685 21.126 21.7144C16.9821 22.9529 12.7805 23.0446 8.55443 22.2336C6.38213 21.8178 4.30287 21.1232 2.48217 19.7998C2.14722 19.5565 1.84067 19.2756 1.45577 18.9574V19.52C1.45577 21.1291 1.49102 22.7391 1.44401 24.3482C1.40778 25.5631 1.93371 26.4588 2.80538 27.2057C3.76421 28.0206 4.8719 28.5753 6.05012 28.9793C10.4368 30.479 14.898 30.5785 19.3993 29.6168C21.2102 29.2296 22.9437 28.6118 24.451 27.4905C25.2482 26.8993 26.0474 26.2095 26.0905 25.1503C26.1738 23.1106 26.115 21.0759 26.115 18.9485Z" fill="#373737" stroke="#373737" stroke-width="0.5"/>
<path d="M24.0871 16.1698C24.0921 16.4783 24.0362 16.7847 23.9224 17.0712C23.8087 17.3577 23.6394 17.6186 23.4245 17.8387C23.2096 18.0588 22.9533 18.2336 22.6706 18.3531C22.3879 18.4726 22.0843 18.5343 21.7777 18.5346C21.1677 18.5279 20.5843 18.2829 20.1506 17.8513C19.717 17.4198 19.467 16.8356 19.4536 16.222C19.4475 15.9096 19.5039 15.5991 19.6194 15.309C19.7349 15.0189 19.9072 14.7551 20.1259 14.5332C20.3447 14.3113 20.6056 14.136 20.893 14.0175C21.1804 13.899 21.4886 13.8398 21.7992 13.8434C22.1015 13.8442 22.4007 13.9051 22.6795 14.0226C22.9583 14.14 23.2113 14.3118 23.4239 14.528C23.6366 14.7442 23.8046 15.0006 23.9184 15.2823C24.0322 15.5641 24.0895 15.8657 24.0871 16.1698ZM21.7806 17.3719C22.0932 17.3667 22.3917 17.2399 22.6135 17.0182C22.8353 16.7965 22.9633 16.4971 22.9706 16.1826C22.9585 15.8684 22.8277 15.5707 22.605 15.3501C22.3822 15.1294 22.0843 15.0026 21.7718 14.9953C21.6167 14.9959 21.4632 15.0272 21.3201 15.0874C21.177 15.1477 21.0472 15.2357 20.9379 15.3465C20.8286 15.4572 20.7421 15.5886 20.6833 15.733C20.6245 15.8774 20.5945 16.032 20.5951 16.188C20.5956 16.3441 20.6268 16.4985 20.6866 16.6425C20.7465 16.7864 20.834 16.9171 20.9441 17.027C21.0542 17.137 21.1847 17.224 21.3283 17.2832C21.4718 17.3424 21.6255 17.3725 21.7806 17.3719Z" fill="#373737" stroke="#373737" stroke-width="0.5"/>
<path d="M24.0889 33.4954C24.0876 33.804 24.0248 34.1093 23.904 34.393C23.7832 34.6767 23.607 34.9331 23.3859 35.1469C23.1647 35.3608 22.9031 35.5278 22.6165 35.638C22.33 35.7481 22.0243 35.7993 21.7178 35.7883C20.4387 35.7696 19.4338 34.7044 19.4534 33.3821C19.473 32.1011 20.5102 31.1089 21.804 31.1227C23.1203 31.1365 24.1104 32.1672 24.0889 33.4954ZM21.7961 34.6414C22.1094 34.6302 22.4063 34.4981 22.6252 34.2724C22.8441 34.0466 22.9681 33.7447 22.9714 33.4294C22.9726 33.2694 22.942 33.1108 22.8814 32.9628C22.8209 32.8149 22.7315 32.6806 22.6185 32.568C22.5056 32.4553 22.3714 32.3665 22.2239 32.3067C22.0764 32.247 21.9184 32.2175 21.7594 32.2201C21.6004 32.2227 21.4435 32.2572 21.2979 32.3217C21.1524 32.3861 21.0211 32.4792 20.9118 32.5955C20.8025 32.7117 20.7175 32.8488 20.6616 32.9986C20.6058 33.1484 20.5802 33.3079 20.5866 33.4678C20.5987 33.7827 20.7314 34.0806 20.9568 34.2993C21.1822 34.518 21.483 34.6406 21.7961 34.6414Z" fill="#373737" stroke="#373737" stroke-width="0.5"/>
<path d="M24.0867 24.8253C24.0867 26.1466 23.074 27.1517 21.7528 27.1458C21.4506 27.1463 21.1512 27.0868 20.8719 26.9706C20.5926 26.8545 20.3389 26.684 20.1252 26.4689C19.9116 26.2539 19.7422 25.9985 19.6269 25.7175C19.5116 25.4364 19.4525 25.1352 19.4532 24.8312C19.4511 24.5229 19.5095 24.2173 19.6251 23.9319C19.7407 23.6464 19.9112 23.3867 20.1267 23.1676C20.3423 22.9486 20.5987 22.7745 20.8812 22.6553C21.1638 22.5361 21.467 22.4743 21.7734 22.4733C22.08 22.4703 22.3842 22.5293 22.6678 22.6467C22.9514 22.7642 23.2087 22.9377 23.4244 23.1571C23.6401 23.3764 23.8099 23.6371 23.9237 23.9236C24.0374 24.2102 24.0929 24.5168 24.0867 24.8253ZM21.7734 23.6261C21.4583 23.6268 21.1564 23.7533 20.934 23.9779C20.7117 24.2025 20.5872 24.5068 20.5878 24.8238C20.5885 25.1408 20.7142 25.4445 20.9375 25.6682C21.1608 25.8919 21.4632 26.0172 21.7783 26.0166C22.0933 26.0159 22.3953 25.8894 22.6176 25.6647C22.8399 25.4401 22.9645 25.1359 22.9638 24.8189C22.9632 24.5019 22.8374 24.1981 22.6141 23.9744C22.3909 23.7508 22.0884 23.6255 21.7734 23.6261Z" fill="#373737" stroke="#373737" stroke-width="0.5"/>
<path d="M16.9062 18.9819H37.72C37.4215 22.5518 37.1229 26.0735 36.8244 29.5952C36.5408 32.9136 36.2437 36.2319 35.969 39.5503C35.857 40.8976 35.8765 40.9007 34.6703 41.2483C32.4222 41.8971 30.1785 42.5599 27.923 43.1791C27.523 43.2877 27.1033 43.2909 26.7019 43.1885C24.2806 42.5164 21.8727 41.7916 19.4529 41.1071C18.9767 40.9736 18.7872 40.7703 18.7424 40.2348C18.3871 35.8594 17.996 31.4887 17.6108 27.1149C17.3735 24.4174 17.1496 21.7183 16.9062 18.9819ZM28.1827 33.0222L32.2132 32.2912C32.1914 32.7374 32.1914 33.1844 32.2132 33.6306C32.2774 34.2515 31.9982 34.4812 31.4489 34.6053C30.504 34.818 29.5695 35.0881 28.644 35.3814C28.4409 35.4466 28.1678 35.7058 28.1513 35.8951C28.0916 36.5827 28.1275 37.2765 28.1275 38.0681C29.8934 37.59 31.5608 37.112 33.2447 36.6991C33.7537 36.5734 33.8418 36.2987 33.8687 35.8331C33.9597 34.208 34.0866 32.5861 34.2016 30.9626C34.2344 30.4876 34.2777 30.0127 34.3195 29.5005L30.2173 29.9925V26.1961H34.5912C34.6583 25.3067 34.7211 24.5012 34.7852 23.6646H28.1692L28.1827 33.0222ZM26.5227 38.0789V25.403C26.5227 23.4054 26.5227 23.4054 24.6015 23.6537C24.5806 23.6537 24.5627 23.6848 24.4761 23.7562V34.9127L20.4158 33.7734C20.4158 34.579 20.3919 35.2759 20.4337 35.9665C20.4544 36.0693 20.4988 36.1654 20.563 36.2465C20.6272 36.3276 20.7093 36.3913 20.8024 36.4322C22.6579 36.9847 24.5224 37.5078 26.5227 38.0789Z" fill="white"/>
<path d="M34.8203 21.9761H19.7969L20.4035 38.21L26.3399 40.2695L33.3666 38.21L34.8203 21.9761Z" fill="white"/>
<g clip-path="url(#clip0_1810_2121)">
<path d="M18.3125 20.6226H36.3138C36.0556 23.71 35.7974 26.7558 35.5392 29.8017C35.2939 32.6717 35.0369 35.5416 34.7994 38.4116C34.7025 39.5768 34.7193 39.5795 33.6761 39.8802C31.7318 40.4413 29.7913 41.0145 27.8406 41.5501C27.4946 41.644 27.1317 41.6467 26.7845 41.5581C24.6904 40.9769 22.6079 40.35 20.5151 39.758C20.1032 39.6426 19.9392 39.4667 19.9005 39.0036C19.5932 35.2195 19.255 31.4394 18.9219 27.6566C18.7166 25.3235 18.5229 22.9892 18.3125 20.6226ZM28.0652 32.7656L31.5511 32.1334C31.5322 32.5193 31.5322 32.9059 31.5511 33.2918C31.6066 33.8288 31.3652 34.0274 30.89 34.1348C30.0728 34.3187 29.2646 34.5523 28.4641 34.806C28.2885 34.8624 28.0523 35.0866 28.0381 35.2503C27.9864 35.845 28.0174 36.445 28.0174 37.1297C29.5448 36.7162 30.9869 36.3028 32.4432 35.9457C32.8834 35.837 32.9596 35.5994 32.9828 35.1966C33.0616 33.7912 33.1713 32.3884 33.2708 30.9843C33.2992 30.5735 33.3366 30.1628 33.3728 29.7198L29.8249 30.1453V26.8619H33.6077C33.6658 26.0927 33.72 25.396 33.7756 24.6725H28.0536L28.0652 32.7656ZM26.6295 37.1391V26.1759C26.6295 24.4483 26.6295 24.4483 24.9679 24.6631C24.9499 24.6631 24.9344 24.6899 24.8595 24.7517V34.4006L21.3478 33.4153C21.3478 34.112 21.3271 34.7147 21.3633 35.3121C21.3812 35.401 21.4196 35.4841 21.4751 35.5542C21.5307 35.6243 21.6017 35.6794 21.6822 35.7148C23.287 36.1927 24.8995 36.6451 26.6295 37.1391Z" fill="#373737"/>
</g>
<defs>
<clipPath id="clip0_1810_2121">
<rect width="18" height="21" fill="white" transform="translate(18.3125 20.6226)"/>
</clipPath>
</defs>
</svg>
