<svg width="34" height="37" viewBox="0 0 34 37" fill="none" xmlns="http://www.w3.org/2000/svg">
<g clip-path="url(#clip0_408_1527)">
<path d="M0.710938 0H33.7133C33.2399 5.42249 32.7665 10.7719 32.2931 16.1213C31.8434 21.1619 31.3724 26.2024 30.9369 31.243C30.7593 33.2894 30.7901 33.2941 28.8776 33.8222C25.313 34.8077 21.7555 35.8144 18.179 36.7551C17.5449 36.92 16.8794 36.9248 16.2429 36.7692C12.4037 35.7484 8.58579 34.6474 4.74897 33.6076C3.99391 33.4049 3.6933 33.0961 3.6223 32.2827C3.05896 25.6366 2.4388 18.9976 1.82813 12.3539C1.45179 8.25634 1.09675 4.15646 0.710938 0ZM18.5909 21.3269L24.9816 20.2165C24.9471 20.8942 24.9471 21.5733 24.9816 22.2511C25.0834 23.1941 24.6408 23.543 23.7698 23.7316C22.2715 24.0546 20.7898 24.4649 19.3223 24.9104C19.0004 25.0095 18.5672 25.4032 18.5412 25.6908C18.4465 26.7352 18.5033 27.7891 18.5033 28.9915C21.3034 28.2653 23.9473 27.5392 26.6172 26.9121C27.4243 26.7211 27.564 26.3038 27.6066 25.5965C27.751 23.1281 27.9521 20.6644 28.1344 18.1983C28.1865 17.4769 28.2551 16.7555 28.3214 15.9775L21.817 16.7248V10.9581H28.7522C28.8587 9.60724 28.9581 8.38364 29.0599 7.11289H18.5696L18.5909 21.3269ZM15.9588 29.008V9.75341C15.9588 6.71917 15.9588 6.71917 12.9126 7.09639C12.8794 7.09639 12.851 7.14354 12.7137 7.25199V24.1985L6.27564 22.468C6.27564 23.6916 6.23776 24.7501 6.30404 25.7993C6.3369 25.9554 6.40725 26.1013 6.50907 26.2245C6.61088 26.3477 6.74112 26.4444 6.88867 26.5065C9.83079 27.3459 12.7871 28.1404 15.9588 29.008Z" fill="#373737"/>
</g>
<defs>
<clipPath id="clip0_408_1527">
<rect width="33" height="36.8824" fill="white" transform="translate(0.710938)"/>
</clipPath>
</defs>
</svg>
