<svg width="37" height="37" viewBox="0 0 37 37" fill="none" xmlns="http://www.w3.org/2000/svg">
<g clip-path="url(#clip0_408_1910)">
<path d="M27.6081 34.2972C26.9569 29.0819 26.311 23.9093 25.6624 18.6979H26.8696V15.4321H25.2424V15.0056C25.2424 13.0621 25.2384 11.1179 25.2478 9.17374C25.2563 9.07712 25.2359 8.98013 25.1891 8.89514C25.1424 8.81016 25.0714 8.74102 24.9851 8.69653C22.9756 7.45241 20.9701 6.19896 18.9686 4.93617C18.7686 4.80887 18.63 4.8182 18.4353 4.94151C16.4334 6.2034 14.4274 7.45641 12.4174 8.70053C12.2228 8.82117 12.1561 8.95313 12.1568 9.17907C12.1655 11.1232 12.1621 13.0674 12.1621 15.0109V15.4028H10.5503V18.6759H11.7502C11.0983 23.8959 10.451 29.0732 9.79511 34.3252C7.80166 33.1994 6.04655 31.6963 4.62778 29.8997C1.86547 26.4073 0.540973 22.413 0.71895 17.9788C0.886049 13.6951 2.57749 9.61177 5.4886 6.46441C8.39971 3.31704 12.3391 1.31248 16.5973 0.811772C20.8555 0.311066 25.1526 1.34713 28.7146 3.73335C32.2765 6.11957 34.8692 9.6991 36.0257 13.8272C38.4374 22.4923 34.1226 30.6842 27.6081 34.2972Z" fill="#373737"/>
<path d="M24.4977 35.7601C23.7404 35.954 22.9992 36.18 22.2433 36.3306C19.2437 36.9304 16.2847 36.7611 13.3578 35.8814C13.0171 35.7794 12.9138 35.6434 12.9658 35.2815C13.1405 34.0852 13.2864 32.8822 13.4231 31.6825C13.4491 31.4545 13.5877 31.4232 13.7437 31.3712L21.8567 28.6779L23.5418 28.1194C23.8604 30.6714 24.175 33.1841 24.4977 35.7601Z" fill="#373737"/>
<path d="M15.0496 18.6979H22.36C22.5546 20.2535 22.75 21.8091 22.9493 23.3973L14.0938 26.3512C14.415 23.7812 14.7317 21.2559 15.0496 18.6979Z" fill="#373737"/>
<path d="M21.9315 15.4061H15.459C15.4504 15.3081 15.435 15.2135 15.435 15.1188C15.435 13.7305 15.435 12.3429 15.4297 10.9546C15.4297 10.75 15.4964 10.6366 15.6697 10.532C16.6069 9.95749 17.5388 9.37497 18.4653 8.78446C18.6386 8.67382 18.7659 8.66649 18.9426 8.77913C19.8758 9.37897 20.8243 9.95682 21.7602 10.554C21.8555 10.6147 21.9602 10.7486 21.9648 10.8499C21.9755 12.3375 21.9695 13.8258 21.9648 15.3154C21.9576 15.3469 21.9464 15.3774 21.9315 15.4061Z" fill="#373737"/>
</g>
<defs>
<clipPath id="clip0_408_1910">
<rect width="36" height="36" fill="white" transform="translate(0.703125 0.686523)"/>
</clipPath>
</defs>
</svg>
