<svg width="29" height="41" viewBox="0 0 29 41" fill="none" xmlns="http://www.w3.org/2000/svg">
<g clip-path="url(#clip0_408_1986)">
<path d="M21.405 37.9573C17.2299 37.9573 14.1054 34.7862 14.1016 30.5381C14.1016 26.6165 17.4028 23.3638 21.3856 23.3444C25.4635 23.3308 28.7356 26.6729 28.7162 30.8122C28.6987 34.7571 25.4266 37.9534 21.405 37.9573ZM17.562 30.1201L20.6865 33.4253L25.3334 28.7591L24.2071 27.5595L20.6205 31.4966L18.4456 29.1071L17.562 30.1201Z" fill="#373737"/>
<path d="M0.720285 20.4455C0.720285 15.1313 0.720285 9.81707 0.720285 4.50283C0.720285 1.68175 2.367 0.0116521 5.16526 0.00581936C9.37396 -0.00584604 13.5814 -0.00584604 17.7875 0.00581936C20.5508 0.00581936 22.2791 1.71869 22.2888 4.49117C22.3062 9.90197 22.2888 15.3128 22.2888 20.7236C22.3094 21.0423 22.25 21.3611 22.1159 21.651C21.9917 21.8648 21.646 22.0981 21.4324 22.069C21.2834 22.0359 21.1432 21.9712 21.0213 21.8793C20.8994 21.7875 20.7985 21.6705 20.7255 21.5363C20.5877 21.2349 20.6188 20.8422 20.6188 20.4903C20.6188 15.2408 20.6188 9.9914 20.6188 4.74197C20.6188 2.49833 19.7546 1.6312 17.5117 1.6312C13.4985 1.62342 9.48529 1.62342 5.47206 1.6312C3.23307 1.6312 2.37865 2.50999 2.37865 4.7653C2.37865 15.2642 2.36506 25.763 2.40778 36.2619C2.40778 37.0182 2.62721 37.9436 3.09715 38.4783C3.53213 38.9721 4.44093 39.256 5.14583 39.2677C9.22378 39.3377 13.3017 39.3007 17.3797 39.3027C17.671 39.3027 18.0128 39.2288 18.238 39.3552C18.5371 39.5224 18.972 39.8918 18.9351 40.1056C18.8827 40.4225 18.5041 40.7336 18.1933 40.9378C18.0108 41.0583 17.6904 40.9747 17.4321 40.9747C13.3542 40.9747 9.27622 40.9747 5.19826 40.9747C2.42526 40.9747 0.743587 39.2891 0.731935 36.4874C0.712517 31.1388 0.720285 25.7922 0.720285 20.4455Z" fill="#373737"/>
<path d="M11.5351 33.6489C12.0729 33.6696 12.5812 33.9 12.9517 34.2909C13.3221 34.6817 13.5252 35.2021 13.5178 35.7409C13.4916 36.2643 13.2633 36.7571 12.881 37.1152C12.4988 37.4733 11.9925 37.6685 11.4691 37.6598C10.9455 37.6578 10.4441 37.4478 10.0749 37.076C9.70573 36.7042 9.49898 36.201 9.50001 35.6767C9.49923 35.4094 9.5514 35.1445 9.65352 34.8975C9.75564 34.6505 9.90566 34.4262 10.0949 34.2376C10.2842 34.049 10.5089 33.8999 10.7561 33.7988C11.0033 33.6978 11.2681 33.6468 11.5351 33.6489Z" fill="#373737"/>
<path d="M11.4411 4.69144H9.30503C8.74576 4.69144 8.26029 4.46979 8.3768 3.8768C8.437 3.56378 8.9244 3.1205 9.24093 3.09911C10.7286 3.01807 12.2196 3.01807 13.7073 3.09911C14.0277 3.11661 14.5151 3.54239 14.585 3.85736C14.7151 4.44063 14.2568 4.69533 13.6801 4.69144C12.9305 4.6856 12.1848 4.69144 11.4411 4.69144Z" fill="#373737"/>
</g>
<defs>
<clipPath id="clip0_408_1986">
<rect width="28" height="41" fill="white" transform="translate(0.71875)"/>
</clipPath>
</defs>
</svg>
