<svg width="35" height="39" viewBox="0 0 35 39" fill="none" xmlns="http://www.w3.org/2000/svg">
<g clip-path="url(#clip0_408_1509)">
<path d="M33.0111 36.8046V36.2758C33.0111 26.8484 33.0137 17.4209 33.019 7.99352C33.0247 7.83706 32.9963 7.68122 32.9358 7.53669C32.8754 7.39217 32.7842 7.26238 32.6686 7.15622C31.1278 5.5912 29.6084 4.01052 28.0643 2.44996C27.9014 2.29519 27.6883 2.20359 27.4635 2.19173C20.8752 2.17683 14.2869 2.17273 7.69864 2.17944C7.56164 2.17944 7.42575 2.19061 7.24944 2.19844V16.2926H5.53125V15.8455C5.53125 11.1184 5.53125 6.39048 5.53125 1.66186C5.53125 0.753024 5.78954 0.502619 6.71264 0.502619C13.7756 0.502619 20.8381 0.500011 27.9003 0.494794C28.1009 0.484991 28.3012 0.519498 28.4868 0.59584C28.6724 0.672182 28.8388 0.788467 28.9739 0.936355C30.7295 2.75999 32.4934 4.57356 34.2655 6.37706C34.4097 6.5165 34.5228 6.68465 34.5973 6.87053C34.6718 7.05642 34.706 7.25585 34.6979 7.45582C34.6896 17.4273 34.6874 27.3987 34.6911 37.3702C34.6911 38.2466 34.4429 38.4948 33.5771 38.4948H6.67895C5.81312 38.4948 5.53911 38.2299 5.53911 37.3769C5.53911 35.2992 5.53911 33.221 5.53911 31.1425V30.7434H7.24158V36.7979L33.0111 36.8046Z" fill="#373737"/>
<path d="M13.8288 29.8808H1.76549C0.979386 29.8808 0.703125 29.6136 0.703125 28.8311C0.703125 25.2889 0.703125 21.7467 0.703125 18.2045C0.703125 17.422 0.973767 17.1582 1.76885 17.1582H25.8977C26.722 17.1582 26.9993 17.4366 26.9993 18.2761C26.9993 21.7788 26.9993 25.2792 26.9993 28.7774C26.9993 29.608 26.7175 29.8852 25.8932 29.8852L13.8288 29.8808ZM25.2665 18.8596H2.41683V28.1827H25.2665V18.8596Z" fill="#373737"/>
<path d="M26.9021 3.04462C27.3199 2.93283 27.5759 3.12622 27.8735 3.37998C28.4193 3.85172 28.6293 4.38607 28.5552 5.09928C28.4979 5.65821 28.5439 6.23727 28.5439 6.86552H30.6518C30.8605 6.86712 31.0667 6.91131 31.2575 6.99537C31.4484 7.07942 31.6199 7.20155 31.7615 7.3542C31.903 7.50685 32.0116 7.68679 32.0806 7.88288C32.1495 8.07897 32.1773 8.28706 32.1623 8.49427C32.1159 8.51528 32.0667 8.52959 32.0163 8.53675C30.5732 8.53675 29.1313 8.54346 27.6882 8.53675C27.221 8.53675 26.8752 8.25616 26.8684 7.81125C26.8426 6.24622 26.8538 4.69013 26.8549 3.12958C26.8493 3.09604 26.8864 3.06139 26.9021 3.04462Z" fill="#373737"/>
<path d="M6.93445 24.1147C6.76712 24.7116 6.59754 25.3086 6.43246 25.9033C6.39647 26.0597 6.32437 26.2057 6.22186 26.3295C6.11935 26.4534 5.98926 26.5517 5.84191 26.6168C5.69456 26.6819 5.53399 26.7119 5.37296 26.7045C5.21192 26.6971 5.05484 26.6524 4.91417 26.574C4.76356 26.4779 4.65519 26.3285 4.61096 26.1559C4.17523 24.5015 3.75111 22.8444 3.33859 21.1847C3.20159 20.6381 3.39924 20.4022 3.97309 20.3955C4.11347 20.3955 4.25384 20.4022 4.39309 20.3955C4.76256 20.3765 4.96357 20.5509 5.04331 20.9053C5.19604 21.5838 5.36112 22.259 5.58684 22.951C5.67781 22.6156 5.76877 22.2881 5.85861 21.9561C5.917 21.7414 5.97091 21.5268 6.02931 21.3111C6.27524 20.3821 6.29321 20.381 7.25113 20.3911C7.64418 20.3911 7.84632 20.5677 7.92493 20.9321C7.99568 21.2574 8.07542 21.5816 8.14953 21.9069C8.22085 22.2433 8.32271 22.5726 8.45386 22.8906C8.61895 22.278 8.79077 21.6677 8.94911 21.0551C9.10745 20.4425 9.94858 20.1161 10.4618 20.4894C10.5427 20.5661 10.6042 20.6608 10.6411 20.7657C10.678 20.8707 10.6893 20.9829 10.674 21.0931C10.2147 22.7978 9.71612 24.4925 9.23323 26.1906C9.149 26.488 8.96484 26.6377 8.65713 26.6377C8.48868 26.6377 8.32023 26.6377 8.1529 26.6377C7.76659 26.6579 7.55659 26.4734 7.47124 26.1056C7.31851 25.4427 7.15455 24.7821 6.99509 24.1214L6.93445 24.1147Z" fill="#373737"/>
<path d="M19.3316 23.1264C19.5237 23.6641 19.7606 24.0889 19.8145 24.5349C19.9268 25.465 19.3305 26.2475 18.3782 26.5236C17.5784 26.7419 16.7375 26.7653 15.9267 26.5918C15.7627 26.5594 15.5325 26.2777 15.5303 26.1078C15.5003 24.3937 15.5003 22.6796 15.5303 20.9656C15.5303 20.8001 15.7425 20.5285 15.8964 20.4949C16.6903 20.325 17.5 20.2199 18.2985 20.4804C19.6146 20.9141 20.0189 22.0644 19.3316 23.1264ZM17.2215 24.1459V25.1084C17.8111 25.1308 18.0817 24.9899 18.0975 24.6613C18.1132 24.3326 17.8661 24.1727 17.2215 24.1459ZM17.2215 21.9157V22.6077C17.536 22.5842 17.9211 22.6077 17.9178 22.2299C17.9088 21.8062 17.509 21.9381 17.217 21.9157H17.2215Z" fill="#373737"/>
<path d="M12.5875 21.9863V22.6101C13.0187 22.6101 13.4477 22.6101 13.8756 22.6101C14.4842 22.6101 14.6246 22.7599 14.6269 23.3926C14.6269 24.0454 14.5 24.1874 13.898 24.1896H12.6066V25.0504C13.0872 25.0504 13.587 25.0213 14.0811 25.0616C14.3214 25.0817 14.7133 25.1846 14.7549 25.3276C14.8481 25.663 14.8054 26.0565 14.7436 26.4142C14.7268 26.5115 14.4528 26.6266 14.2944 26.63C13.3556 26.6512 12.4168 26.649 11.478 26.6389C11.0591 26.6333 10.8951 26.4601 10.894 26.0464C10.8895 24.3592 10.8895 22.6716 10.894 20.9836C10.894 20.5711 11.0602 20.4101 11.4892 20.4056C12.3719 20.3967 13.2545 20.3967 14.1372 20.4056C14.5977 20.4056 14.7459 20.5923 14.7515 21.1054C14.7594 21.7616 14.6235 21.9695 14.1361 21.9841C13.6487 21.9986 13.131 21.9863 12.5875 21.9863Z" fill="#373737"/>
<path d="M21.8486 24.7181C21.8486 25.1183 21.8554 25.5755 21.8486 26.0327C21.8419 26.4899 21.6768 26.6553 21.2141 26.6721C21.0326 26.6841 20.8505 26.6814 20.6695 26.6643C20.3528 26.6263 20.1562 26.4497 20.1562 26.1154C20.1562 24.4177 20.1562 22.7197 20.1562 21.0212C20.1562 20.7328 20.3034 20.5093 20.5897 20.4958C21.3376 20.4601 22.1024 20.3684 22.8357 20.4813C23.7622 20.6244 24.3226 21.3309 24.4214 22.195C24.4812 22.6264 24.3988 23.0654 24.1866 23.4461C23.9744 23.8269 23.6438 24.1289 23.2445 24.3067C22.8256 24.4956 22.3629 24.5683 21.8486 24.7181ZM21.8733 23.0021C22.4674 23.0413 22.7144 22.8579 22.6965 22.4219C22.6819 22.0486 22.4393 21.9077 21.8733 21.9614V23.0021Z" fill="#373737"/>
</g>
<defs>
<clipPath id="clip0_408_1509">
<rect width="34" height="38" fill="white" transform="translate(0.703125 0.500488)"/>
</clipPath>
</defs>
</svg>
