<svg width="35" height="31" viewBox="0 0 35 31" fill="none" xmlns="http://www.w3.org/2000/svg">
<g clip-path="url(#clip0_2993_2519)">
<path d="M9 22.9783C9.51269 21.3009 9.97038 19.7839 10.441 18.2702C11.4114 15.1519 12.3963 12.0402 13.3392 8.91524C13.5349 8.26745 13.7969 7.92373 14.5134 8.01296C15.0617 8.08072 15.6229 8.02618 16.307 8.02618C16.0531 8.89541 15.8509 9.62583 15.6245 10.3496C14.3953 14.2744 13.1387 18.1925 11.9451 22.1305C11.7332 22.8279 11.4146 23.051 10.7483 22.9882C10.2178 22.9386 9.67927 22.9783 9 22.9783Z" fill="#373737"/>
<path d="M17.7188 22.9785C17.8271 22.5406 17.8902 22.225 17.9856 21.9176C19.3538 17.5169 20.735 13.1195 22.0855 8.71225C22.2472 8.19997 22.4704 7.9901 22.9928 8.01984C23.6251 8.05455 24.2591 8.02811 24.9966 8.02811C24.7605 8.82793 24.5761 9.48068 24.374 10.1285C23.1173 14.1342 21.8429 18.1333 20.6137 22.1457C20.418 22.7819 20.1463 23.0595 19.4816 22.9901C18.9301 22.9339 18.3738 22.9785 17.7188 22.9785Z" fill="#373737"/>
</g>
<path d="M17.4531 30.9953C13.0754 30.9953 8.69762 30.9953 4.31989 30.9953C1.72608 30.9953 0.00312695 29.289 0 26.7294C0 19.2101 0 11.6907 0 4.17129C0 1.6893 1.74172 0.00155124 4.25266 0C13.0561 0 21.8595 0 30.6629 0C33.2896 0 34.9765 1.65828 34.9812 4.2535C34.9937 11.7739 34.9937 19.2938 34.9812 26.8132C34.9812 29.2781 33.2317 30.9814 30.7255 30.986C26.306 30.9995 21.8819 31.0026 17.4531 30.9953ZM17.4781 29.1649C21.8558 29.1649 26.2336 29.1649 30.6113 29.1649C32.3077 29.1649 33.1629 28.321 33.1629 26.6503C33.1629 19.1806 33.1629 11.7114 33.1629 4.24264C33.1629 2.72088 32.2764 1.83357 30.7364 1.83357C21.9309 1.83357 13.1233 1.83357 4.31364 1.83357C2.72045 1.83357 1.84334 2.71002 1.84178 4.27677C1.84178 11.7227 1.84178 19.1687 1.84178 26.6146C1.84178 28.3396 2.68293 29.1711 4.42777 29.1726L17.4781 29.1649Z" fill="#373737"/>
<defs>
<clipPath id="clip0_2993_2519">
<rect width="16" height="15" fill="white" transform="translate(9 8)"/>
</clipPath>
</defs>
</svg>
