<svg width="32" height="44" viewBox="0 0 32 44" fill="none" xmlns="http://www.w3.org/2000/svg">
<path d="M11.1047 26.0289C9.81662 26.0289 8.58984 26.0289 7.36307 26.0289C5.35874 26.0289 4.56315 25.4179 4.0111 23.5373C3.96239 23.3602 3.72786 23.2397 3.56009 23.1176C3.50235 23.0751 3.37967 23.1176 3.29488 23.1069C1.15524 23.0308 1.15525 23.0308 1.15525 20.9571C1.15525 18.832 1.1769 16.707 1.14442 14.5819C1.13179 13.8222 1.41142 13.484 2.19079 13.5194C2.75546 13.5459 3.32375 13.5194 3.79461 13.5194C4.09589 12.8429 4.27089 12.2054 4.63171 11.6954C5.1603 10.9551 5.97574 10.6559 6.90845 10.6594C9.36921 10.67 11.83 10.6594 14.4188 10.6594C14.4188 9.92803 14.4621 9.25863 14.3972 8.59809C14.3737 8.3608 14.132 8.09517 13.9191 7.93224C12.4885 6.83961 11.9346 5.21217 12.4614 3.62192C12.7144 2.85968 13.2065 2.19555 13.8674 1.72459C14.5284 1.25363 15.3241 1 16.1408 1C16.9575 1 17.7533 1.25363 18.4142 1.72459C19.0751 2.19555 19.5672 2.85968 19.8202 3.62192C20.3614 5.21571 19.7823 6.83076 18.3661 7.9411C18.1002 8.1857 17.9282 8.51278 17.879 8.86727C17.7997 9.41447 17.8574 9.98293 17.8574 10.6594H25.016C27.042 10.6594 27.9692 11.4262 28.3463 13.5158C28.9416 13.5158 29.564 13.5158 30.1846 13.5158C30.8053 13.5158 31.1354 13.7354 31.1318 14.4013C31.1162 17.0293 31.1162 19.6567 31.1318 22.2835C31.1318 22.836 30.9171 23.1193 30.338 23.1016C30.1576 23.1016 29.9772 23.1193 29.7968 23.1016C28.9074 23.0042 28.2759 23.0538 28.0522 24.2084C27.8213 25.3984 26.6992 25.997 25.2758 26.0218C23.9299 26.0448 22.5823 26.0218 21.1715 26.0218V27.8635H22.1367C24.1211 27.8635 26.1056 27.8494 28.0901 27.8635C29.9826 27.8812 31.1192 29.0093 31.1228 30.851C31.1228 34.5415 31.1047 38.232 31.1408 41.9208C31.1408 42.7513 30.8233 43.001 30.0295 42.9992C20.7686 42.9851 11.5076 42.9851 2.24671 42.9992C1.44931 42.9992 1.13179 42.7442 1.14081 41.9172C1.17689 38.2267 1.15164 34.5362 1.15886 30.8475C1.15886 29.0075 2.30083 27.8812 4.19331 27.8635C6.14893 27.8458 8.10274 27.8635 10.0566 27.8635H11.1047V26.0289ZM16.1814 11.9043C13.1746 11.9043 10.1678 11.9043 7.16102 11.9043C5.80976 11.9043 5.27757 12.4002 5.27396 13.6894C5.26554 16.7872 5.26554 19.8845 5.27396 22.9812C5.27396 24.2208 5.80436 24.7751 7.07804 24.7769C13.1169 24.7887 19.1563 24.7887 25.1964 24.7769C26.4592 24.7769 26.9896 24.2226 27.0005 22.9741C27.0101 19.9046 27.0101 16.8351 27.0005 13.7655C27.0005 12.3949 26.4917 11.9008 25.1062 11.899C22.1319 11.8978 19.1569 11.8996 16.1814 11.9043ZM29.8238 41.7189C29.8383 41.4125 29.8599 41.1876 29.8599 40.9521C29.8599 37.6169 29.8599 34.283 29.8599 30.9502C29.8599 29.684 29.2952 29.1173 27.9927 29.1155C20.0896 29.1155 12.1866 29.1155 4.28351 29.1155C2.98638 29.1155 2.42352 29.6858 2.42171 30.9537C2.42171 34.2865 2.42171 37.6199 2.42171 40.9539C2.42171 41.2053 2.4596 41.4568 2.47764 41.6835H7.37751C7.37751 39.9374 7.37751 38.2621 7.37751 36.5851C7.37751 35.5084 7.46952 35.4252 8.56279 35.4234C13.0694 35.4234 17.5796 35.4234 22.0934 35.4234C24.8951 35.4234 24.8951 35.4234 24.8951 38.186V41.7189H29.8238ZM23.5944 36.7445H8.71613V41.6729H23.5944V36.7445ZM18.7432 4.8031C18.7398 4.2969 18.5831 3.80313 18.2928 3.38469C18.0026 2.96624 17.5921 2.64205 17.1136 2.45339C16.635 2.26473 16.1101 2.22015 15.6057 2.32531C15.1012 2.43048 14.6401 2.68064 14.281 3.04393C13.9218 3.40723 13.681 3.86722 13.5891 4.36532C13.4972 4.86343 13.5584 5.37711 13.7649 5.84096C13.9714 6.30481 14.3139 6.69782 14.7488 6.96996C15.1836 7.2421 15.6911 7.38105 16.2067 7.36911C16.545 7.36449 16.879 7.29441 17.1897 7.16289C17.5004 7.03136 17.7816 6.84097 18.0172 6.60262C18.2528 6.36426 18.4382 6.08263 18.5628 5.77384C18.6874 5.46505 18.7487 5.13517 18.7432 4.8031ZM19.8022 26.1068H12.5209V27.8139H19.7968L19.8022 26.1068ZM3.94976 21.8284V14.8192H2.47403V21.8284H3.94976ZM28.3283 14.8104V21.8089H29.8581V14.8104H28.3283ZM16.5043 10.5903V8.66539C15.2415 8.5308 15.7953 9.42864 15.7051 9.88907C15.6041 10.4115 15.7286 10.8453 16.5079 10.5903H16.5043Z" fill="#373737" stroke="#373737" stroke-width="0.5"/>
<path d="M10.1978 14.1962C10.5663 14.1925 10.9317 14.2617 11.2723 14.3996C11.6129 14.5376 11.9218 14.7415 12.1804 14.9991C12.439 15.2568 12.6421 15.5629 12.7776 15.8993C12.913 16.2357 12.9781 16.5954 12.9689 16.957C12.9763 17.3217 12.9094 17.6842 12.7719 18.0232C12.6345 18.3621 12.4293 18.6706 12.1685 18.9306C11.9078 19.1905 11.5966 19.3966 11.2535 19.5366C10.9103 19.6767 10.542 19.748 10.1704 19.7462C9.79875 19.7444 9.43122 19.6697 9.08946 19.5263C8.7477 19.383 8.43862 19.1739 8.18042 18.9116C7.92222 18.6492 7.72012 18.3387 7.58603 17.9984C7.45195 17.6582 7.38859 17.2951 7.39968 16.9304C7.39353 16.5686 7.4618 16.2093 7.6004 15.8741C7.739 15.5388 7.94509 15.2344 8.20633 14.9791C8.46756 14.7239 8.77858 14.5229 9.12076 14.3884C9.46295 14.2539 9.82927 14.1885 10.1978 14.1962ZM10.2122 15.4358C10.0109 15.4275 9.80994 15.4598 9.6218 15.5307C9.43365 15.6016 9.2623 15.7095 9.11829 15.8479C8.97427 15.9863 8.86066 16.1522 8.78445 16.3353C8.70824 16.5184 8.67104 16.7149 8.67516 16.9127C8.66549 17.1107 8.69638 17.3086 8.766 17.4947C8.83563 17.6808 8.94257 17.8513 9.08051 17.9961C9.21845 18.1409 9.38458 18.257 9.56906 18.3377C9.75355 18.4183 9.95264 18.4619 10.1546 18.4657C10.3565 18.4694 10.5571 18.4334 10.7446 18.3598C10.9321 18.2861 11.1026 18.1762 11.2461 18.0367C11.3896 17.8972 11.5031 17.7309 11.5799 17.5475C11.6568 17.3642 11.6953 17.1676 11.6934 16.9694C11.7042 16.7721 11.6739 16.5748 11.6042 16.3895C11.5346 16.2042 11.4272 16.0349 11.2885 15.8918C11.1498 15.7487 10.9828 15.6349 10.7977 15.5574C10.6127 15.4799 10.4134 15.4403 10.2122 15.4411V15.4358Z" fill="#373737" stroke="#373737" stroke-width="0.5"/>
<path d="M22.1377 14.1961C22.5055 14.1959 22.8696 14.2684 23.2082 14.4093C23.5469 14.5503 23.8531 14.7567 24.1087 15.0164C24.3643 15.276 24.564 15.5835 24.6959 15.9206C24.8277 16.2577 24.8891 16.6173 24.8762 16.9782C24.8781 17.3415 24.8062 17.7015 24.6646 18.0371C24.523 18.3727 24.3145 18.6773 24.0515 18.9329C23.7885 19.1884 23.4762 19.3899 23.1328 19.5256C22.7895 19.6612 22.422 19.7282 22.052 19.7226C21.6819 19.7171 21.3167 19.6391 20.9777 19.4933C20.6388 19.3475 20.3329 19.1367 20.0779 18.8734C19.8229 18.6101 19.6241 18.2994 19.4929 17.9597C19.3618 17.62 19.3011 17.258 19.3143 16.8949C19.3126 16.5339 19.3851 16.1763 19.5274 15.8433C19.6696 15.5104 19.8787 15.209 20.1422 14.9571C20.4057 14.7052 20.7182 14.508 21.0611 14.3773C21.4039 14.2466 21.77 14.1849 22.1377 14.1961ZM20.5861 16.8808C20.5738 17.0809 20.6029 17.2814 20.6717 17.4702C20.7405 17.659 20.8477 17.8321 20.9867 17.979C21.1256 18.126 21.2935 18.2437 21.4802 18.3251C21.6668 18.4066 21.8684 18.45 22.0726 18.4527C22.2768 18.4555 22.4795 18.4175 22.6684 18.3412C22.8573 18.2648 23.0284 18.1517 23.1714 18.0085C23.3145 17.8654 23.4264 17.6952 23.5005 17.5084C23.5746 17.3215 23.6093 17.1219 23.6026 16.9215C23.6081 16.5289 23.4544 16.1502 23.1755 15.8687C22.8965 15.5872 22.5151 15.4261 22.1151 15.4207C21.7151 15.4153 21.3293 15.5661 21.0426 15.8399C20.7558 16.1137 20.5916 16.4881 20.5861 16.8808Z" fill="#373737" stroke="#373737" stroke-width="0.5"/>
<path d="M16.1339 22.916C14.963 22.916 13.7886 22.9531 12.6231 22.8894C12.3381 22.8735 12.0729 22.5352 11.7969 22.3333C12.0603 22.1137 12.3183 21.71 12.5835 21.7047C14.954 21.6551 17.3246 21.6551 19.6951 21.7047C19.9603 21.7047 20.2147 22.1191 20.4745 22.3404C20.1985 22.5317 19.9333 22.8717 19.6428 22.8894C18.4756 22.9531 17.2957 22.916 16.1339 22.916Z" fill="#373737" stroke="#373737" stroke-width="0.5"/>
<path d="M5.06612 33.3589C4.84236 33.3696 4.61869 33.3358 4.40865 33.2592C4.19862 33.1827 4.00659 33.0652 3.84417 32.9137C3.68176 32.7622 3.55234 32.5799 3.46376 32.378C3.37517 32.176 3.32926 31.9584 3.32879 31.7385C3.31614 31.2934 3.48338 30.8615 3.79401 30.537C4.10463 30.2125 4.5334 30.0219 4.98674 30.0066C5.43806 30.0163 5.86928 30.1917 6.19526 30.4983C6.52123 30.8048 6.71829 31.2202 6.74752 31.6624C6.75182 31.8824 6.71162 32.1012 6.62923 32.3059C6.54684 32.5106 6.42389 32.6973 6.26752 32.8551C6.11115 33.0128 5.92445 33.1386 5.71823 33.2251C5.51201 33.3116 5.29036 33.357 5.06612 33.3589Z" fill="#373737" stroke="#373737" stroke-width="0.5"/>
<path d="M27.2764 33.3606C27.0523 33.3663 26.8292 33.3282 26.6202 33.2486C26.4112 33.169 26.2204 33.0495 26.0588 32.8969C25.8972 32.7444 25.768 32.5619 25.6788 32.36C25.5896 32.1581 25.5421 31.9409 25.5391 31.7208C25.5528 31.278 25.7351 30.8563 26.0501 30.5389C26.365 30.2216 26.7897 30.0316 27.2403 30.0066C27.6937 30.0075 28.1283 30.184 28.4499 30.4976C28.7715 30.8113 28.954 31.2369 28.9578 31.6818C28.9649 31.9018 28.9265 32.1209 28.8449 32.3258C28.7632 32.5308 28.6401 32.7174 28.483 32.8743C28.3258 33.0312 28.1378 33.1552 27.9304 33.2388C27.7231 33.3224 27.5006 33.3639 27.2764 33.3606Z" fill="#373737" stroke="#373737" stroke-width="0.5"/>
</svg>
