<svg width="32" height="40" viewBox="0 0 32 40" fill="none" xmlns="http://www.w3.org/2000/svg">
<path d="M21.523 23.1997C22.7474 23.1997 23.9279 23.2242 25.1068 23.192C26.2024 23.1629 26.9995 23.5812 27.5239 24.5709C27.5896 24.6637 27.6729 24.7425 27.7688 24.8027C27.8648 24.8629 27.9716 24.9034 28.083 24.9217C28.527 24.9983 28.9923 24.9493 29.4347 25.0351C30.5682 25.2573 31.3335 26.1152 31.3456 27.2689C31.3775 30.1277 31.3714 32.9881 31.3562 35.8485C31.3562 36.7018 30.8834 37.1523 30.0424 37.2151C29.7649 37.2335 29.4865 37.2335 29.209 37.2151C28.3467 37.1645 27.6148 37.1768 27.0874 38.1466C26.8389 38.6062 25.9933 38.9525 25.4205 38.9571C19.0559 39.0137 12.6914 38.9984 6.32681 38.9877C5.90583 39.0023 5.49007 38.89 5.13249 38.6649C4.77491 38.4398 4.49169 38.1121 4.31894 37.7237C4.11436 37.2994 3.86432 37.1936 3.43699 37.212C2.85811 37.2365 2.2747 37.2381 1.69582 37.212C0.8457 37.1599 0.39109 36.6957 0.39109 35.8439C0.374421 33.0096 0.365329 30.1752 0.39109 27.3424C0.407759 25.9268 1.41548 24.9784 2.90661 24.9524C3.60822 24.9401 4.1674 24.9417 4.53867 24.1312C4.84174 23.4647 5.57367 23.2119 6.3359 23.2119C7.61639 23.2119 8.89688 23.2119 10.2198 23.2119V20.946C9.23784 20.7239 8.19375 20.6794 7.34059 20.2474C6.29498 19.7173 6.46774 18.5207 6.47532 17.5356C6.39955 17.4759 6.36318 17.4222 6.32378 17.4192C4.32349 17.266 3.89009 16.788 3.89009 14.758C3.89009 14.3504 3.89009 13.9414 3.89009 13.5323C3.9007 12.1289 4.57352 11.4364 5.96918 11.3874C6.09496 11.3874 6.22073 11.3736 6.47834 11.3598C6.47834 10.7623 6.47834 10.1633 6.47834 9.56424C6.47834 7.87896 7.25422 7.09914 8.93477 7.09454C10.7532 7.09454 12.5717 7.09454 14.3901 7.09454H15.2296C15.266 6.27182 15.4751 5.57779 14.5144 5.1243C13.6779 4.73055 13.4021 3.54626 13.69 2.63621C13.8324 2.1559 14.1263 1.73587 14.5269 1.44017C14.9274 1.14447 15.4126 0.989338 15.9085 0.998424C16.3909 1.00649 16.8583 1.16954 17.243 1.46398C17.6276 1.75842 17.9097 2.16897 18.0482 2.63621C18.3392 3.55545 18.0634 4.73209 17.2269 5.12277C16.2616 5.58239 16.4798 6.27182 16.5132 7.09454H19.2408C20.4531 7.09454 21.6654 7.09454 22.8777 7.09454C24.4567 7.10527 25.2508 7.90807 25.2584 9.48917C25.2584 10.102 25.2584 10.701 25.2584 11.3522C25.5811 11.369 25.8266 11.3797 26.0721 11.3951C26.5437 11.4139 26.99 11.6152 27.3189 11.9574C27.6478 12.2996 27.834 12.7565 27.8391 13.2336C27.8633 13.972 27.8572 14.7135 27.8391 15.4535C27.8163 16.5965 27.0692 17.3487 25.9312 17.3931C25.7357 17.4023 25.5372 17.3931 25.2781 17.3931C25.2311 18.4441 25.4675 19.6621 24.4446 20.206C23.6006 20.6549 22.555 20.7162 21.5154 20.9721L21.523 23.1997ZM15.8721 37.7758C18.9292 37.7758 21.9847 37.7758 25.0386 37.7758C26.1221 37.7758 26.4979 37.402 26.4995 36.3158C26.4995 32.8431 26.4995 29.3704 26.4995 25.8977C26.4995 24.7869 26.1479 24.4253 25.0689 24.4238C18.9327 24.4238 12.797 24.4238 6.66171 24.4238C5.60095 24.4238 5.2418 24.7869 5.24029 25.8287C5.23422 29.327 5.23422 32.8242 5.24029 36.3204C5.24029 37.3928 5.62216 37.7728 6.70868 37.7743C9.76267 37.7774 12.8172 37.7779 15.8721 37.7758ZM15.8721 8.31867C13.5506 8.31867 11.229 8.31867 8.90142 8.31867C7.94522 8.31867 7.68155 8.58525 7.68003 9.53513C7.68003 12.443 7.68003 15.3514 7.68003 18.2603C7.68003 19.1933 7.98311 19.512 8.89233 19.5135C13.5395 19.5197 18.1826 19.5197 22.8217 19.5135C23.7309 19.5135 24.034 19.1949 24.043 18.2679C24.0491 15.3601 24.0491 12.4522 24.043 9.54433C24.043 8.59138 23.7763 8.31867 22.8307 8.31867C20.5153 8.31407 18.1952 8.31867 15.8737 8.31867H15.8721ZM30.0485 35.9511C30.0924 35.8592 30.1333 35.8148 30.1333 35.7703C30.1409 32.9697 30.15 30.1706 30.1455 27.37C30.1455 26.7189 29.7681 26.3098 29.1544 26.2117C28.6998 26.1397 28.227 26.198 27.7754 26.198V35.9511H30.0485ZM3.98404 35.9511V26.2623C2.3338 25.9344 1.49429 26.3328 1.55945 28.1008C1.64885 30.4387 1.58065 32.7843 1.58065 35.1269V35.945L3.98404 35.9511ZM11.5064 23.143H20.2319V20.7821H11.5064V23.143ZM6.43592 12.6713C5.23726 12.5457 5.10239 12.6713 5.09936 13.8066C5.09936 14.2151 5.09936 14.6237 5.09936 15.0322C5.09936 16.1169 5.32363 16.2885 6.43592 16.0771V12.6713ZM25.2857 16.1307C26.5146 16.2211 26.6374 16.1077 26.6404 14.9617C26.6404 14.5542 26.6404 14.1451 26.6404 13.7361C26.6404 12.6636 26.3737 12.4721 25.2857 12.7295V16.1307ZM15.8721 4.37818C16.0108 4.38231 16.1488 4.35811 16.2779 4.30702C16.4071 4.25594 16.5247 4.17903 16.6237 4.08089C16.7228 3.98276 16.8012 3.86542 16.8544 3.73591C16.9075 3.6064 16.9342 3.46738 16.9329 3.32718C16.9334 3.04478 16.8268 2.77293 16.6352 2.56748C16.4435 2.36204 16.1813 2.23861 15.9025 2.22255C15.7575 2.2207 15.6137 2.24821 15.4795 2.30347C15.3453 2.35873 15.2234 2.44061 15.121 2.54429C15.0186 2.64797 14.9377 2.77134 14.8833 2.90712C14.8288 3.04289 14.8018 3.18833 14.8038 3.33484C14.8033 3.47512 14.8309 3.61406 14.8848 3.7433C14.9388 3.87254 15.0181 3.98941 15.1179 4.08688C15.2177 4.18434 15.3359 4.26039 15.4656 4.31045C15.5952 4.36051 15.7335 4.38355 15.8721 4.37818Z" fill="#373737" stroke="#373737" stroke-width="0.5"/>
<path d="M16.6199 32.458C17.0745 33.1015 17.5292 33.6837 17.8898 34.3195C18.0171 34.5493 17.8686 34.9323 17.8459 35.2479C17.5428 35.1713 17.1427 35.1897 16.9518 34.9982C16.5533 34.5953 16.2638 34.079 15.8698 33.5274C15.4834 34.0713 15.1955 34.583 14.7984 34.986C14.606 35.1821 14.2105 35.1729 13.9074 35.2571C13.8786 34.9507 13.721 34.56 13.8453 34.3379C14.1968 33.6959 14.6636 33.1122 15.1197 32.4688C14.709 31.8728 14.3044 31.2661 13.8786 30.6762C13.6286 30.3285 13.4967 29.9822 13.8877 29.6773C14.3423 29.328 14.6287 29.6436 14.8818 29.9945C15.1849 30.4265 15.4879 30.8616 15.8698 31.3886C16.2335 30.8754 16.5608 30.4097 16.8957 29.9485C17.1367 29.6176 17.4231 29.351 17.8383 29.6681C18.2535 29.9853 18.1247 30.3116 17.8731 30.6624C17.4594 31.2339 17.0624 31.8207 16.6199 32.458Z" fill="#373737" stroke="#373737" stroke-width="0.5"/>
<path d="M9.95725 30.7191C9.54053 30.7191 9.21169 30.7957 8.94498 30.6976C8.67828 30.5996 8.49946 30.3299 8.28125 30.1354C8.48431 29.9239 8.67828 29.544 8.8874 29.5317C9.99433 29.4712 11.1037 29.4712 12.2106 29.5317C12.4319 29.544 12.6334 29.9101 12.844 30.1139C12.6334 30.3161 12.4546 30.6088 12.2046 30.6976C11.9181 30.7987 11.5681 30.7206 11.1605 30.7206C11.1605 31.6889 11.2377 32.6066 11.1332 33.5044C11.0604 34.1325 11.6772 35.2984 10.5407 35.2755C9.46628 35.254 10.0451 34.1034 9.97544 33.46C9.88451 32.5821 9.95725 31.6889 9.95725 30.7191Z" fill="#373737" stroke="#373737" stroke-width="0.5"/>
<path d="M21.7785 30.7177C21.7785 32.0016 21.7785 33.195 21.7785 34.387C21.7785 34.8466 21.7785 35.32 21.1723 35.3338C20.5662 35.3476 20.5662 34.8742 20.5662 34.4146C20.5662 33.2195 20.5662 32.0245 20.5662 30.7192C20.1843 30.7192 19.8176 30.7973 19.5054 30.6947C19.2584 30.6104 19.0826 30.3086 18.875 30.1033C19.0887 29.9026 19.2948 29.541 19.5175 29.5288C20.6244 29.4683 21.7338 29.4683 22.8407 29.5288C23.0529 29.5395 23.3514 29.9026 23.4029 30.1416C23.4332 30.2841 23.0817 30.6012 22.8483 30.684C22.5634 30.7881 22.2149 30.7177 21.7785 30.7177Z" fill="#373737" stroke="#373737" stroke-width="0.5"/>
<path d="M12.126 14.7886C11.6714 14.7886 11.2168 14.8008 10.7622 14.7886C10.0409 14.7625 9.6681 14.381 9.65143 13.6426C9.63628 13.0068 9.63779 12.3694 9.65143 11.7336C9.66658 10.9553 10.0318 10.5585 10.8077 10.5355C11.7169 10.5079 12.6261 10.5049 13.5247 10.5355C14.2521 10.5616 14.6219 10.9676 14.6416 11.6999C14.6582 12.3357 14.6567 12.9715 14.6416 13.6073C14.6234 14.3887 14.2475 14.7671 13.4793 14.7886C13.0322 14.7993 12.5791 14.7886 12.126 14.7886ZM10.9031 11.7903V13.5231H13.3959V11.7903H10.9031Z" fill="#373737" stroke="#373737" stroke-width="0.5"/>
<path d="M19.8129 10.6521C22.2663 10.6521 22.2663 10.6521 22.2648 13.1142C22.2648 14.7106 22.0587 14.922 20.5024 14.922C19.8235 14.922 19.1385 14.9404 18.4642 14.922C17.6914 14.896 17.3064 14.5191 17.2716 13.7438C17.2428 13.1096 17.2428 12.4707 17.2716 11.8364C17.3049 11.0505 17.6898 10.6812 18.4566 10.6613C18.9067 10.6429 19.3598 10.6537 19.8129 10.6521ZM18.5384 11.9161V13.6504H20.9934V11.9161H18.5384Z" fill="#373737" stroke="#373737" stroke-width="0.5"/>
<path d="M15.7608 17.5924C15.0319 17.5924 14.297 17.6429 13.5757 17.5648C13.315 17.5372 13.0877 17.2001 12.8438 17.004C13.0801 16.7957 13.3105 16.4173 13.5545 16.4081C15.0607 16.3529 16.5716 16.3529 18.0778 16.4081C18.3112 16.4173 18.5325 16.8064 18.7583 17.0209C18.5143 17.2109 18.2824 17.5387 18.0203 17.5648C17.2732 17.6414 16.5155 17.5924 15.7608 17.5924Z" fill="#373737" stroke="#373737" stroke-width="0.5"/>
</svg>
