<svg width="36" height="36" viewBox="0 0 36 36" fill="none" xmlns="http://www.w3.org/2000/svg">
<g clip-path="url(#clip0_408_1757)">
<path d="M6.6368 12.8048C7.03328 11.4382 7.28275 10.2433 7.7208 9.11772C10.0002 3.28648 16.0097 -0.391571 22.1796 0.0348474C25.4496 0.287354 28.5412 1.64704 30.9585 3.89577C33.3758 6.14451 34.9787 9.15196 35.5099 12.4357C36.8464 20.503 31.0551 28.3864 23.0365 29.3493C22.1017 29.4463 21.1617 29.4815 20.2225 29.4547C19.7889 29.4547 19.5127 29.5301 19.2395 29.9068C17.5199 32.2935 15.3474 34.1725 12.8899 35.732C12.3256 36.0906 11.8697 36.0876 11.3292 35.7395C3.99064 31.0248 0.166918 24.4281 0.763863 15.4583C0.795047 14.9836 0.839595 14.5075 0.912357 14.0374C1.04749 13.1664 1.25835 13.0173 2.0914 13.1453C3.48576 13.3593 5.59883 13.1815 6.6368 12.8048ZM2.31563 14.6883C2.03772 16.5697 2.05526 18.4839 2.3676 20.3598C3.31945 26.3583 6.57443 30.7897 11.4718 34.1016C11.9291 34.412 12.2454 34.4105 12.7087 34.1016C17.906 30.6361 20.9635 25.7827 21.8292 19.5461C22.046 17.9731 22.0074 16.3653 22.0905 14.7094C18.3203 14.7772 15.1381 13.5296 12.1415 11.5949C9.27404 13.9259 5.99233 14.9264 2.31563 14.6883ZM27.8655 15.517C27.5522 17.8631 27.2463 20.1594 26.9315 22.5311C27.867 23.1338 28.9035 23.8103 29.9785 24.508C32.5237 22.0655 33.924 19.0986 34.1646 15.517H27.8655ZM26.9938 7.2478C27.2789 9.48688 27.5631 11.7129 27.8462 13.9259H34.1735C33.8943 10.4603 32.5876 7.59738 30.2636 5.27091L26.9938 7.2478ZM14.7371 11.4261C14.9554 10.0519 15.1648 8.79527 15.34 7.53259C15.3362 7.44319 15.3121 7.3559 15.2696 7.2775C15.2271 7.19909 15.1674 7.1317 15.095 7.08055C14.0808 6.47784 13.0517 5.89924 11.9855 5.292C10.1264 7.17397 8.86718 9.42962 8.44248 12.1735C9.34566 11.7111 10.2094 11.1733 11.0248 10.5657C12.0375 9.79276 12.0108 9.76564 13.1156 10.4648C13.616 10.7707 14.1328 11.072 14.7371 11.4261ZM25.598 7.80983L21.9287 8.48035V13.1423C22.8197 13.1047 22.8197 13.1092 23.3483 13.8008C23.4383 13.9067 23.5658 13.9722 23.7032 13.9831C24.5362 13.9982 25.3693 13.9831 26.3761 13.9831C26.1073 11.8601 25.8534 9.83796 25.5935 7.80833L25.598 7.80983ZM16.7522 7.80983C16.5755 9.12525 16.3899 10.4331 16.2384 11.744C16.2427 11.8328 16.2688 11.919 16.3145 11.9949C16.3602 12.0707 16.4239 12.1337 16.4998 12.178C17.7545 12.5698 19.0242 12.9314 20.3606 13.3201V8.47734L16.7522 7.80983ZM25.6099 21.6526C25.8623 19.5974 26.1088 17.5843 26.3612 15.5306H23.5517C23.5027 16.4633 23.4611 17.3387 23.4121 18.2126C23.3691 18.9826 23.0335 19.9153 23.3468 20.4728C23.6601 21.0303 24.6209 21.2368 25.298 21.5954C25.4005 21.6232 25.5047 21.6444 25.6099 21.6587V21.6526ZM20.7096 27.9299C22.4737 28.1559 24.6476 25.7255 24.9698 23.1082L23.0023 22.0534C22.2212 24.071 21.4743 25.9891 20.714 27.9359L20.7096 27.9299ZM20.3606 1.60793C18.5787 2.76815 17.8481 4.47081 17.1843 6.40099L20.3606 6.96302V1.60793ZM21.9005 1.60793V6.98261L25.0946 6.3799C24.3759 4.46478 23.6958 2.74253 21.9049 1.61094L21.9005 1.60793ZM17.5942 1.97257C15.9785 2.46528 14.5292 3.14635 13.1393 4.2689L15.7217 5.79828L17.5942 1.97257ZM24.7931 1.8686L24.7159 2.06297L26.5572 5.80732L29.0297 4.30054L29.0386 4.01877L24.7931 1.8686ZM24.6803 27.4567L24.7367 27.6285L28.9287 25.5703L26.4399 23.9881L24.6803 27.4567Z" fill="#373737"/>
<path d="M3.46481 17.7619V17.6866C3.4455 16.1587 3.44253 16.1241 4.90074 15.9794C7.31921 15.7433 9.64799 14.9284 11.6958 13.6017C11.8607 13.5158 12.0421 13.4675 12.2273 13.4602C12.4125 13.4529 12.597 13.4868 12.7679 13.5595C15.0414 14.7649 17.3713 15.7217 19.961 15.9568C20.4852 16.0035 20.7242 16.3305 20.7138 16.882C20.6322 21.2245 19.4442 25.2099 16.7149 28.5836C15.5537 30.0211 14.0643 31.1873 12.7056 32.4636C12.3418 32.8071 11.9438 32.8418 11.5028 32.5193C6.53714 28.8805 3.69646 24.0542 3.46481 17.7619ZM4.99726 17.4726C4.97248 17.5718 4.95363 17.6725 4.94083 17.774C4.93415 17.8995 4.93415 18.0252 4.94083 18.1507C5.22446 23.4545 7.63006 27.5937 11.6914 30.8317C12.0745 31.1331 12.2928 30.9553 12.5823 30.7263C15.5756 28.4024 17.7015 25.1151 18.6112 21.4038C18.9423 20.1095 19.1012 18.77 19.3536 17.3958C16.9735 17.0237 14.6717 16.2496 12.5437 15.1055C12.4573 15.0736 12.3651 15.0609 12.2734 15.0682C12.1817 15.0754 12.0926 15.1025 12.0121 15.1477C9.87003 16.4386 7.47296 17.2326 4.9928 17.4726H4.99726Z" fill="#373737"/>
<path d="M11.1207 23.9412C12.1676 22.8669 13.1625 21.8573 14.1455 20.8342C14.5331 20.4319 14.9592 20.1757 15.4151 20.6474C15.871 21.119 15.5636 21.5092 15.2013 21.8739C14.0787 23.004 12.9739 24.1446 11.8438 25.2732C11.2499 25.8684 11.0004 25.8759 10.4153 25.3093C9.89411 24.8091 9.37586 24.3013 8.86801 23.8026C8.51757 23.4575 8.4062 23.0703 8.77743 22.6875C9.14867 22.3048 9.52881 22.4088 9.88074 22.7523C10.2713 23.126 10.6663 23.5027 11.1207 23.9412Z" fill="#373737"/>
</g>
<defs>
<clipPath id="clip0_408_1757">
<rect width="35" height="36" fill="white" transform="translate(0.703125)"/>
</clipPath>
</defs>
</svg>
