<svg width="43" height="28" viewBox="0 0 43 28" fill="none" xmlns="http://www.w3.org/2000/svg">
<g clip-path="url(#clip0_408_1742)">
<path d="M21.7079 -0.000504062H39.6422C41.5188 -0.000504062 42.6999 1.13193 42.701 2.94383C42.701 10.2999 42.701 17.6556 42.701 25.0109C42.701 26.8732 41.5422 27.9964 39.6315 27.9964H3.81519C1.85764 27.9964 0.70419 26.8876 0.703125 24.9985C0.703125 17.6604 0.703125 10.3218 0.703125 2.98295C0.703125 1.12267 1.85444 -0.00256348 3.77152 -0.00256348C9.74996 -0.00256348 15.7288 -0.00187671 21.7079 -0.000504062ZM21.6792 4.94618C15.5062 4.94618 9.33317 4.94275 3.16018 4.93589C2.67133 4.93589 2.54565 5.0584 2.54672 5.52887C2.56305 12.0098 2.5666 18.4905 2.55737 24.9707C2.55737 25.9282 2.85984 26.2123 3.87056 26.2123C15.7557 26.2123 27.6406 26.2123 39.525 26.2123C40.5592 26.2123 40.8457 25.9333 40.8457 24.9275C40.8457 18.4809 40.8393 12.0342 40.8585 5.58858C40.8585 5.08208 40.752 4.93074 40.1981 4.9328C34.0251 4.95339 27.8522 4.94618 21.6792 4.94618ZM20.7409 3.75404C23.2032 3.75404 25.6663 3.75404 28.1301 3.75404C28.9385 3.75404 29.4774 3.28974 29.47 2.61336C29.4625 1.93699 28.9374 1.48093 28.1685 1.48093C23.2245 1.48093 18.2803 1.48093 13.3356 1.48093C13.0054 1.48093 12.6966 1.52417 12.4452 1.74448C12.0576 2.08936 11.9127 2.52277 12.098 3.00251C12.2833 3.48225 12.6763 3.7561 13.244 3.75507C15.7426 3.75095 18.2416 3.75061 20.7409 3.75404ZM39.6411 2.6216C39.6411 2.4721 39.6105 2.32409 39.551 2.18609C39.4916 2.04808 39.4044 1.92283 39.2946 1.81755C39.1848 1.71228 39.0545 1.62905 38.9113 1.57269C38.768 1.51633 38.6146 1.48794 38.46 1.48916C38.3049 1.49063 38.1516 1.52185 38.009 1.58103C37.8665 1.64022 37.7375 1.72617 37.6296 1.83392C37.5217 1.94166 37.437 2.06905 37.3805 2.20868C37.3239 2.34832 37.2966 2.49742 37.3002 2.64734C37.3065 2.9409 37.4305 3.22062 37.6461 3.42747C37.8617 3.63433 38.152 3.75216 38.4557 3.7561C38.6109 3.75787 38.7649 3.72982 38.9088 3.67357C39.0527 3.61733 39.1836 3.53401 39.2939 3.42846C39.4042 3.32291 39.4916 3.19723 39.5513 3.05871C39.6109 2.9202 39.6414 2.77162 39.6411 2.6216ZM35.0785 1.48916C34.765 1.49188 34.4653 1.61409 34.2445 1.82923C34.0237 2.04437 33.8997 2.33504 33.8995 2.63807C33.9092 2.93955 34.041 3.22528 34.2665 3.4338C34.4919 3.64231 34.7931 3.75693 35.1051 3.75301C35.4093 3.74633 35.699 3.62549 35.9127 3.41605C36.1263 3.20661 36.2473 2.92502 36.25 2.63087C36.2519 2.48103 36.2229 2.33233 36.1648 2.19339C36.1068 2.05445 36.0208 1.92803 35.9118 1.82145C35.8029 1.71487 35.6731 1.63026 35.53 1.57251C35.387 1.51476 35.2335 1.48504 35.0785 1.48505V1.48916ZM32.8536 2.62984C32.8578 2.47968 32.8305 2.33026 32.7732 2.19062C32.7159 2.05099 32.6299 1.92405 32.5203 1.8175C32.4108 1.71094 32.28 1.62699 32.1359 1.57073C31.9918 1.51447 31.8374 1.48707 31.6821 1.49019C31.3693 1.49479 31.071 1.61826 30.8518 1.83386C30.6325 2.04946 30.5099 2.33986 30.5105 2.64219C30.5202 2.93571 30.6456 3.21455 30.861 3.42163C31.0764 3.62871 31.3656 3.74837 31.6693 3.7561C31.8247 3.76028 31.9794 3.73401 32.1241 3.67887C32.2688 3.62373 32.4004 3.54086 32.511 3.43525C32.6217 3.32963 32.7091 3.20347 32.768 3.06434C32.8268 2.92522 32.856 2.77601 32.8536 2.62572V2.62984Z" fill="#373737"/>
<path d="M27.2984 13.1898C27.2526 14.2378 27.3964 15.4732 27.1056 16.6952C26.5667 18.9601 25.3216 20.773 23.3779 22.1443C23.0201 22.3965 22.6324 22.6179 22.3129 22.9061C21.8922 23.2788 21.5727 23.2706 21.1009 22.9277C19.809 21.9868 18.5011 21.0747 17.6139 19.7291C16.6809 18.3095 16.1282 16.7765 16.1122 15.0861C16.0973 13.5604 16.1122 12.0337 16.1016 10.508C16.1016 10.0756 16.1857 9.9006 16.7129 9.97987C18.074 10.1858 19.4309 10.1456 20.7334 9.62676C21.135 9.46719 22.2799 9.49189 22.6942 9.64735C24.0021 10.1374 25.3568 10.1806 26.7211 9.97678C27.1578 9.91193 27.308 10.019 27.3016 10.437C27.2888 11.2935 27.2984 12.1511 27.2984 13.1898ZM18.4351 15.8253C18.4351 16.0641 18.4542 16.2175 18.5757 16.34C19.1998 16.9464 19.8132 17.5641 20.4555 18.1519C20.7164 18.3898 21.0444 18.3928 21.315 18.1334C22.4858 17.012 23.6495 15.8847 24.8062 14.7515C25.1001 14.4643 25.066 14.1431 24.7795 13.895C24.4483 13.6078 24.1075 13.6768 23.7965 13.9815C22.9636 14.7979 22.1031 15.5885 21.2937 16.4255C20.9571 16.7724 20.7366 16.722 20.4416 16.4142C20.1306 16.0868 19.8026 15.7759 19.4618 15.4742C19.3766 15.3849 19.2627 15.3261 19.1385 15.3074C19.0143 15.2887 18.8873 15.3112 18.778 15.3713C18.5554 15.4897 18.4297 15.6565 18.4351 15.8253Z" fill="#373737"/>
</g>
<defs>
<clipPath id="clip0_408_1742">
<rect width="42" height="28" fill="white" transform="translate(0.703125)"/>
</clipPath>
</defs>
</svg>
