<svg width="28" height="35" viewBox="0 0 28 35" fill="none" xmlns="http://www.w3.org/2000/svg">
<g clip-path="url(#clip0_408_1753)">
<path d="M27.0905 12.6341C27.0529 14.3023 27.1114 16.3669 27.054 18.4316C26.9436 22.2451 25.5079 25.4375 23.0959 28.1842C20.7767 30.8244 17.9285 32.6423 14.8748 34.1677C13.9317 34.6356 13.1553 34.5958 12.231 34.1372C9.10444 32.5861 6.21758 30.6945 3.87518 27.9596C1.40688 25.0725 0.0727827 21.7129 0.0860353 17.7824C0.100392 13.5711 0.0860353 9.36574 0.0860353 5.15682C0.0860353 4.23737 0.288135 3.95896 1.13962 3.73436C5.17209 2.67063 9.20052 1.60807 13.2249 0.546675C13.4751 0.48266 13.7364 0.486685 13.9847 0.558374C17.9605 1.60885 21.9341 2.65698 25.9054 3.70277C26.8806 3.96013 27.0882 4.24907 27.0893 5.34048C27.0916 7.64029 27.0905 9.9401 27.0905 12.6341ZM2.1921 12.3885C2.1921 14.1806 2.20204 15.9727 2.1921 17.7637C2.17222 20.6776 3.03143 23.2722 4.71009 25.5638C6.98292 28.665 10.0111 30.6735 13.3475 32.2387C13.4401 32.2802 13.5405 32.2988 13.641 32.2931C13.7414 32.2875 13.8393 32.2576 13.9273 32.2059C16.9555 30.7659 19.7441 28.9597 21.9529 26.2692C23.8922 23.9109 25.0043 21.1935 25.0208 18.0362C25.0407 14.1221 25.0208 10.2068 25.033 6.29269C25.033 5.88795 24.9623 5.68323 24.536 5.57444C21.002 4.67136 17.4768 3.73787 13.9505 2.80437C13.7217 2.74062 13.4813 2.74062 13.2525 2.80437C9.72621 3.74021 6.20102 4.66902 2.66919 5.57678C2.28155 5.67621 2.17995 5.84466 2.18326 6.2459C2.20204 8.29889 2.1921 10.3437 2.1921 12.3885Z" fill="#373737"/>
<path d="M13.5908 23.7775C12.3229 23.7775 11.0507 23.7845 9.78726 23.7775C8.69282 23.7693 8.03019 23.0756 8.02687 21.9292C8.01914 19.3978 8.02687 16.8676 8.02687 14.3373C8.02687 13.5711 8.35819 13.0072 9.00094 12.7218C9.35434 12.5662 9.40956 12.3533 9.3941 12.0129C9.33667 10.8069 9.59621 9.70258 10.3196 8.7375C10.8378 8.04967 11.5384 7.54168 12.3313 7.27882C13.1242 7.01597 13.9732 7.01025 14.7691 7.26239C16.4257 7.8005 17.6405 9.41013 17.751 11.2093C17.7646 11.3449 17.7672 11.4815 17.7587 11.6175C17.6947 12.179 17.7852 12.5732 18.3849 12.8119C18.9537 13.0377 19.2132 13.6155 19.2143 14.2753C19.2143 16.8652 19.2242 19.454 19.2143 22.0427C19.2143 23.0499 18.5252 23.76 17.5677 23.7728C16.2369 23.7904 14.9138 23.7775 13.5908 23.7775ZM13.5908 14.4976C12.4864 14.4976 11.382 14.5139 10.2776 14.4894C9.90764 14.4812 9.81045 14.6157 9.81266 14.9912C9.82591 17.1327 9.82591 19.2742 9.81266 21.4157C9.81266 21.783 9.93194 21.8766 10.2544 21.8743C12.4772 21.8626 14.701 21.8626 16.926 21.8743C17.2894 21.8743 17.402 21.7479 17.3998 21.3689C17.3865 19.2469 17.3832 17.1249 17.3998 15.0029C17.3998 14.5748 17.2529 14.4835 16.8863 14.4905C15.7918 14.5116 14.6885 14.4976 13.5863 14.4976H13.5908ZM13.5654 12.5346H14.8906C15.9387 12.5346 15.9387 12.5346 15.9045 11.4152C15.8939 10.9256 15.7455 10.4506 15.4783 10.051C15.2111 9.65142 14.8372 9.34555 14.4047 9.17266C13.974 8.99825 13.5042 8.96238 13.0543 9.06955C12.6044 9.17672 12.1944 9.42216 11.8757 9.77511C11.2649 10.4325 11.213 11.2467 11.2318 12.1007C11.2395 12.4212 11.3179 12.551 11.6371 12.5405C12.2732 12.5194 12.9204 12.5335 13.5609 12.5346H13.5654Z" fill="#373737"/>
<path d="M16.2039 17.1447C16.1376 17.2254 16.0581 17.3295 15.9697 17.4243C15.1293 18.318 14.28 19.2047 13.4484 20.1148C13.2275 20.357 13.0818 20.4201 12.8344 20.1394C12.2965 19.5287 11.73 18.9438 11.1646 18.366C10.958 18.1577 10.9326 18.0033 11.1646 17.8138C11.2475 17.7377 11.3257 17.6561 11.3987 17.5693C12.1265 16.7973 12.1375 16.7856 12.8797 17.5062C13.1116 17.7308 13.2353 17.6641 13.4153 17.4652C13.8482 16.9903 14.2988 16.5388 14.7317 16.0615C14.9371 15.8275 15.0862 15.7831 15.3016 16.0474C15.5169 16.3118 15.7919 16.5715 16.036 16.8347C16.11 16.9107 16.2116 16.9774 16.2039 17.1447Z" fill="#373737"/>
</g>
<defs>
<clipPath id="clip0_408_1753">
<rect width="27" height="34" fill="white" transform="translate(0.09375 0.500977)"/>
</clipPath>
</defs>
</svg>
