<svg width="34" height="34" viewBox="0 0 34 34" fill="none" xmlns="http://www.w3.org/2000/svg">
<path d="M22.6032 17.8081C22.4188 17.8164 22.1966 17.835 21.9752 17.8345C18.696 17.8337 15.4169 17.8313 12.1382 17.8272C12.0085 17.8342 11.8786 17.8314 11.7494 17.819C11.2722 17.7427 11.0248 17.4509 11.0128 16.9885C11.0008 16.5261 11.276 16.2767 11.7106 16.189C11.8384 16.1688 11.9678 16.1609 12.097 16.1652C15.4695 16.1609 18.8424 16.1576 22.2156 16.1554C22.3269 16.1505 22.4384 16.1564 22.5485 16.1728C22.995 16.2522 23.2293 16.5331 23.2584 16.9723C23.2874 17.4115 23.0281 17.6556 22.6032 17.8081Z" fill="#373737"/>
<path d="M8.60673 17.0018C9.68634 18.0769 10.7014 19.0818 11.7085 20.0947C12.2489 20.6362 12.3135 21.2334 11.8996 21.6623C11.4857 22.0913 10.8714 22.0436 10.3389 21.5127C9.12698 20.299 7.91554 19.0814 6.70454 17.8598C6.11266 17.2613 6.10871 16.7463 6.694 16.1531C7.91554 14.9174 9.14236 13.6838 10.3744 12.4525C10.8741 11.956 11.4778 11.9163 11.8891 12.3294C12.3004 12.7425 12.2608 13.3489 11.7652 13.8493C10.7435 14.8808 9.70744 15.9016 8.60673 17.0018Z" fill="#373737"/>
<path d="M25.6583 16.9887C24.5668 15.9083 23.5491 14.9061 22.5354 13.8945C21.9989 13.3583 21.9436 12.7519 22.368 12.3269C22.7925 11.9019 23.391 11.9641 23.9288 12.5017C25.1433 13.7153 26.3543 14.933 27.5618 16.1546C28.1458 16.7464 28.1418 17.2628 27.5486 17.8626C26.342 19.0851 25.1306 20.3023 23.9143 21.5142C23.387 22.0438 22.7714 22.0941 22.3548 21.6612C21.9383 21.2282 22.0082 20.6364 22.5473 20.0935C23.5584 19.0807 24.5734 18.0744 25.6583 16.9887Z" fill="#373737"/>
<rect x="1.8125" y="1.67773" width="30.6445" height="30.6445" rx="4" stroke="#373737" stroke-width="2"/>
</svg>
