<svg width="37" height="36" viewBox="0 0 37 36" fill="none" xmlns="http://www.w3.org/2000/svg">
<g clip-path="url(#clip0_408_1206)">
<path d="M18.2638 36C8.34017 35.993 0.289848 27.9145 0.29688 17.967C0.303912 8.04329 8.38236 -0.00702747 18.3285 4.60346e-06C28.2817 0.00703668 36.3166 8.10236 36.2955 18.102C36.2744 27.9708 28.1805 36.0056 18.2638 35.9986V36ZM34.6415 18.0091C34.6472 8.95465 27.4027 1.6863 18.3412 1.65535C9.26418 1.62441 1.95786 8.90683 1.95223 17.9909C1.9466 27.0454 9.19105 34.3137 18.2526 34.3447C27.3296 34.3756 34.6345 27.0932 34.6415 18.0091Z" fill="#373737"/>
<path d="M11.12 23.0539C12.9132 23.1819 14.4012 22.7656 15.771 21.753C13.9567 21.2397 13.2943 20.7151 12.8499 19.4409C13.2226 19.424 13.584 19.4071 14.1677 19.3818C12.5883 18.7095 11.6685 17.7391 11.6122 16.0936C12.0468 16.2075 12.4406 16.3116 13.0355 16.4677C11.6305 15.1457 11.2719 13.7646 12.044 12.0586C13.9117 14.1063 16.1507 15.3074 18.9537 15.4832C18.8032 14.2048 19.1084 13.1204 20.0634 12.2977C21.2279 11.2935 22.8833 11.1669 24.149 12.0923C24.6961 12.4918 25.1321 12.4833 25.6708 12.2442C25.99 12.1022 26.3163 11.977 26.7889 11.9461C26.4119 12.4566 26.035 12.9685 25.6356 13.51C26.1166 13.3848 26.6018 13.2583 27.087 13.1317L27.177 13.2245C26.8198 13.6 26.4274 13.9488 26.118 14.3609C25.9 14.6506 25.6722 15.0205 25.6553 15.3651C25.4289 19.9795 22.4163 23.5026 17.882 24.4041C15.6965 24.8387 12.6375 24.2634 11.1172 23.0539H11.12Z" fill="#373737"/>
</g>
<defs>
<clipPath id="clip0_408_1206">
<rect width="36" height="36" fill="white" transform="translate(0.296875)"/>
</clipPath>
</defs>
</svg>
