<svg width="33" height="33" viewBox="0 0 33 33" fill="none" xmlns="http://www.w3.org/2000/svg">
<g clip-path="url(#clip0_408_1805)">
<path d="M32.7013 8.67945C32.6941 10.8975 31.9014 12.8035 30.3502 14.3787C28.4147 16.343 26.485 18.3159 24.4881 20.2162C20.4843 24.0266 14.0866 23.0187 11.5698 18.2119C11.4198 17.9253 11.2784 17.5918 11.2813 17.281C11.2856 16.7251 11.637 16.3416 12.1769 16.2276C12.7954 16.0978 13.2339 16.3986 13.4924 16.956C14.228 18.5383 15.4522 19.569 17.1177 20.0323C19.2845 20.6353 21.2328 20.142 22.844 18.5896C24.8309 16.6766 26.7821 14.7265 28.7004 12.7464C30.4687 10.9204 30.8687 8.45849 29.8559 6.23183C28.8647 4.05364 26.6635 2.688 24.2467 2.79919C22.684 2.87189 21.3599 3.51195 20.2572 4.61672C19.2159 5.6602 18.1747 6.70368 17.1262 7.74003C16.5106 8.34873 15.7893 8.40575 15.3136 7.90396C14.8194 7.38223 14.8765 6.78636 15.5007 6.15771C16.6077 5.04438 17.7119 3.92962 18.8346 2.8334C21.1971 0.526915 24.6552 -0.128823 27.682 1.13704C30.753 2.42143 32.7041 5.35514 32.7013 8.67945Z" fill="#373737"/>
<path d="M15.2317 10.4501C17.8542 10.5684 20.2896 11.9968 21.8379 14.8578C22.2693 15.6547 22.115 16.2833 21.4623 16.624C20.8166 16.9605 20.2324 16.6996 19.8153 15.8899C18.0699 12.5043 13.7019 11.552 10.8608 14.0937C8.57827 16.1351 6.41713 18.3275 4.35169 20.5884C2.29626 22.8379 2.52765 26.3147 4.67594 28.4615C6.81708 30.6012 10.2738 30.7865 12.5749 28.7865C13.8818 27.6504 15.0574 26.3632 16.3001 25.1501C16.8315 24.6312 17.4885 24.5599 17.9599 24.9462C18.4684 25.3639 18.5498 26.0866 18.0584 26.5855C16.7072 27.9569 15.4245 29.4238 13.9276 30.6169C11.2079 32.7837 8.14262 33.0945 5.05303 31.4679C1.95487 29.8414 0.540776 27.1344 0.717895 23.6689C0.813597 21.7915 1.55921 20.1166 2.89046 18.7609C4.90591 16.7081 6.93706 14.6697 9.00107 12.6654C10.5523 11.16 12.452 10.443 15.2317 10.4501Z" fill="#373737"/>
</g>
<defs>
<clipPath id="clip0_408_1805">
<rect width="32" height="32" fill="white" transform="translate(0.703125 0.501221)"/>
</clipPath>
</defs>
</svg>
