<svg width="46" height="46" viewBox="0 0 46 46" fill="none" xmlns="http://www.w3.org/2000/svg">
<g clip-path="url(#clip0_2807_2332)">
<path d="M6.13191 28.2601C6.09265 28.1594 6.04793 28.0609 5.99381 27.9673L5.98483 27.9514L5.97378 27.9362C4.89563 26.4537 4.30516 24.9397 4.16942 23.396C4.03365 21.8515 4.35087 20.2545 5.12373 18.605C5.36471 18.09 5.68431 17.6488 6.00831 17.1114L7.45774 15.662C7.87536 15.4043 8.25507 15.1524 8.66272 14.9266L8.6641 14.9252C9.89742 14.2301 11.278 13.84 12.6899 13.7858L12.9723 13.7796C14.4854 13.7689 15.9989 13.7718 17.5126 13.7886L17.5133 13.7892C18.1094 13.7947 18.5782 13.9757 18.8923 14.2567C19.2027 14.5345 19.3856 14.9301 19.384 15.4182C19.3804 16.3568 18.654 17.051 17.5223 17.0617L17.5216 17.0624C15.939 17.0792 14.2912 17.0143 12.6789 17.0879C8.63201 17.2673 6.15671 21.6371 8.05919 25.2058C9.00951 26.9891 10.5485 28.0544 12.605 28.1524C14.2473 28.2304 15.899 28.1904 17.5243 28.1814C17.9369 28.1791 18.2786 28.2592 18.5539 28.4141C18.8263 28.5673 19.0554 28.8061 19.2279 29.1585L19.2272 29.1578C19.3447 29.399 19.3997 29.666 19.386 29.9339C19.3723 30.2018 19.2906 30.4621 19.1492 30.6901C19.0077 30.9179 18.8107 31.1065 18.5767 31.2377C18.3426 31.3688 18.0779 31.4384 17.8095 31.44H17.804C15.8219 31.4841 13.8394 31.4813 11.873 31.3495C10.3548 31.2475 8.96267 30.626 7.72221 29.6736L7.70909 29.6632L7.69597 29.6543C7.58344 29.5832 7.46452 29.5233 7.34242 29.4706L6.13191 28.2601Z" fill="#373737" stroke="white" stroke-width="0.7"/>
<path d="M26.3531 30.9861C26.0389 30.7029 25.8523 30.3038 25.8552 29.824C25.8606 28.9563 26.502 28.2892 27.5242 28.2005L27.7342 28.1909C29.3005 28.174 30.919 28.2297 32.5071 28.1632C33.4394 28.1296 34.3478 27.8602 35.1477 27.3802C35.9477 26.9001 36.6137 26.2253 37.0819 25.4184C37.5501 24.6114 37.8058 23.6987 37.8256 22.766C37.8455 21.8335 37.6278 20.9114 37.1945 20.0854C36.2274 18.2193 34.6288 17.1827 32.5216 17.0961C30.9342 17.0306 29.311 17.0808 27.7494 17.0581C26.7972 17.0441 26.1801 16.5138 26.0465 15.7405C25.8779 14.7633 26.5307 13.8594 27.4441 13.8374L27.4462 13.8367C29.5413 13.7701 31.6389 13.8095 33.7301 13.9541C35.1363 14.0605 36.4358 14.687 37.5839 15.6135L37.6005 15.6273L37.6185 15.6383C37.7137 15.698 37.8156 15.7449 37.9202 15.7854L39.1266 16.9918C39.1655 17.093 39.2104 17.1917 39.2654 17.2853L39.2737 17.3005L39.2833 17.3143L39.4781 17.5905C40.4233 18.9735 40.9481 20.3825 41.0787 21.8179C41.218 23.3494 40.9107 24.9334 40.1541 26.5722C39.8864 27.149 39.5183 27.6408 39.1501 28.242L37.8905 29.496C37.4539 29.7741 37.0596 30.0455 36.6331 30.288H36.6317C35.2802 31.0604 33.7496 31.4653 32.1929 31.4619H32.1916C30.6994 31.4666 29.207 31.4658 27.7148 31.4585C27.1364 31.4558 26.67 31.2716 26.3531 30.9861Z" fill="#373737" stroke="white" stroke-width="0.7"/>
<path d="M14.9268 24.0181C14.591 23.6419 14.4054 23.326 14.3232 23.0431C14.2391 22.7533 14.2551 22.4702 14.3736 22.1502L14.3764 22.1433L14.3785 22.1357C14.4699 21.8497 14.6443 21.597 14.8791 21.41C15.1137 21.2231 15.3985 21.11 15.6974 21.0847C16.0617 21.0544 16.4279 21.0449 16.7933 21.0564H16.8043C20.9047 21.0537 25.0043 21.0515 29.1027 21.0481L29.1034 21.0474C29.8821 21.0456 30.4573 21.2255 30.8166 21.8229L30.8173 21.8236C31.4947 22.9549 30.7401 24.3053 29.3133 24.3192C27.1119 24.3403 24.913 24.323 22.7056 24.324C20.4967 24.325 18.3473 24.3528 16.1746 24.3047H16.1732C15.929 24.3 15.676 24.2442 15.4371 24.1749C15.3183 24.1404 15.2077 24.1045 15.1035 24.0706C15.045 24.0515 14.9838 24.0352 14.9268 24.0181Z" fill="#373737" stroke="white" stroke-width="0.7"/>
</g>
<defs>
<clipPath id="clip0_2807_2332">
<rect width="32" height="32" fill="white" transform="translate(22.6274 45.2549) rotate(-135)"/>
</clipPath>
</defs>
</svg>
