<svg width="32" height="32" viewBox="0 0 32 32" fill="none" xmlns="http://www.w3.org/2000/svg">
<g clip-path="url(#clip0_408_1805)">
<path d="M31.9982 8.17835C31.991 10.3965 31.1983 12.3024 29.647 13.8776C27.7116 15.8419 25.7818 17.8148 23.785 19.7151C19.7812 23.5255 13.3835 22.5176 10.8667 17.7108C10.7167 17.4242 10.5753 17.0907 10.5782 16.7799C10.5825 16.224 10.9338 15.8405 11.4738 15.7265C12.0922 15.5967 12.5308 15.8975 12.7893 16.4549C13.5249 18.0372 14.749 19.0679 16.4145 19.5312C18.5814 20.1342 20.5297 19.6409 22.1409 18.0885C24.1278 16.1755 26.0789 14.2254 27.9973 12.2453C29.7656 10.4193 30.1655 7.95739 29.1528 5.73073C28.1615 3.55254 25.9604 2.1869 23.5436 2.29809C21.9809 2.37079 20.6568 3.01085 19.5541 4.11562C18.5128 5.1591 17.4715 6.20258 16.4231 7.23893C15.8075 7.84763 15.0861 7.90465 14.6105 7.40287C14.1163 6.88113 14.1734 6.28526 14.7976 5.65661C15.9046 4.54328 17.0087 3.42852 18.1314 2.3323C20.494 0.0258159 23.9521 -0.629922 26.9788 0.635937C30.0498 1.92033 32.001 4.85404 31.9982 8.17835Z" fill="#373737"/>
<path d="M14.5285 9.94903C17.151 10.0673 19.5864 11.4957 21.1348 14.3567C21.5662 15.1536 21.4119 15.7822 20.7591 16.1229C20.1135 16.4594 19.5293 16.1985 19.1122 15.3888C17.3667 12.0032 12.9987 11.051 10.1577 13.5926C7.87515 15.634 5.71401 17.8264 3.64857 20.0873C1.59313 22.3368 1.82453 25.8136 3.97281 27.9604C6.11395 30.1001 9.57063 30.2854 11.8718 28.2854C13.1787 27.1493 14.3543 25.8621 15.597 24.649C16.1283 24.1301 16.7854 24.0588 17.2567 24.4451C17.7653 24.8628 17.8467 25.5855 17.3553 26.0844C16.0041 27.4558 14.7214 28.9227 13.2244 30.1158C10.5048 32.2826 7.43949 32.5934 4.3499 30.9668C1.25175 29.3403 -0.162349 26.6333 0.0147705 23.1678C0.110472 21.2904 0.856087 19.6155 2.18734 18.2598C4.20278 16.207 6.23394 14.1686 8.29795 12.1643C9.84917 10.6589 11.7489 9.9419 14.5285 9.94903Z" fill="#373737"/>
</g>
<defs>
<clipPath id="clip0_408_1805">
<rect width="32" height="32" fill="white"/>
</clipPath>
</defs>
</svg>
