<svg width="36" height="38" viewBox="0 0 36 38" fill="none" xmlns="http://www.w3.org/2000/svg">
<path d="M5.36621 1.0293H20.4268C21.7547 1.0293 22.8119 1.37979 23.5361 2.00391C24.2585 2.62645 24.6605 3.53067 24.6641 4.66309V8.71289H22.1895V4.75195C22.1895 4.14506 22.092 3.71834 21.7812 3.45312C21.476 3.19267 20.9892 3.11133 20.2832 3.11133H5.40234C4.69821 3.11133 4.21484 3.19332 3.91211 3.45508C3.60439 3.72122 3.50978 4.14862 3.50977 4.75781V20.8369C3.50978 21.4415 3.61008 21.8677 3.92285 22.1338C4.23009 22.3951 4.71713 22.4785 5.41992 22.4785C9.78247 22.4785 14.1425 22.465 18.5078 22.4941H18.5088C18.8881 22.4941 19.165 22.4478 19.3398 22.2939C19.5202 22.1351 19.5657 21.8872 19.5557 21.5684H19.5547C19.5035 20.1389 19.5306 18.7151 19.5332 17.2285C22.0906 19.4187 24.5393 21.5174 26.8467 23.4912L19.5625 29.7012C19.5502 29.5721 19.5371 29.4244 19.5371 29.2725C19.5371 28.0171 19.4822 26.7728 19.5537 25.5303C19.5758 25.152 19.5074 24.8852 19.291 24.7266C19.1871 24.6505 19.0572 24.6058 18.9072 24.5801C18.8319 24.5672 18.7496 24.5587 18.6611 24.5537L18.377 24.5479C14.0458 24.5785 9.71486 24.5631 5.38281 24.5615C3.99164 24.5615 2.9021 24.2156 2.16211 23.5869C1.42445 22.9601 1.0215 22.0426 1.02148 20.8721V4.72168C1.02148 3.54205 1.41892 2.62377 2.15137 1.99902C2.88616 1.37237 3.97128 1.02935 5.36621 1.0293Z" fill="#373737" stroke="white" stroke-width="0.2"/>
<path d="M15.792 10.0657H31.1221C32.358 10.0657 33.3888 10.4225 34.1094 11.0344C34.7838 11.6073 35.1924 12.4091 35.2422 13.3694L35.248 13.5637C35.2552 20.1991 35.2552 26.8346 35.248 33.47C35.248 34.5189 34.8347 35.3905 34.1172 36.0012C33.3982 36.6131 32.3659 36.9685 31.123 36.97H15.7041C14.4881 36.9699 13.4667 36.6136 12.75 36.0071C12.0345 35.4015 11.6167 34.5426 11.6123 33.5237C11.6017 31.0069 11.612 28.4903 11.6123 25.9153H14.0557C14.0694 26.1285 14.0898 26.3537 14.0898 26.5813V33.3186C14.0898 33.8814 14.1937 34.2865 14.4932 34.5442C14.7878 34.7977 15.2477 34.8862 15.8965 34.887H30.957C31.6059 34.8869 32.0668 34.7981 32.3623 34.5442C32.6623 34.2862 32.7676 33.8807 32.7676 33.3186V13.718C32.7676 13.155 32.662 12.7482 32.3623 12.4895C32.0673 12.235 31.6078 12.1456 30.9609 12.1448H15.8994C15.2507 12.1448 14.7904 12.2331 14.4951 12.4866C14.1953 12.7441 14.0908 13.1493 14.0898 13.7112V20.3723L14.0879 21.1506H11.6572C11.6359 20.9342 11.6104 20.7498 11.6104 20.5608V13.594L11.6162 13.3958C11.6678 12.415 12.0728 11.6074 12.75 11.0334C13.4739 10.42 14.5172 10.0665 15.792 10.0657Z" fill="#373737" stroke="white" stroke-width="0.2"/>
</svg>
