<svg width="37" height="36" viewBox="0 0 37 36" fill="none" xmlns="http://www.w3.org/2000/svg">
<g clip-path="url(#clip0_408_1732)">
<path d="M18.0302 35.9997C8.15043 35.9787 0.0733489 27.8691 0.109496 17.9665C0.147975 7.96705 8.29268 -0.209094 18.5094 0.00204647C23.2254 0.101163 27.7136 2.05059 31.006 5.42994C34.2984 8.80929 36.1313 13.3478 36.1095 18.0668C36.1083 27.9927 27.9823 36.0242 18.0302 35.9997ZM1.34782 17.9875C1.23122 26.7119 8.30902 34.7784 18.0955 34.7854C27.7736 34.7947 34.7394 26.9113 34.8863 18.3048C35.0496 9.06008 27.5403 1.21523 18.1188 1.20823C15.9163 1.20823 13.7354 1.64225 11.7006 2.4855C9.66573 3.32875 7.81687 4.56471 6.25952 6.12282C4.70217 7.68094 3.46686 9.53067 2.6241 11.5664C1.78135 13.6022 1.34767 15.784 1.34782 17.9875Z" fill="black"/>
<path d="M23.6535 14.9035C24.142 14.9035 24.5268 14.8895 24.9104 14.9035C25.5821 14.9338 26.0928 15.2896 26.1219 15.93C26.1849 17.3077 26.1418 18.6912 26.1476 20.0724C26.1476 20.4876 26.1814 20.9018 26.1837 21.3159C26.1837 22.4077 26.1931 23.4984 26.1837 24.5903C26.1744 25.5795 25.701 26.0753 24.725 26.0764C20.3174 26.0842 15.9098 26.0842 11.5023 26.0764C10.5216 26.0764 10.0284 25.583 10.0447 24.5938C10.068 23.2383 10.1613 21.8828 10.1811 20.5273C10.1905 20.0304 10.0587 19.5323 10.0447 19.0342C10.0214 18.1546 10.0331 17.275 10.0447 16.3955C10.0482 15.3771 10.5146 14.9105 11.5407 14.9035C11.8474 14.9035 12.1552 14.9035 12.5703 14.9035C12.5703 14.1231 12.5435 13.387 12.5703 12.6591C12.6869 9.79415 15.1916 7.44711 18.1031 7.44361C21.0147 7.44011 23.531 9.80348 23.6441 12.6533C23.6779 13.3835 23.6535 14.1161 23.6535 14.9035ZM13.7632 14.8545H22.4816C22.4816 14.1674 22.5002 13.5282 22.4816 12.8913C22.4528 11.9772 22.1377 11.0953 21.5808 10.3701C21.0239 9.64487 20.2534 9.11301 19.378 8.84963C18.5026 8.58624 17.5666 8.60464 16.7022 8.90222C15.8378 9.1998 15.0887 9.76152 14.5607 10.5081C13.5988 11.8216 13.7189 13.3182 13.7632 14.8545ZM11.3017 24.7956H24.9023V23.6058H11.3017V24.7956ZM11.3145 17.3299H24.9104V16.175H11.3145V17.3299ZM16.2352 19.8787V18.6504H11.3308V19.8822L16.2352 19.8787ZM24.9116 18.6457H20.0003V19.8636H24.9116V18.6457ZM16.213 22.3447V21.1129H11.3227V22.3482L16.213 22.3447ZM24.9116 21.1222H19.9875V22.3377H24.9116V21.1222ZM18.7165 22.3342V18.6679H17.5108V22.3377L18.7165 22.3342Z" fill="black"/>
<path d="M18.0027 3.06677C18.8423 3.13676 19.4987 3.18342 20.1541 3.24992C20.5832 3.29308 20.9353 3.47155 20.8537 3.98132C20.7767 4.43977 20.4234 4.52842 20.0106 4.46893C17.2282 4.04564 14.3838 4.54463 11.9114 5.88975C11.7272 5.98774 11.4928 6.12306 11.3284 6.08456C11.1197 6.03207 10.7967 5.79876 10.8048 5.65995C10.8177 5.40331 10.9727 5.04869 11.1815 4.92504C12.5028 4.1474 13.955 3.61766 15.4666 3.3619C16.361 3.21025 17.2751 3.1496 18.0027 3.06677Z" fill="black"/>
<path d="M24.8465 5.09299C24.8255 5.6086 24.4687 5.8769 24.0723 5.72991C23.5781 5.56339 23.1022 5.34685 22.652 5.08366C22.4713 4.96701 22.3081 4.57156 22.3745 4.38958C22.441 4.2076 22.8409 3.9603 23.0217 4.01163C23.5738 4.18637 24.1064 4.41779 24.611 4.70221C24.7486 4.77453 24.7999 5.01017 24.8465 5.09299Z" fill="black"/>
<path d="M18.7186 31.6524C18.7186 31.8659 18.7921 32.119 18.6999 32.2823C18.5682 32.5156 18.3175 32.8364 18.1169 32.8364C17.9164 32.8364 17.5945 32.5226 17.5339 32.2928C17.4348 31.9102 17.4908 31.4833 17.5071 31.0762C17.5234 30.669 17.7695 30.4031 18.1286 30.4801C18.3618 30.5279 18.5658 30.8393 18.7023 31.0785C18.7874 31.2243 18.7186 31.4576 18.7186 31.6524Z" fill="black"/>
<path d="M11.4926 31.1006C11.0635 31.1006 10.7207 30.739 10.8594 30.4077C11.0677 29.9103 11.3359 29.4402 11.6582 29.0079C11.7573 28.876 12.1374 28.8445 12.324 28.9227C12.4825 28.9892 12.6843 29.3403 12.6318 29.4581C12.3725 29.9885 12.0788 30.5013 11.7526 30.9933C11.7048 31.0738 11.5474 31.0808 11.4926 31.1006Z" fill="black"/>
<path d="M25.5254 30.508C25.3061 30.7413 25.1837 30.9746 25.0041 31.0364C24.8246 31.0983 24.4806 31.0504 24.3838 30.9198C24.0742 30.5032 23.815 30.0513 23.6119 29.5736C23.5466 29.422 23.6679 29.0942 23.8101 28.9799C23.9524 28.8655 24.3453 28.827 24.4235 28.9227C24.8153 29.4045 25.1406 29.9399 25.5254 30.508Z" fill="black"/>
<path d="M14.5725 32.6124C14.3603 32.2881 14.0781 32.0525 14.0944 31.8402C14.1339 31.3401 14.2598 30.8507 14.4664 30.3937C14.548 30.2176 14.9585 30.0671 15.166 30.1161C15.3386 30.1557 15.5648 30.522 15.5461 30.7227C15.4888 31.1834 15.3672 31.6338 15.1847 32.0607C15.1194 32.2391 14.8792 32.3488 14.5725 32.6124Z" fill="black"/>
<path d="M22.2139 31.8927C22.0658 32.0467 21.9283 32.3022 21.7219 32.3827C21.4 32.511 21.105 32.3652 20.9908 32.0059C20.8637 31.6011 20.6958 31.1893 20.6724 30.7752C20.6596 30.5512 20.8648 30.1826 21.0561 30.1149C21.2473 30.0473 21.6624 30.2188 21.7557 30.3996C21.9679 30.823 22.0472 31.3141 22.2139 31.8927Z" fill="black"/>
</g>
<defs>
<clipPath id="clip0_408_1732">
<rect width="36" height="36" fill="white" transform="translate(0.109375)"/>
</clipPath>
</defs>
</svg>
