<svg width="37" height="36" viewBox="0 0 37 36" fill="none" xmlns="http://www.w3.org/2000/svg">
<g clip-path="url(#clip0_408_1726)">
<path d="M14.8414 0.0359997C17.7976 0.0199231 20.6812 0.942676 23.0695 2.66896C25.4578 4.39524 27.225 6.83424 28.1121 9.62833C28.2162 9.96885 28.388 10.3693 28.2936 10.6667C28.1726 11.0432 27.8701 11.5204 27.5385 11.6259C27.2069 11.7314 26.6671 11.5156 26.3961 11.259C26.125 11.0024 25.9919 10.4964 25.8491 10.084C24.1548 5.20387 19.3142 1.9113 14.2508 2.17029C9.00599 2.44607 4.4243 6.10075 3.31579 11.1415C1.52959 19.2926 7.97251 25.3861 14.2508 25.4317C14.7349 25.4317 15.4029 25.6883 15.674 26.0552C16.2573 26.837 15.5578 27.6883 14.3961 27.6643C11.1819 27.5972 8.29683 26.5924 5.85714 24.5108C1.23915 20.5732 -0.336491 15.5468 1.3771 9.84895C3.0907 4.15111 7.27545 0.889717 13.2682 0.0359997C13.792 -0.000118396 14.3176 -0.000118396 14.8414 0.0359997Z" fill="#373737"/>
<path d="M23.7872 24.4221C23.7872 22.7722 23.8792 21.2135 23.7679 19.6715C23.5767 17.0816 25.3871 15.6403 27.2217 15.6715C29.4 15.7099 30.8231 17.59 30.6101 19.6379C30.5472 20.2279 30.6101 20.837 30.6101 21.6188C31.3725 21.6188 32.0769 21.6188 32.7884 21.6188C35.4508 21.6739 36.7239 22.9305 36.6973 25.5324C36.6803 27.2111 36.8643 28.9329 36.4819 30.5252C35.3588 35.2231 30.235 37.3837 25.7743 35.0528C24.4262 34.3502 23.3395 33.1487 22.1438 32.1487C21.4371 31.5564 20.7715 30.9161 20.089 30.2974C18.6949 29.036 18.4068 27.6763 19.2031 26.1272C19.9655 24.6499 21.517 23.9689 23.2644 24.367C23.3661 24.3957 23.4847 24.3933 23.7872 24.4221ZM26.0115 22.789C26.0115 23.9881 26.043 25.1871 26.0115 26.3861C25.9752 27.4389 25.2394 27.8754 24.2786 27.4413C23.8429 27.2447 23.4629 26.7962 23.0297 26.7531C22.4706 26.7003 21.7493 26.7842 21.3596 27.1128C21.1539 27.2854 21.3596 28.2231 21.6404 28.6092C22.1366 29.2662 22.8506 29.7818 23.4823 30.3238C24.6344 31.283 25.6799 32.5013 26.999 33.1487C30.3875 34.8274 33.9865 32.9089 34.4004 29.3118C34.5577 27.9329 34.4778 26.5228 34.4464 25.1295C34.427 24.3262 33.9357 23.9137 33.1055 23.9161C32.0986 23.9161 31.0918 23.9161 30.0849 23.9161C28.6545 23.8969 28.3278 23.5732 28.2987 22.1319C28.2818 21.2159 28.3132 20.2974 28.2987 19.3789C28.2842 18.6595 28.1317 17.9665 27.2047 17.9641C26.2366 17.9641 26.0333 18.6523 26.026 19.4365C26.0018 20.554 26.0115 21.6715 26.0115 22.789Z" fill="#373737"/>
<path d="M14.6871 22.0983C13.8812 22.0983 13.0704 22.139 12.2668 22.0983C10.5992 21.9952 9.47133 20.8585 9.23414 19.2206C9.1675 18.7599 8.97027 18.3275 8.66537 17.9736C6.53547 15.6354 5.76097 12.9688 6.97113 10.0191C8.1813 7.0695 10.425 5.25415 13.7239 4.94719C18.4726 4.50115 22.2531 7.23017 22.9671 11.6163C23.3519 13.9784 22.5726 16.0047 21.0163 17.7961C20.6512 18.2025 20.3927 18.6917 20.2636 19.2206C19.8788 21.1007 18.8114 22.0551 16.8751 22.1103C16.149 22.1318 15.4229 22.1103 14.6968 22.1103L14.6871 22.0983ZM15.8465 19.7553C17.6787 20.0143 17.8844 19.8057 18.0659 18.2374C18.1604 17.6718 18.4413 17.1532 18.8646 16.7625C20.1958 15.5515 20.9776 14.1247 20.738 12.3285C20.283 8.83209 17.7585 6.95199 13.9901 7.17261C11.7682 7.30451 9.75936 8.88245 9.00179 11.0959C8.2757 13.1966 8.92434 15.2302 10.696 16.7961C11.0888 17.1609 11.3449 17.6471 11.4221 18.175C11.5891 19.8201 11.8747 20.0695 13.6343 19.6954C13.6343 19.2158 13.6343 18.693 13.6343 18.1798C13.6343 17.422 14.007 16.8321 14.7646 16.9808C15.1833 17.0671 15.6287 17.669 15.8005 18.1318C15.9723 18.5947 15.8465 19.2206 15.8465 19.7458V19.7553Z" fill="#373737"/>
<path d="M11.948 14.4076C11.7282 14.4143 11.5093 14.3778 11.3038 14.3001C11.0984 14.2224 10.9106 14.1051 10.7512 13.955C10.5919 13.8049 10.4641 13.625 10.3754 13.4257C10.2867 13.2263 10.2388 13.0115 10.2344 12.7937C10.2389 12.356 10.4052 11.9352 10.7018 11.6108C10.9984 11.2864 11.4047 11.081 11.8439 11.0335C12.7297 10.9856 13.6349 11.8489 13.6398 12.7434C13.6212 13.1809 13.4366 13.5953 13.1229 13.9039C12.8093 14.2124 12.3897 14.3923 11.948 14.4076Z" fill="#373737"/>
<path d="M17.5386 11.036C17.9803 11.047 18.4026 11.2181 18.7255 11.5168C19.0484 11.8156 19.2496 12.2213 19.2909 12.6571C19.3108 13.0969 19.1555 13.5268 18.8585 13.8543C18.5616 14.1817 18.1466 14.3805 17.7032 14.4077C16.7713 14.4629 15.8613 13.6523 15.8516 12.7578C15.8443 11.9377 16.6939 11.0672 17.5386 11.036Z" fill="#373737"/>
</g>
<defs>
<clipPath id="clip0_408_1726">
<rect width="36" height="36" fill="white" transform="translate(0.703125)"/>
</clipPath>
</defs>
</svg>
