<svg width="32" height="36" viewBox="0 0 32 36" fill="none" xmlns="http://www.w3.org/2000/svg">
<g clip-path="url(#clip0_2805_2326)">
<path d="M2.86974 12.8523V11.0325C2.86974 7.91616 2.86974 4.80025 2.86974 1.68482C2.86974 0.547119 3.4194 0.00428516 4.55545 -0.00274637C10.0661 -0.00274637 15.5768 -0.0139934 21.079 0.0183516C21.507 0.0437648 21.9101 0.227314 22.2093 0.533055C24.4051 2.97721 26.5717 5.44622 28.7091 7.94006C28.9507 8.2442 29.0905 8.61598 29.109 9.00323C29.157 10.2689 29.1274 11.5261 29.1274 12.834C29.5258 12.8621 29.8734 12.8762 30.2182 12.9128C31.2073 13.021 31.9562 13.7284 31.9646 14.7072C31.9957 18.3139 31.9957 21.9211 31.9646 25.5287C31.9562 26.5722 31.1168 27.326 30.0444 27.4033C29.7618 27.423 29.4877 27.4033 29.1231 27.4033V28.2218C29.1231 30.2595 29.1231 32.3001 29.1231 34.3364C29.1231 35.4713 28.5706 36.0057 27.4275 36.0057C19.7974 36.0057 12.171 36.0057 4.54838 36.0057C3.41798 36.0057 2.86693 35.4629 2.8641 34.3181C2.8641 32.0498 2.8641 29.7814 2.8641 27.4188C2.56737 27.4188 2.31867 27.4272 2.0714 27.4188C0.84775 27.371 0.0169148 26.5933 0.00843689 25.3839C-0.013229 21.8934 -0.013229 18.403 0.00843689 14.9125C0.0169148 13.7087 0.778526 12.9803 1.99652 12.9001C2.25934 12.879 2.52073 12.8706 2.86974 12.8523ZM4.30676 12.8199H27.672V9.3309H26.8652C25.2176 9.3309 23.5701 9.3309 21.9197 9.3309C20.9009 9.3309 20.7201 9.1537 20.7172 8.15382C20.7172 6.16249 20.7172 4.17117 20.7172 2.17984C20.7172 1.93514 20.6904 1.68904 20.6791 1.46544H4.30676V12.8199ZM4.30676 34.1283H27.6833V27.4779H4.30393L4.30676 34.1283ZM21.6653 15.1066C19.0414 14.6847 18.9453 14.7452 18.1837 17.0754C18.1555 17.164 18.1343 17.2554 18.1074 17.3454C17.7175 18.687 17.3261 20.0287 16.9064 21.4729C16.8259 21.2057 16.775 21.051 16.734 20.8935C16.2564 19.1118 15.7901 17.3272 15.2928 15.5496C15.2377 15.3499 15.0102 15.0602 14.8547 15.0503C14.0182 14.9997 13.1761 15.0264 12.2789 15.0264C12.0782 18.2075 11.8818 21.3056 11.684 24.4332H13.6622C13.7724 22.0791 13.8798 19.7643 13.9886 17.4509L14.0705 17.4636C14.6781 19.753 15.2848 22.0425 15.8905 24.332C16.2058 24.3126 16.5221 24.315 16.8372 24.339C17.4023 24.4276 17.6849 24.2054 17.8262 23.6513C18.0792 22.6795 18.4056 21.7289 18.6995 20.7684C19.048 19.633 19.3951 18.4977 19.7409 17.3623L19.8214 17.382C19.9071 19.7352 19.9943 22.0866 20.0828 24.436H22.1825C22.0073 21.2901 21.8349 18.1906 21.6625 15.1066H21.6653ZM2.52074 24.474C3.19191 24.474 3.74862 24.4445 4.3011 24.4824C4.78717 24.5176 5.06553 24.3755 5.25629 23.896C5.62084 22.9777 6.06169 22.0889 6.52798 21.0721C7.0522 22.1198 7.50577 23.0621 7.99608 23.9846C8.10064 24.1815 8.32248 24.436 8.50758 24.4501C9.19853 24.5049 9.89513 24.4726 10.7104 24.4726C9.83861 22.9692 9.05159 21.5672 8.21368 20.1946C7.95935 19.7727 7.95793 19.4746 8.21368 19.0583C9.00355 17.7659 9.74253 16.444 10.5663 15.0208C9.88524 15.0208 9.32712 15.0546 8.77464 15.011C8.27444 14.9716 8.01163 15.1516 7.82653 15.6129C7.47752 16.4862 7.06632 17.3356 6.64525 18.2736C6.16059 17.2568 5.7367 16.347 5.28737 15.4483C5.204 15.2824 5.02738 15.0546 4.88326 15.0461C4.17676 15.0053 3.47028 15.0278 2.6352 15.0278C3.4731 16.5073 4.21351 17.8587 5.00054 19.1835C5.22238 19.559 5.21107 19.8247 4.99206 20.1918C4.16828 21.5728 3.38266 22.9763 2.52074 24.474ZM29.7632 22.6388H25.9849V15.0686H23.8753V24.4248H29.7632V22.6388Z" fill="#373737"/>
</g>
<defs>
<clipPath id="clip0_2805_2326">
<rect width="32" height="36" fill="white"/>
</clipPath>
</defs>
</svg>
