<svg width="61" height="61" viewBox="0 0 61 61" fill="none" xmlns="http://www.w3.org/2000/svg">
<g clip-path="url(#clip0_6505_2478)">
<path d="M30.4127 1.45229e-05C38.5008 -0.00787369 46.2607 3.19794 51.9854 8.91222C57.7101 14.6265 60.9306 22.3812 60.9385 30.4703C60.9464 38.5594 57.741 46.3203 52.0275 52.0457C46.3139 57.7712 38.5603 60.9921 30.4722 61C13.7512 61 0.0396353 47.3303 -0.0119117 30.6348C-0.0267029 22.5411 3.16744 14.7717 8.87047 9.02926C14.5735 3.28684 22.3202 0.0398871 30.4127 1.45229e-05ZM59.061 30.4088C59.0422 24.7674 57.3529 19.2579 54.2062 14.5758C51.0595 9.89373 46.5965 6.24883 41.3805 4.10116C36.1645 1.95348 30.4293 1.39928 24.8987 2.50851C19.368 3.61775 14.2899 6.34069 10.3052 10.3337C6.32044 14.3267 3.6077 19.4107 2.50934 24.9442C1.41098 30.4777 1.97625 36.2126 4.13377 41.4251C6.29128 46.6376 9.94434 51.0941 14.6319 54.2321C19.3195 57.3701 24.8315 59.049 30.4722 59.0568C34.2315 59.0579 37.9541 58.3172 41.4268 56.8772C44.8994 55.4372 48.0539 53.3261 50.7095 50.665C53.3652 48.0038 55.4698 44.8448 56.9029 41.369C58.336 37.8931 59.0694 34.1686 59.061 30.4088Z" fill="#878787"/>
<path d="M36.6897 31.4121C31.4121 31.4121 31.4121 31.4121 31.4121 36.6429C31.4121 38.0943 31.4874 39.5576 31.3645 41.0051C31.3209 41.5048 30.7777 41.9648 30.4644 42.4447C30.175 41.941 29.6476 41.4493 29.6318 40.9377C29.5445 38.2965 29.5445 35.6514 29.604 33.0063C29.6317 31.8166 29.2313 31.3606 28.0179 31.3923C25.4445 31.4637 22.8632 31.4637 20.2859 31.3725C19.703 31.3527 19.136 30.845 18.561 30.5793C19.1598 30.2542 19.7506 29.6712 20.3612 29.6474C22.8672 29.5403 25.3811 29.5443 27.895 29.6236C29.1758 29.6633 29.6635 29.2548 29.6238 27.9382C29.5485 25.3645 29.5485 22.7828 29.6476 20.2091C29.6714 19.6539 30.2384 19.1186 30.5517 18.5713C30.8451 19.1423 31.3645 19.7015 31.3843 20.2805C31.4795 22.8542 31.4716 25.4359 31.4081 28.0096C31.3804 29.1993 31.8047 29.6514 32.9942 29.6197C35.5716 29.5522 38.1489 29.5522 40.7263 29.6197C41.3091 29.6435 41.8801 30.1471 42.4551 30.4326C41.8563 30.7578 41.2655 31.2932 40.6509 31.3646C39.3324 31.4538 38.01 31.4697 36.6897 31.4121Z" fill="#878787"/>
</g>
<defs>
<clipPath id="clip0_6505_2478">
<rect width="61" height="61" fill="white"/>
</clipPath>
</defs>
</svg>
