<svg width="42" height="42" viewBox="0 0 42 42" fill="none" xmlns="http://www.w3.org/2000/svg">
<g clip-path="url(#clip0_6264_2309)">
<path d="M41.9869 21.3753C42.0238 25.4714 40.7592 29.4738 38.3749 32.8078C33.8352 39.2304 27.5584 42.336 19.694 41.9721C9.64263 41.5051 1.19042 33.401 0.129788 23.4074C-0.00910465 22.2985 -0.0366054 21.1786 0.0476957 20.0642L3.5284 20.0724C3.42332 23.4796 4.0932 26.6982 5.78758 29.694C7.73102 33.1867 10.8295 35.8972 14.5534 37.3621C17.0539 38.37 19.7449 38.7059 22.5032 38.4749C29.7651 37.8636 36.0697 32.616 37.9152 25.5691C38.2616 24.2449 38.3273 22.8863 38.5555 21.549C39.7015 21.4753 40.859 21.7178 41.9869 21.3753Z" fill="#C5C5C5"/>
<path d="M41.9868 21.3753C40.8589 21.7227 39.7014 21.4753 38.5603 21.549C38.537 20.4039 38.4405 19.2615 38.2713 18.1288C36.7313 8.4957 27.0231 1.87973 17.4757 3.96433C9.5719 5.69002 4.21456 11.8848 3.5332 20.079L0.0524902 20.0708C0.648479 11.8504 4.63323 5.81293 11.992 2.1485C16.9389 -0.31958 22.1862 -0.637514 27.4253 1.11112C34.2193 3.3809 38.7885 7.98602 41.0329 14.8068C41.744 16.9212 42.0672 19.1464 41.9868 21.3753Z" fill="#C5C5C5"/>
<path d="M19.2866 20.056C19.2752 18.0894 19.2423 16.1228 19.262 14.1661C19.2735 13.0844 19.9877 12.3715 20.9695 12.3535C21.999 12.3338 22.7477 13.0467 22.7591 14.1661C22.7821 16.1327 22.7477 18.0993 22.7378 20.056H19.2866Z" fill="#C5C5C5"/>
<path d="M19.2868 20.056H22.7346C22.751 21.5769 22.8102 23.101 22.7675 24.6218C22.758 25.0774 22.5679 25.5105 22.2388 25.8264C21.9098 26.1422 21.4687 26.3149 21.0123 26.3065C20.7858 26.3113 20.5605 26.2715 20.3494 26.1893C20.1383 26.1071 19.9455 25.9842 19.7821 25.8276C19.6186 25.6709 19.4877 25.4837 19.3968 25.2765C19.3059 25.0693 19.2568 24.8463 19.2523 24.6202C19.2112 23.101 19.2703 21.5785 19.2868 20.056Z" fill="#C5C5C5"/>
<path d="M21.0353 31.5508C20.5666 31.5565 20.1148 31.3768 19.7786 31.051C19.4423 30.7252 19.2489 30.2797 19.2407 29.812C19.2459 29.3588 19.426 28.925 19.7434 28.6009C20.0608 28.2767 20.4911 28.0871 20.945 28.0716C21.4128 28.0538 21.8685 28.2222 22.212 28.5396C22.5556 28.857 22.7589 29.2976 22.7773 29.7645C22.7825 30.2316 22.6022 30.6819 22.2757 31.0166C21.9493 31.3514 21.5032 31.5435 21.0353 31.5508Z" fill="#C5C5C5"/>
</g>
<defs>
<clipPath id="clip0_6264_2309">
<rect width="42" height="42" fill="white"/>
</clipPath>
</defs>
</svg>
