<svg width="14" height="15" viewBox="0 0 14 15" fill="none" xmlns="http://www.w3.org/2000/svg">
<path d="M1 3.54993H2.27501H12.4751" stroke="#CE5259" stroke-width="1.5" stroke-linecap="round" stroke-linejoin="round"/>
<path d="M11.1985 3.55001V12.4751C11.1985 12.8132 11.0641 13.1375 10.825 13.3766C10.5859 13.6157 10.2616 13.7501 9.92347 13.7501H3.54844C3.21029 13.7501 2.88599 13.6157 2.64688 13.3766C2.40777 13.1375 2.27344 12.8132 2.27344 12.4751V3.55001M4.18595 3.55001V2.27501C4.18595 1.93685 4.32028 1.61255 4.55939 1.37344C4.7985 1.13433 5.1228 1 5.46095 1H8.01096C8.34912 1 8.67342 1.13433 8.91253 1.37344C9.15164 1.61255 9.28597 1.93685 9.28597 2.27501V3.55001" stroke="#CE5259" stroke-width="1.5" stroke-linecap="round" stroke-linejoin="round"/>
</svg>
