<svg width="12" height="12" viewBox="0 0 12 12" fill="none" xmlns="http://www.w3.org/2000/svg">
<path d="M11.3333 5.33333C11.1565 5.33333 10.987 5.40357 10.8619 5.5286C10.7369 5.65362 10.6667 5.82319 10.6667 6V10C10.6667 10.1768 10.5964 10.3464 10.4714 10.4714C10.3464 10.5964 10.1768 10.6667 10 10.6667H2C1.82319 10.6667 1.65362 10.5964 1.5286 10.4714C1.40357 10.3464 1.33333 10.1768 1.33333 10V2C1.33333 1.82319 1.40357 1.65362 1.5286 1.5286C1.65362 1.40357 1.82319 1.33333 2 1.33333H6C6.17681 1.33333 6.34638 1.2631 6.4714 1.13807C6.59643 1.01305 6.66667 0.843478 6.66667 0.666667C6.66667 0.489856 6.59643 0.320286 6.4714 0.195262C6.34638 0.0702379 6.17681 0 6 0H2C1.46957 0 0.960859 0.210714 0.585787 0.585787C0.210714 0.960859 0 1.46957 0 2V10C0 10.5304 0.210714 11.0391 0.585787 11.4142C0.960859 11.7893 1.46957 12 2 12H10C10.5304 12 11.0391 11.7893 11.4142 11.4142C11.7893 11.0391 12 10.5304 12 10V6C12 5.82319 11.9298 5.65362 11.8047 5.5286C11.6797 5.40357 11.5101 5.33333 11.3333 5.33333Z" fill="#CCCCD3"/>
<path d="M8.66532 1.33333H9.71866L5.52532 5.52C5.46284 5.58198 5.41324 5.65571 5.3794 5.73695C5.34555 5.81819 5.32812 5.90533 5.32812 5.99333C5.32812 6.08134 5.34555 6.16848 5.3794 6.24972C5.41324 6.33096 5.46284 6.40469 5.52532 6.46667C5.5873 6.52915 5.66103 6.57875 5.74227 6.61259C5.82351 6.64644 5.91065 6.66387 5.99866 6.66387C6.08667 6.66387 6.1738 6.64644 6.25504 6.61259C6.33628 6.57875 6.41002 6.52915 6.47199 6.46667L10.6653 2.28V3.33333C10.6653 3.51014 10.7356 3.67971 10.8606 3.80474C10.9856 3.92976 11.1552 4 11.332 4C11.5088 4 11.6784 3.92976 11.8034 3.80474C11.9284 3.67971 11.9987 3.51014 11.9987 3.33333V0.666667C11.9987 0.489856 11.9284 0.320286 11.8034 0.195262C11.6784 0.0702379 11.5088 0 11.332 0H8.66532C8.48851 0 8.31894 0.0702379 8.19392 0.195262C8.0689 0.320286 7.99866 0.489856 7.99866 0.666667C7.99866 0.843478 8.0689 1.01305 8.19392 1.13807C8.31894 1.2631 8.48851 1.33333 8.66532 1.33333Z" fill="#CCCCD3"/>
</svg>
