<svg width="27" height="28" viewBox="0 0 27 28" fill="none" xmlns="http://www.w3.org/2000/svg">
<path d="M7.35077 26.9998H3.54031C2.86658 26.9998 2.22044 26.7259 1.74404 26.2383C1.26764 25.7507 1 25.0894 1 24.3999V15.2999C1 14.6104 1.26764 13.949 1.74404 13.4614C2.22044 12.9739 2.86658 12.6999 3.54031 12.6999H7.35077M16.2419 10.0999V4.89998C16.2419 3.86564 15.8404 2.87366 15.1258 2.14228C14.4112 1.41089 13.442 1 12.4314 1L7.35077 12.6999V26.9998H21.6781C22.2907 27.0069 22.8852 26.7872 23.3521 26.381C23.8189 25.9749 24.1266 25.4098 24.2184 24.7898L25.9712 13.0899C26.0265 12.7173 26.0019 12.3368 25.8993 11.9749C25.7966 11.6129 25.6183 11.2781 25.3766 10.9937C25.135 10.7093 24.8358 10.4821 24.4999 10.3277C24.1639 10.1734 23.7992 10.0957 23.4309 10.0999H16.2419Z" stroke="#6E6E6E" stroke-width="2" stroke-linecap="round" stroke-linejoin="round"/>
</svg>
