<svg width="27" height="28" viewBox="0 0 27 28" fill="none" xmlns="http://www.w3.org/2000/svg">
<path d="M19.6492 15.3002L14.5686 27C13.558 27 12.5888 26.5891 11.8742 25.8577C11.1596 25.1264 10.7581 24.1344 10.7581 23.1001V17.9002H3.56907C3.20085 17.9044 2.83611 17.8267 2.50015 17.6724C2.16418 17.5181 1.86502 17.2908 1.62338 17.0064C1.38174 16.722 1.20341 16.3872 1.10073 16.0253C0.998061 15.6633 0.973505 15.2828 1.02877 14.9102L2.78158 3.21043C2.87344 2.59046 3.18113 2.02536 3.64794 1.61925C4.11476 1.21314 4.70926 0.993382 5.32189 1.00047H19.6492M19.6492 15.3002V1.00047M19.6492 15.3002H23.0405C23.7594 15.3132 24.4579 15.0556 25.0035 14.5764C25.549 14.0971 25.9036 13.4295 26 12.7003V3.60042C25.9036 2.87121 25.549 2.2036 25.0035 1.72432C24.4579 1.24504 23.7594 0.987458 23.0405 1.00047H19.6492" stroke="#6E6E6E" stroke-width="2" stroke-linecap="round" stroke-linejoin="round"/>
</svg>
