<svg width="17" height="17" viewBox="0 0 17 17" fill="none" xmlns="http://www.w3.org/2000/svg">
<path d="M0.254271 8.50101C0.41996 7.8283 0.52165 7.13212 0.762005 6.48785C1.75756 3.83114 4.38867 1.99079 7.17267 1.95452C7.7309 1.94741 7.81267 2.02563 7.81267 2.5803C7.81267 4.47659 7.81267 6.37123 7.81267 8.26421V8.69087H13.9197C14.4808 8.69087 14.5533 8.76696 14.5469 9.33087C14.5092 12.5863 11.9712 15.5659 8.76627 16.1156C8.48751 16.1632 8.20876 16.208 7.93 16.2578H6.86333C6.68982 16.2322 6.51489 16.2123 6.34209 16.1796C3.51614 15.6455 1.58334 14.0463 0.619783 11.3255C0.429916 10.7887 0.370178 10.2055 0.25 9.64448L0.254271 8.50101ZM7.00983 2.83417C4.59703 2.80145 1.38778 4.95683 1.1076 8.59985C1.03505 9.51362 1.16227 10.4322 1.48045 11.2919C1.79863 12.1515 2.30013 12.9316 2.95012 13.578C3.60011 14.2243 4.38301 14.7214 5.24444 15.0347C6.10588 15.348 7.02519 15.4701 7.93853 15.3924C11.5389 15.1165 13.6985 11.935 13.6715 9.50154H13.2911C11.3839 9.50154 9.47691 9.50154 7.57018 9.50154C7.11792 9.50154 7.0084 9.39061 7.0084 8.93621C7.0084 7.02901 7.0084 5.12205 7.0084 3.21532L7.00983 2.83417Z" fill="#444444" stroke="#444444" stroke-width="0.5"/>
<path d="M16.2556 7.50547C16.139 7.75222 15.9399 7.81907 15.676 7.81765C13.532 7.81125 11.3873 7.81765 9.24332 7.81267C8.78537 7.81267 8.6915 7.72307 8.69079 7.27364C8.68723 5.11756 8.68297 2.96075 8.69932 0.802533C8.69932 0.617644 8.85079 0.434178 8.93115 0.25H9.64226C9.72105 0.273849 9.80104 0.293549 9.8819 0.309021C12.9461 0.735688 14.9457 2.44235 15.9377 5.34795C16.1034 5.83293 16.1511 6.35702 16.2556 6.86333V7.50547ZM9.52421 6.98138H15.388C15.2337 3.78138 12.4504 1.21142 9.52421 1.12965V6.98138Z" fill="#444444" stroke="#444444" stroke-width="0.5"/>
</svg>
