<svg width="17" height="17" viewBox="0 0 17 17" fill="none" xmlns="http://www.w3.org/2000/svg">
<path d="M8.25 0.25C10.4591 0.25 12.4591 1.14563 13.9069 2.59313C15.3544 4.04063 16.25 6.04094 16.25 8.25C16.25 10.4591 15.3544 12.4594 13.9069 13.9069C12.4591 15.3544 10.4591 16.25 8.25 16.25C6.04094 16.25 4.04094 15.3544 2.59313 13.9069C1.14563 12.4591 0.25 10.4591 0.25 8.25C0.25 6.04094 1.14563 4.04094 2.59313 2.59313C4.04094 1.14563 6.04094 0.25 8.25 0.25ZM7.93875 5.28219C7.93875 5.14844 7.9625 5.02406 8.00969 4.91C8.05656 4.79656 8.1275 4.69313 8.22188 4.60031C8.31563 4.50813 8.41844 4.43781 8.52938 4.39094C8.64094 4.34406 8.76094 4.31969 8.88937 4.31969C9.01812 4.31969 9.13813 4.34406 9.24844 4.39062C9.35906 4.43781 9.46031 4.50812 9.55313 4.60094C9.64531 4.69375 9.71437 4.79656 9.76062 4.91062C9.80719 5.02406 9.83 5.14844 9.83 5.28219C9.83 5.4125 9.80719 5.53469 9.76094 5.6475C9.71469 5.76 9.64594 5.86438 9.55313 5.95906C9.46125 6.05375 9.36 6.12531 9.24938 6.17281C9.13875 6.22 9.01875 6.24438 8.88937 6.24438C8.7575 6.24438 8.635 6.22062 8.52219 6.17375C8.41031 6.12656 8.30781 6.05531 8.215 5.96156C8.12313 5.86719 8.05375 5.76344 8.00781 5.65C7.96156 5.53688 7.93875 5.41437 7.93875 5.28219ZM8.3575 10.8497C8.32281 10.9738 8.25281 11.2172 8.46062 11.2172C8.50562 11.2172 8.56281 11.1919 8.63125 11.1422C8.70531 11.0887 8.79031 11.0075 8.88531 10.9C8.98187 10.7906 9.08281 10.6609 9.1875 10.5119C9.29156 10.3631 9.40125 10.1925 9.51531 10.0022C9.52687 9.98188 9.55375 9.975 9.57438 9.98719L9.96062 10.2741C9.97937 10.2875 9.98344 10.3131 9.97156 10.3322C9.79375 10.6409 9.61406 10.9106 9.43219 11.1409C9.24937 11.3725 9.06375 11.565 8.87594 11.7169L8.87281 11.7188C8.68469 11.8713 8.49188 11.9859 8.29438 12.0628C7.745 12.2756 6.87688 12.2409 6.62813 11.5994C6.47125 11.1944 6.6 10.7341 6.72375 10.3378L7.3475 8.44906C7.3875 8.30594 7.43781 8.14844 7.45594 8.00125C7.48625 7.75531 7.37813 7.59625 7.11031 7.59625H6.565C6.54125 7.59625 6.52187 7.57687 6.52187 7.55312L6.52437 7.53813L6.6675 7.01687C6.6725 6.9975 6.69031 6.98438 6.70969 6.985L9.49469 6.89781C9.51844 6.89687 9.53875 6.91563 9.53969 6.93937L9.5375 6.95281L8.3575 10.8497ZM13.3044 3.19563C12.0109 1.90219 10.2238 1.10188 8.25 1.10188C6.27625 1.10188 4.48906 1.90219 3.19563 3.19563C1.90219 4.48906 1.10188 6.27625 1.10188 8.25C1.10188 10.2238 1.90219 12.0109 3.19563 13.3044C4.48906 14.5978 6.27625 15.3981 8.25 15.3981C10.2238 15.3981 12.0109 14.5978 13.3044 13.3044C14.5978 12.0109 15.3981 10.2238 15.3981 8.25C15.3981 6.27625 14.5978 4.48906 13.3044 3.19563Z" fill="#444444" stroke="#444444" stroke-width="0.5"/>
</svg>
