<svg width="17" height="17" viewBox="0 0 17 17" fill="none" xmlns="http://www.w3.org/2000/svg">
<path d="M9.07802 1.74902H9.28127C11.4154 1.74902 13.5496 1.74902 15.6837 1.74902C16.0401 1.74902 16.2596 1.95648 16.246 2.27731C16.2429 2.38518 16.2031 2.48876 16.133 2.57092C16.063 2.65307 15.967 2.70888 15.8609 2.72911C15.7775 2.74261 15.693 2.7485 15.6085 2.74671C13.4967 2.74671 11.3852 2.74592 9.27382 2.74434C9.13053 2.74434 9.06312 2.77547 9.01163 2.92404C8.87503 3.31198 8.62118 3.64795 8.28517 3.8855C7.94915 4.12304 7.54757 4.25043 7.13593 4.25006C6.7243 4.24969 6.32294 4.12157 5.98736 3.88342C5.65177 3.64527 5.39853 3.30885 5.26264 2.92066C5.21454 2.78529 5.15322 2.74366 5.0123 2.744C3.64035 2.74942 2.2684 2.74739 0.896111 2.74705C0.828278 2.74893 0.760394 2.74656 0.692859 2.73994C0.419824 2.7061 0.245027 2.50304 0.250108 2.23399C0.25485 1.9734 0.450989 1.77102 0.720637 1.75037C0.771111 1.74631 0.822263 1.74868 0.873076 1.74868C2.25654 1.74868 3.63968 1.74631 5.02314 1.75241C5.16068 1.75241 5.2142 1.71078 5.25858 1.58319C5.39235 1.19083 5.64674 0.850699 5.98545 0.611314C6.32416 0.37193 6.72989 0.245522 7.14476 0.250121C7.55672 0.250953 7.95828 0.379417 8.29409 0.617808C8.62991 0.856199 8.88344 1.19278 9.01976 1.58116C9.03974 1.63396 9.05702 1.68675 9.07802 1.74902ZM7.14238 1.23901C6.87412 1.23989 6.61701 1.34635 6.42678 1.53532C6.23655 1.72429 6.12853 1.98055 6.12612 2.24854C6.12612 2.79916 6.59157 3.26383 7.14238 3.2601C7.41065 3.2601 7.66794 3.15364 7.85764 2.96412C8.04733 2.77461 8.1539 2.51757 8.1539 2.24956C8.1539 1.98154 8.04733 1.72451 7.85764 1.53499C7.66794 1.34548 7.41065 1.23901 7.14238 1.23901Z" fill="#444444" stroke="#444444" stroke-width="0.5"/>
<path d="M6.06305 14.7557C5.93297 15.2058 5.6955 15.5747 5.3283 15.8522C5.07951 16.0417 4.78943 16.1696 4.48171 16.2257C4.17399 16.2818 3.85736 16.2645 3.55764 16.1751C3.25792 16.0856 2.9836 15.9267 2.75706 15.7112C2.53053 15.4957 2.35819 15.2298 2.25411 14.9351C2.20397 14.7946 2.14435 14.7469 1.99395 14.7517C1.58236 14.7638 1.16976 14.7591 0.757497 14.7544C0.502754 14.7513 0.297809 14.5811 0.258514 14.3547C0.216847 14.1151 0.330329 13.8887 0.550519 13.8044C0.640675 13.7732 0.735585 13.7578 0.831006 13.7591C1.23751 13.7543 1.64401 13.7543 2.05052 13.7591C2.14876 13.7591 2.19584 13.734 2.23141 13.6325C2.52816 12.781 3.26563 12.2527 4.13995 12.2544C4.98988 12.2564 5.72667 12.7901 6.01461 13.6281C6.06068 13.7635 6.13995 13.7584 6.24429 13.758C9.36082 13.758 12.4773 13.758 15.5939 13.758C15.6673 13.7561 15.7407 13.7589 15.8137 13.7665C16.0847 13.8027 16.2568 14.0068 16.249 14.2782C16.2419 14.5313 16.0505 14.7303 15.788 14.754C15.7263 14.7598 15.664 14.7564 15.602 14.7564H6.06305V14.7557ZM5.13521 14.262C5.1362 14.0626 5.07806 13.8674 4.96813 13.7011C4.85819 13.5347 4.70139 13.4046 4.51751 13.3272C4.33364 13.2498 4.13093 13.2286 3.93497 13.2662C3.73902 13.3038 3.5586 13.3985 3.4165 13.5384C3.2744 13.6784 3.17697 13.8572 3.13653 14.0524C3.09609 14.2477 3.11444 14.4505 3.18926 14.6352C3.26409 14.82 3.39204 14.9786 3.55696 15.0908C3.72188 15.203 3.91637 15.2639 4.1159 15.2657C4.38378 15.2659 4.64097 15.1607 4.83175 14.9728C5.02253 14.785 5.13155 14.5296 5.13521 14.262Z" fill="#444444" stroke="#444444" stroke-width="0.5"/>
<path d="M10.8096 7.75193C11.0382 7.03007 11.4871 6.53833 12.2022 6.33053C13.2184 6.03373 14.2713 6.58097 14.6243 7.58272C14.6734 7.72249 14.7381 7.76073 14.876 7.75532C15.1351 7.74517 15.3953 7.75227 15.6551 7.75261C16.0277 7.75261 16.2493 7.93705 16.2513 8.24942C16.2513 8.56924 16.0321 8.75436 15.6469 8.7547C15.3702 8.7547 15.0934 8.75774 14.817 8.7547C14.7262 8.75301 14.6815 8.77534 14.6476 8.87112C14.3427 9.73242 13.6178 10.256 12.7449 10.2543C11.8719 10.2526 11.1551 9.72565 10.8478 8.86096C10.8367 8.82983 10.8234 8.79937 10.8065 8.75605H0.88374C0.810554 8.75857 0.737291 8.75426 0.664905 8.74319C0.406097 8.69378 0.249593 8.49986 0.253997 8.24266C0.258062 7.99797 0.419986 7.81014 0.673035 7.76513C0.745655 7.75536 0.818985 7.75184 0.892209 7.75464C4.12166 7.75464 7.35111 7.75464 10.5806 7.75464L10.8096 7.75193ZM11.7408 8.25958C11.7425 8.45864 11.8032 8.65272 11.9152 8.81738C12.0272 8.98203 12.1854 9.10988 12.37 9.18481C12.5547 9.25974 12.7573 9.27839 12.9525 9.23842C13.1477 9.19845 13.3267 9.10164 13.4669 8.9602C13.6071 8.81876 13.7023 8.63902 13.7404 8.44363C13.7785 8.24824 13.7579 8.04595 13.6811 7.86226C13.6043 7.67857 13.4748 7.5217 13.3089 7.41142C13.143 7.30115 12.9482 7.24241 12.7489 7.2426C12.4807 7.24527 12.2243 7.35359 12.0356 7.54401C11.8468 7.73443 11.7409 7.99158 11.7408 8.25958Z" fill="#444444" stroke="#444444" stroke-width="0.5"/>
</svg>
