<svg width="16" height="16" viewBox="0 0 16 16" fill="none" xmlns="http://www.w3.org/2000/svg">
<g clip-path="url(#clip0_477_2603)">
<path d="M15.9986 6.18671L15.0229 7.10049C14.7577 6.81107 14.4889 6.51666 14.2009 6.20093C14.0693 6.32253 13.9826 6.3972 13.9015 6.47755C12.9714 7.40626 12.0526 8.34422 11.1076 9.25942C10.9982 9.35369 10.9136 9.47329 10.8612 9.60779C10.8088 9.74229 10.7901 9.88758 10.8068 10.031C10.9198 11.6032 10.5223 13.029 9.50258 14.2528C9.25512 14.5501 8.96996 14.8153 8.70756 15.0905L5.312 11.6928C5.21458 11.7711 5.14773 11.8152 5.09227 11.8706C3.76012 13.2009 2.42916 14.5321 1.09938 15.8642C1.06158 15.9072 1.02689 15.9528 0.995556 16.0008H0.924444L0 15.0763V15.0052C0.506311 14.5074 1.01618 14.0196 1.51822 13.5204C2.44267 12.6031 3.35787 11.6815 4.29796 10.7421L0.893155 7.34653C2.17742 5.8532 3.7632 5.10866 5.6896 5.18973C6.22151 5.21177 6.58418 5.08235 6.94969 4.69195C7.85636 3.72769 8.8128 2.80964 9.76995 1.85249L8.85191 1.02618L9.81191 0.00146484H9.88303C9.91344 0.0499156 9.94743 0.096029 9.98471 0.139421C11.9426 2.09877 13.9013 4.05741 15.8606 6.01533C15.9039 6.05278 15.95 6.08678 15.9986 6.11702V6.18671ZM8.67414 13.108C9.45636 11.9915 9.61423 10.735 9.36036 9.41018C9.31983 9.19684 9.36036 9.08733 9.49831 8.95151C10.6411 7.81729 11.7739 6.67595 12.9223 5.54386C13.0112 5.4564 13.1541 5.42369 13.2245 5.38955L10.7029 2.85871C10.6318 2.92271 10.5493 3.00093 10.4668 3.08342C9.32907 4.2212 8.19129 5.36324 7.0464 6.49675C6.94281 6.59718 6.80585 6.65592 6.66169 6.66173C6.13333 6.64182 5.60427 6.53515 5.07947 6.5572C4.28902 6.58651 3.52647 6.85699 2.89422 7.33231L8.67414 13.108Z" fill="#373737"/>
<path d="M5.87268 5.89003C4.46499 5.50215 2.8825 6.55687 2.26721 7.13271L1.8125 7.58745L7.81416 13.4072L8.75382 13.771C8.95589 13.6901 9.43279 13.4376 9.72378 13.0738C10.0875 12.6191 10.1785 9.73956 10.2391 9.28489C10.2876 8.92115 12.7246 6.70842 13.9371 5.64752L10.5119 1.91895C9.55202 3.40426 7.28037 6.27792 5.87268 5.89003Z" fill="#373737"/>
</g>
<defs>
<clipPath id="clip0_477_2603">
<rect width="16" height="16" fill="white"/>
</clipPath>
</defs>
</svg>
