<svg width="41" height="41" viewBox="0 0 41 41" fill="none" xmlns="http://www.w3.org/2000/svg">
<g clip-path="url(#clip0_427_1931)">
<path d="M29.8295 29.2896L35.2311 33.822C36.9791 35.2868 38.7289 36.7497 40.551 38.2739L38.8531 40.4404C37.4758 39.3016 36.1542 38.2126 34.8381 37.1178C32.7212 35.3539 30.5951 33.6034 28.5023 31.8108C28.0241 31.4005 27.7163 31.3276 27.1658 31.736C16.9003 39.3342 2.95523 33.3427 0.786455 20.4241C-0.765053 11.181 5.51884 2.12187 14.4868 0.676252C25.4419 -1.09914 34.9048 7.93503 33.9706 19.3313C33.6944 22.7133 32.471 25.7618 30.4486 28.4479C30.2559 28.6856 30.0798 28.9406 29.8295 29.2896ZM17.3637 3.22431C9.69697 3.22431 3.30557 9.68742 3.27591 17.483C3.24255 25.6851 9.49493 32.2671 17.3248 32.2767C24.9414 32.2767 31.3959 25.6602 31.381 17.8531C31.3643 9.75069 25.1175 3.23006 17.3637 3.22431Z" fill="#405F83"/>
<path d="M14.4757 19.4329L10.1845 24.4676L8.08984 22.581L13.9845 15.6137L17.8771 18.2978L20.7429 15.1727L18.5704 13.7309L25.0582 11.4302L25.5049 18.1502L23.3639 16.881L18.0829 21.8659L14.4757 19.4329Z" fill="#405F83"/>
</g>
<defs>
<clipPath id="clip0_427_1931">
<rect width="40" height="40" fill="white" transform="translate(0.550781 0.44043)"/>
</clipPath>
</defs>
</svg>
