<svg width="75" height="75" viewBox="0 0 75 75" fill="none" xmlns="http://www.w3.org/2000/svg">
<rect x="0.679688" width="74.2573" height="74.2559" rx="10" fill="#E0D0FF"/>
<path d="M37.7773 18.1279H60.6505C61.6974 18.1279 62.4692 18.6556 62.7216 19.5621C62.7779 19.7621 62.8067 19.9688 62.8074 20.1766C62.8115 31.4881 62.8115 42.7992 62.8074 54.1099C62.8074 55.1942 62.0072 56.041 60.9279 56.1194C60.7864 56.1291 60.6437 56.1274 60.5022 56.1274H14.9296C13.6696 56.1274 12.8125 55.2885 12.8125 54.0378C12.8125 42.7539 12.8125 31.4712 12.8125 20.1897C12.8125 19.014 13.6406 18.1717 14.8193 18.1336C14.9898 18.1279 15.1603 18.1279 15.3308 18.1279H37.7773ZM37.8341 19.2798H14.9892C14.2743 19.2798 13.9549 19.5916 13.9549 20.2902C13.9549 31.4873 13.9549 42.6845 13.9549 53.8816C13.9549 54.6887 14.2436 54.9772 15.0455 54.9772H60.5062C60.6289 54.9772 60.7528 54.9772 60.875 54.971C61.2592 54.9414 61.557 54.6949 61.6309 54.3166C61.6602 54.1397 61.6718 53.9603 61.6656 53.781C61.6656 42.6407 61.6656 31.5004 61.6656 20.3601C61.6656 19.5717 61.3763 19.2809 60.5903 19.2809L37.8341 19.2798Z" fill="#4C347C" stroke="#4C347C"/>
<path d="M45.2826 51.0886H46.604V50.7251C46.604 49.1064 46.604 47.4878 46.604 45.8695C46.604 45.2027 46.932 44.8715 47.5958 44.8687C48.3445 44.8657 49.0928 44.8657 49.8407 44.8687C50.4562 44.8721 50.8069 45.2254 50.8109 45.8411C50.8139 47.4693 50.8139 49.0975 50.8109 50.7257V51.079H52.1271V50.7558C52.1271 48.1052 52.1271 45.4547 52.1271 42.8041C52.1271 42.1009 52.4454 41.7817 53.1501 41.7817C53.8549 41.7817 54.571 41.7817 55.2808 41.7817C56.0271 41.7817 56.3368 42.089 56.3368 42.8274C56.3368 45.4586 56.3368 48.0903 56.3368 50.7223V51.0977C56.6511 51.0977 56.9409 51.0977 57.2308 51.0977C57.6286 51.1006 57.8719 51.3135 57.877 51.6572C57.8827 52.0133 57.6332 52.2382 57.2217 52.2382C49.7015 52.2382 42.1805 52.2382 34.6587 52.2382C34.2473 52.2382 33.9972 52.011 34 51.6594C34 51.3187 34.2478 51.1028 34.6451 51.0988C34.9293 51.096 35.2134 51.0988 35.526 51.0988C35.5311 50.9853 35.5391 50.883 35.5391 50.7831C35.5391 49.6664 35.5391 48.5492 35.5391 47.432C35.5391 46.7754 35.8801 46.4414 36.5416 46.4397C37.2896 46.4397 38.0377 46.4397 38.786 46.4397C39.4083 46.4397 39.7442 46.7805 39.7459 47.4081C39.7459 48.5248 39.7459 49.6418 39.7459 50.7592V51.0812H41.0485C41.0554 50.9642 41.0679 50.8461 41.0679 50.728C41.0679 48.6363 41.0679 46.5444 41.0679 44.4524C41.0679 43.6385 41.3702 43.3391 42.1829 43.3386H44.229C44.9507 43.3386 45.2753 43.6572 45.2758 44.3717C45.2758 46.4922 45.2758 48.6126 45.2758 50.7331L45.2826 51.0886ZM53.2962 42.9421V51.0801H55.1751V42.9438L53.2962 42.9421ZM42.2528 44.5041V51.0761H44.1107V44.5041H42.2528ZM49.6469 51.0892V46.0421H47.7714V51.0892H49.6469ZM38.5837 51.0892V47.6012H36.7178V51.0886L38.5837 51.0892Z" fill="#4C347C"/>
<path d="M36.6648 31.7479C36.4659 37.0477 32.0828 41.1423 26.8007 40.9196C25.5485 40.8671 24.3192 40.5662 23.1843 40.0346C22.0495 39.5029 21.0317 38.7511 20.1902 37.8228C19.3487 36.8946 18.7003 35.8084 18.2826 34.6274C17.865 33.4464 17.6864 32.1942 17.7573 30.9437C18.0341 25.8779 22.3421 21.8055 27.664 22.0224C32.7325 22.2286 36.8535 26.6719 36.6648 31.7479ZM35.5179 31.4759C35.5042 26.8752 31.7714 23.1539 27.1758 23.1618C22.6036 23.1703 18.8781 26.9178 18.8889 31.4992C18.8997 36.0805 22.6541 39.8024 27.2565 39.786C31.7953 39.7695 35.5309 36.0095 35.5179 31.4759Z" fill="#4C347C"/>
<path d="M54.8205 37.3001C54.7484 37.4012 54.6586 37.5926 54.5119 37.7187C53.1627 38.8779 51.8032 40.0264 50.4472 41.1777C50.0215 41.5389 49.5947 41.9024 49.1701 42.262C48.8507 42.5306 48.6546 42.5431 48.2977 42.3233C46.6871 41.3293 45.0741 40.3399 43.472 39.3335C43.2526 39.196 43.1418 39.2363 42.9775 39.4016C41.3703 41.02 39.7587 42.634 38.1427 44.2436C37.9631 44.4237 37.7517 44.5657 37.5141 44.4515C37.3364 44.3596 37.1944 44.2111 37.1106 44.0295C37.006 43.7858 37.1725 43.5825 37.3476 43.4081C38.56 42.1991 39.7725 40.9891 40.9849 39.7782C41.534 39.2301 42.0807 38.6792 42.6331 38.1339C42.9531 37.817 43.1605 37.7965 43.5396 38.0305C45.1571 39.0302 46.7791 40.027 48.3887 41.0357C48.5938 41.1641 48.7194 41.1493 48.9002 40.9948C50.5177 39.6101 52.1448 38.2361 53.7657 36.8559C53.9572 36.6929 54.1522 36.581 54.4102 36.6691C54.6682 36.7571 54.7859 36.9377 54.8205 37.3001Z" fill="#4C347C" stroke="#4C347C"/>
<path d="M53.1719 32.0491C51.8363 32.0491 50.5007 32.0525 49.1651 32.0491C48.6536 32.0491 48.3609 31.6345 48.5661 31.2227C48.6798 30.9955 48.881 30.9041 49.1236 30.8995C49.4362 30.8933 49.7488 30.8955 50.0614 30.8955C52.3916 30.8955 54.7218 30.8955 57.0519 30.8955C57.1936 30.8921 57.3352 30.9056 57.4736 30.9359C57.7373 31.0001 57.8931 31.2346 57.8783 31.5101C57.8745 31.634 57.8281 31.7529 57.747 31.8467C57.6658 31.9405 57.5549 32.0035 57.4327 32.0253C57.3111 32.0441 57.188 32.0519 57.065 32.0485C55.7669 32.0493 54.4692 32.0495 53.1719 32.0491Z" fill="#4C347C" stroke="#4C347C"/>
<path d="M53.1947 28.0231H49.3027C49.2176 28.0258 49.1324 28.0239 49.0475 28.0174C48.7333 27.9839 48.5076 27.7533 48.5002 27.4642C48.4917 27.1569 48.7122 26.9195 49.0436 26.8815C49.1191 26.8745 49.195 26.8719 49.2709 26.8735H57.1395C57.5823 26.8735 57.8215 27.028 57.871 27.3461C57.9335 27.7397 57.6596 28.0214 57.2003 28.022C55.9693 28.0242 54.7379 28.0242 53.5061 28.022L53.1947 28.0231Z" fill="#4C347C" stroke="#4C347C"/>
<path d="M24.7414 48.2093C23.3871 48.2093 22.0327 48.2093 20.6784 48.2093C20.3681 48.2093 20.1481 48.0389 20.0879 47.7793C20.0546 47.6493 20.0689 47.5117 20.1283 47.3914C20.1878 47.271 20.2883 47.176 20.4118 47.1233C20.5087 47.0865 20.6117 47.0687 20.7153 47.071C23.4055 47.0688 26.0956 47.0688 28.7857 47.071C29.1938 47.071 29.4552 47.3022 29.4524 47.6458C29.4495 47.9895 29.1784 48.2138 28.7772 48.2138C27.4317 48.2119 26.0865 48.2104 24.7414 48.2093Z" fill="#4C347C" stroke="#4C347C"/>
<path d="M53.1809 22.8565C54.5165 22.8565 55.8521 22.8565 57.1871 22.8565C57.4389 22.8565 57.6594 22.9008 57.798 23.1336C57.8425 23.2067 57.8697 23.289 57.8775 23.3742C57.8853 23.4593 57.8736 23.5451 57.8432 23.6251C57.8129 23.7051 57.7647 23.7771 57.7023 23.8356C57.6399 23.8941 57.565 23.9377 57.4832 23.9629C57.3645 23.9938 57.2419 24.0068 57.1194 24.0015C54.5146 24.0015 51.9101 24.0015 49.306 24.0015C49.2491 24.0015 49.1923 24.0015 49.1355 24.0015C48.7535 23.989 48.4955 23.7527 48.5001 23.4199C48.5046 23.0791 48.7535 22.8587 49.1463 22.8587C50.4909 22.8561 51.8358 22.8553 53.1809 22.8565Z" fill="#4C347C" stroke="#4C347C"/>
<path d="M24.7561 51.0973C26.1202 51.0973 27.4842 51.0973 28.8482 51.0973C29.1642 51.0973 29.383 51.2785 29.4415 51.5619C29.466 51.6889 29.4459 51.8204 29.3846 51.9342C29.3233 52.048 29.2246 52.1372 29.1051 52.1867C29.0085 52.2228 28.9058 52.2398 28.8027 52.2367C26.1126 52.2393 23.4225 52.2393 20.7323 52.2367C20.3226 52.2367 20.0742 52.0095 20.0782 51.6568C20.0822 51.3041 20.326 51.0968 20.7499 51.0962C22.0852 51.0962 23.4206 51.0966 24.7561 51.0973Z" fill="#4C347C" stroke="#4C347C"/>
<path d="M18.887 51.6517C18.8882 51.7274 18.8744 51.8027 18.8465 51.8731C18.8186 51.9435 18.777 52.0078 18.7243 52.0622C18.6715 52.1166 18.6085 52.16 18.5389 52.1901C18.4693 52.2201 18.3944 52.2361 18.3186 52.2372C18.2433 52.2383 18.1686 52.2244 18.0987 52.1963C18.0288 52.1682 17.9652 52.1266 17.9116 52.0737C17.858 52.0209 17.8154 51.9579 17.7863 51.8885C17.7573 51.819 17.7423 51.7445 17.7423 51.6693C17.7407 51.5959 17.7536 51.5229 17.7803 51.4546C17.807 51.3862 17.8471 51.3238 17.8981 51.271C17.949 51.2182 18.01 51.176 18.0774 51.1469C18.1448 51.1177 18.2173 51.1022 18.2908 51.1013C18.3663 51.0975 18.4417 51.1089 18.5128 51.1347C18.5838 51.1604 18.649 51.2001 18.7045 51.2513C18.76 51.3026 18.8048 51.3644 18.8361 51.4331C18.8674 51.5019 18.8847 51.5762 18.887 51.6517Z" fill="#4C347C" stroke="#4C347C"/>
<path d="M18.3148 47.0674C18.4671 47.0693 18.6125 47.1312 18.7196 47.2395C18.8266 47.3478 18.8866 47.4939 18.8866 47.6462C18.8844 47.7579 18.8494 47.8665 18.7858 47.9584C18.7222 48.0503 18.633 48.1214 18.5291 48.1628C18.4253 48.2043 18.3116 48.2142 18.2021 48.1913C18.0927 48.1685 17.9924 48.1139 17.9139 48.0344C17.8353 47.9549 17.782 47.854 17.7606 47.7443C17.7391 47.6347 17.7505 47.5211 17.7933 47.4179C17.8361 47.3147 17.9084 47.2264 18.0012 47.1641C18.0939 47.1017 18.203 47.0681 18.3148 47.0674Z" fill="#4C347C" stroke="#4C347C"/>
<path d="M46.7522 22.8567C46.8278 22.8553 46.903 22.8693 46.973 22.8981C47.043 22.9268 47.1063 22.9696 47.1591 23.0238C47.2118 23.078 47.2529 23.1425 47.2797 23.2132C47.3065 23.2839 47.3184 23.3594 47.3148 23.4349C47.3135 23.5829 47.2545 23.7246 47.1502 23.8297C47.046 23.9348 46.9048 23.9952 46.7567 23.9978C46.604 23.9958 46.4579 23.935 46.349 23.828C46.24 23.721 46.1766 23.5762 46.1719 23.4236C46.1712 23.3478 46.1858 23.2727 46.2149 23.2028C46.2439 23.1328 46.2868 23.0694 46.3411 23.0165C46.3953 22.9635 46.4596 22.9221 46.5303 22.8946C46.6009 22.8672 46.6764 22.8543 46.7522 22.8567Z" fill="#4C347C" stroke="#4C347C"/>
<path d="M47.3142 27.4734C47.3088 27.6206 47.2466 27.76 47.1407 27.8625C47.0348 27.9649 46.8933 28.0225 46.7459 28.0232C46.5928 28.0197 46.447 27.9567 46.3398 27.8474C46.2325 27.7381 46.1723 27.5912 46.1719 27.4381C46.1765 27.2855 46.2414 27.1409 46.3523 27.036C46.4633 26.9311 46.6114 26.8743 46.7641 26.8781C46.84 26.879 46.9149 26.8954 46.9842 26.9262C47.0536 26.957 47.1159 27.0017 47.1674 27.0574C47.2189 27.1131 47.2584 27.1787 47.2837 27.2502C47.3089 27.3218 47.3193 27.3977 47.3142 27.4734Z" fill="#4C347C" stroke="#4C347C"/>
<path d="M46.1719 31.4799C46.1735 31.3276 46.2346 31.1821 46.3422 31.0742C46.4498 30.9664 46.5953 30.9049 46.7476 30.9028C46.8232 30.9033 46.898 30.9188 46.9676 30.9484C47.0373 30.978 47.1003 31.0211 47.1532 31.0752C47.206 31.1292 47.2476 31.1933 47.2755 31.2635C47.3035 31.3338 47.3172 31.4089 47.3159 31.4844C47.316 31.6322 47.2577 31.7739 47.1539 31.8791C47.0501 31.9842 46.909 32.0442 46.7612 32.0462C46.608 32.0489 46.46 31.9909 46.3495 31.8847C46.239 31.7786 46.1752 31.633 46.1719 31.4799Z" fill="#4C347C" stroke="#4C347C"/>
<path d="M27.178 38.3019C23.3452 38.2536 20.3239 35.178 20.3677 31.3652C20.4103 27.6381 23.5401 24.5943 27.2803 24.6432C31.0206 24.692 34.0765 27.792 34.0299 31.4964C33.9816 35.295 30.908 38.3485 27.178 38.3019ZM26.6097 25.8507C25.0087 25.9257 22.7638 27.0883 21.8624 29.5198C21.0832 31.6213 21.7254 33.8932 22.82 35.0218C22.8479 34.9985 22.8769 34.9764 22.9036 34.9508C24.1016 33.7547 25.2978 32.5564 26.4921 31.3561C26.5736 31.2586 26.6183 31.1356 26.6182 31.0085C26.6256 29.3721 26.6228 27.7358 26.6216 26.1C26.6222 26.0182 26.6143 25.9336 26.6103 25.8507H26.6097ZM32.8654 32.0717C32.7597 32.0598 32.7136 32.0502 32.6676 32.0502C30.9825 32.0502 29.2974 32.0456 27.6094 32.057C27.4884 32.057 27.3417 32.1439 27.2502 32.2342C26.0806 33.3921 24.9155 34.5553 23.7549 35.7238C23.7112 35.7676 23.6771 35.8204 23.6174 35.8942C25.3849 37.2006 27.2872 37.5414 29.3093 36.7275C31.3803 35.8959 32.5136 34.2903 32.866 32.0717H32.8654ZM32.8188 30.879C32.6835 28.364 30.3749 25.9853 27.7867 25.8575V30.879H32.8188Z" fill="#4C347C" stroke="#4C347C"/>
</svg>
