<svg width="75" height="75" viewBox="0 0 75 75" fill="none" xmlns="http://www.w3.org/2000/svg">
<rect x="0.421875" y="0.3125" width="74.2573" height="74.2559" rx="10" fill="#D0E6FF"/>
<g clip-path="url(#clip0_1392_1585)">
<path d="M46.8256 46.2896L52.2271 50.822C53.9751 52.2868 55.725 53.7497 57.5471 55.2739L55.8492 57.4404C54.4719 56.3016 53.1503 55.2126 51.8342 54.1178C49.7173 52.3539 47.5912 50.6034 45.4984 48.8108C45.0201 48.4005 44.7124 48.3276 44.1619 48.736C33.8964 56.3342 19.9513 50.3427 17.7825 37.4241C16.231 28.181 22.5149 19.1219 31.4829 17.6763C42.438 15.9009 51.9009 24.935 50.9667 36.3313C50.6905 39.7133 49.4671 42.7618 47.4447 45.4479C47.2519 45.6856 47.0758 45.9406 46.8256 46.2896ZM34.3598 20.2243C26.6931 20.2243 20.3017 26.6874 20.272 34.483C20.2386 42.6851 26.491 49.2671 34.3209 49.2767C41.9375 49.2767 48.3919 42.6602 48.3771 34.8531C48.3604 26.7507 42.1136 20.2301 34.3598 20.2243Z" fill="#405F83"/>
<path d="M31.4718 36.4329L27.1806 41.4676L25.0859 39.581L30.9806 32.6137L34.8732 35.2978L37.739 32.1727L35.5665 30.7309L42.0543 28.4302L42.501 35.1502L40.36 33.881L35.079 38.8659L31.4718 36.4329Z" fill="#405F83"/>
</g>
<defs>
<clipPath id="clip0_1392_1585">
<rect width="40" height="40" fill="white" transform="translate(17.5469 17.4404)"/>
</clipPath>
</defs>
</svg>
