<svg width="52" height="40" viewBox="0 0 52 40" fill="none" xmlns="http://www.w3.org/2000/svg">
<path d="M25.7734 1.12793H48.6466C49.6935 1.12793 50.4653 1.65558 50.7177 2.56207C50.7739 2.7621 50.8028 2.96884 50.8035 3.17663C50.8076 14.4881 50.8076 25.7992 50.8035 37.1099C50.8035 38.1942 50.0033 39.041 48.924 39.1194C48.7825 39.1291 48.6398 39.1274 48.4983 39.1274H2.92565C1.66565 39.1274 0.808594 38.2885 0.808594 37.0378C0.808594 25.7539 0.808594 14.4712 0.808594 3.18969C0.808594 2.01398 1.63666 1.17166 2.81539 1.13361C2.98589 1.12793 3.15639 1.12793 3.32689 1.12793H25.7734ZM25.8302 2.27979H2.98532C2.27035 2.27979 1.95095 2.59161 1.95095 3.29022C1.95095 14.4873 1.95095 25.6845 1.95095 36.8816C1.95095 37.6887 2.23966 37.9772 3.04158 37.9772H48.5023C48.625 37.9772 48.7489 37.9772 48.8711 37.971C49.2553 37.9414 49.5531 37.6949 49.627 37.3166C49.6563 37.1397 49.6679 36.9603 49.6617 36.781C49.6617 25.6407 49.6617 14.5004 49.6617 3.36008C49.6617 2.57173 49.3724 2.28093 48.5864 2.28093L25.8302 2.27979Z" fill="#4C347C" stroke="#4C347C"/>
<path d="M33.2787 34.0886H34.6001V33.7251C34.6001 32.1064 34.6001 30.4878 34.6001 28.8695C34.6001 28.2027 34.9281 27.8715 35.5919 27.8687C36.3406 27.8657 37.0889 27.8657 37.8368 27.8687C38.4523 27.8721 38.803 28.2254 38.807 28.8411C38.81 30.4693 38.81 32.0975 38.807 33.7257V34.079H40.1232V33.7558C40.1232 31.1052 40.1232 28.4547 40.1232 25.8041C40.1232 25.1009 40.4415 24.7817 41.1462 24.7817C41.851 24.7817 42.5671 24.7817 43.2769 24.7817C44.0232 24.7817 44.3329 25.089 44.3329 25.8274C44.3329 28.4586 44.3329 31.0903 44.3329 33.7223V34.0977C44.6472 34.0977 44.937 34.0977 45.2269 34.0977C45.6247 34.1006 45.868 34.3135 45.8731 34.6572C45.8788 35.0133 45.6293 35.2382 45.2178 35.2382C37.6976 35.2382 30.1766 35.2382 22.6548 35.2382C22.2433 35.2382 21.9933 35.011 21.9961 34.6594C21.9961 34.3187 22.2439 34.1028 22.6412 34.0988C22.9254 34.096 23.2095 34.0988 23.5221 34.0988C23.5272 33.9853 23.5352 33.883 23.5352 33.7831C23.5352 32.6664 23.5352 31.5492 23.5352 30.432C23.5352 29.7754 23.8762 29.4414 24.5377 29.4397C25.2857 29.4397 26.0338 29.4397 26.7821 29.4397C27.4044 29.4397 27.7403 29.7805 27.742 30.4081C27.742 31.5248 27.742 32.6418 27.742 33.7592V34.0812H29.0446C29.0515 33.9642 29.064 33.8461 29.064 33.728C29.064 31.6363 29.064 29.5444 29.064 27.4524C29.064 26.6385 29.3663 26.3391 30.179 26.3386H32.225C32.9468 26.3386 33.2714 26.6572 33.2719 27.3717C33.2719 29.4922 33.2719 31.6126 33.2719 33.7331L33.2787 34.0886ZM41.2923 25.9421V34.0801H43.1712V25.9438L41.2923 25.9421ZM30.2489 27.5041V34.0761H32.1068V27.5041H30.2489ZM37.643 34.0892V29.0421H35.7675V34.0892H37.643ZM26.5798 34.0892V30.6012H24.7139V34.0886L26.5798 34.0892Z" fill="#4C347C"/>
<path d="M24.6609 14.7479C24.462 20.0477 20.0789 24.1423 14.7968 23.9196C13.5446 23.8671 12.3153 23.5662 11.1804 23.0346C10.0456 22.5029 9.02779 21.7511 8.18629 20.8228C7.3448 19.8946 6.69637 18.8084 6.27871 17.6274C5.86105 16.4464 5.6825 15.1942 5.75344 13.9437C6.03022 8.87788 10.3382 4.80548 15.6601 5.02245C20.7286 5.22862 24.8496 9.67191 24.6609 14.7479ZM23.514 14.4759C23.5003 9.87525 19.7675 6.15386 15.1719 6.16181C10.5996 6.17033 6.8742 9.91785 6.885 14.4992C6.8958 19.0805 10.6502 22.8024 15.2526 22.786C19.7914 22.7695 23.527 19.0095 23.514 14.4759Z" fill="#4C347C"/>
<path d="M42.8127 20.3001C42.7405 20.4012 42.6507 20.5926 42.5041 20.7187C41.1549 21.8779 39.7954 23.0264 38.4394 24.1777C38.0137 24.5389 37.5869 24.9024 37.1623 25.262C36.8429 25.5306 36.6468 25.5431 36.2899 25.3233C34.6793 24.3293 33.0663 23.3399 31.4642 22.3335C31.2448 22.196 31.134 22.2363 30.9697 22.4016C29.3625 24.02 27.7509 25.634 26.1349 27.2436C25.9553 27.4237 25.7439 27.5657 25.5063 27.4515C25.3286 27.3596 25.1866 27.2111 25.1028 27.0295C24.9982 26.7858 25.1647 26.5825 25.3398 26.4081C26.5522 25.1991 27.7647 23.9891 28.9771 22.7782C29.5261 22.2301 30.0729 21.6792 30.6253 21.1339C30.9453 20.817 31.1527 20.7965 31.5318 21.0305C33.1493 22.0302 34.7713 23.027 36.3809 24.0357C36.586 24.1641 36.7116 24.1493 36.8924 23.9948C38.5098 22.6101 40.137 21.2361 41.7579 19.8559C41.9494 19.6929 42.1444 19.581 42.4024 19.6691C42.6604 19.7571 42.7781 19.9377 42.8127 20.3001Z" fill="#4C347C" stroke="#4C347C"/>
<path d="M41.168 15.0491C39.8324 15.0491 38.4968 15.0525 37.1612 15.0491C36.6497 15.0491 36.357 14.6345 36.5622 14.2227C36.6759 13.9955 36.877 13.9041 37.1197 13.8995C37.4323 13.8933 37.7449 13.8955 38.0575 13.8955C40.3877 13.8955 42.7178 13.8955 45.048 13.8955C45.1897 13.8921 45.3313 13.9056 45.4697 13.9359C45.7334 14.0001 45.8892 14.2346 45.8744 14.5101C45.8706 14.634 45.8242 14.7529 45.7431 14.8467C45.6619 14.9405 45.551 15.0035 45.4288 15.0253C45.3072 15.0441 45.1841 15.0519 45.0611 15.0485C43.763 15.0493 42.4653 15.0495 41.168 15.0491Z" fill="#4C347C" stroke="#4C347C"/>
<path d="M41.1947 11.0231H37.3027C37.2176 11.0258 37.1324 11.0239 37.0475 11.0174C36.7333 10.9839 36.5076 10.7533 36.5002 10.4642C36.4917 10.1569 36.7122 9.91952 37.0436 9.88147C37.1191 9.87453 37.195 9.87188 37.2709 9.87352H45.1395C45.5823 9.87352 45.8215 10.028 45.871 10.3461C45.9335 10.7397 45.6596 11.0214 45.2003 11.022C43.9693 11.0242 42.7379 11.0242 41.5061 11.022L41.1947 11.0231Z" fill="#4C347C" stroke="#4C347C"/>
<path d="M12.7375 31.2093C11.3832 31.2093 10.0288 31.2093 8.67448 31.2093C8.36417 31.2093 8.14422 31.0389 8.08398 30.7793C8.05067 30.6493 8.06502 30.5117 8.12444 30.3914C8.18386 30.271 8.28442 30.176 8.40792 30.1233C8.50477 30.0865 8.60783 30.0687 8.71142 30.071C11.4015 30.0688 14.0917 30.0688 16.7818 30.071C17.1899 30.071 17.4513 30.3022 17.4485 30.6458C17.4456 30.9895 17.1745 31.2138 16.7733 31.2138C15.4278 31.2119 14.0826 31.2104 12.7375 31.2093Z" fill="#4C347C" stroke="#4C347C"/>
<path d="M41.1809 5.85647C42.5165 5.85647 43.8521 5.85647 45.1871 5.85647C45.4389 5.85647 45.6594 5.90077 45.798 6.13364C45.8425 6.20673 45.8697 6.28899 45.8775 6.37415C45.8853 6.45932 45.8736 6.54514 45.8432 6.62511C45.8129 6.70507 45.7647 6.77705 45.7023 6.83559C45.6399 6.89412 45.565 6.93766 45.4832 6.96289C45.3645 6.99377 45.2419 7.00679 45.1194 7.00151C42.5146 7.00151 39.9101 7.00151 37.306 7.00151C37.2491 7.00151 37.1923 7.00151 37.1355 7.00151C36.7535 6.98902 36.4955 6.75274 36.5001 6.4199C36.5046 6.07912 36.7535 5.85874 37.1463 5.85874C38.4909 5.85609 39.8358 5.85533 41.1809 5.85647Z" fill="#4C347C" stroke="#4C347C"/>
<path d="M12.7483 34.0973C14.1123 34.0973 15.4764 34.0973 16.8404 34.0973C17.1564 34.0973 17.3752 34.2785 17.4337 34.5619C17.4582 34.6889 17.4381 34.8204 17.3768 34.9342C17.3155 35.048 17.2168 35.1372 17.0973 35.1867C17.0007 35.2228 16.898 35.2398 16.7949 35.2367C14.1048 35.2393 11.4146 35.2393 8.72452 35.2367C8.31474 35.2367 8.06638 35.0095 8.07036 34.6568C8.07434 34.3041 8.31815 34.0968 8.74213 34.0962C10.0773 34.0962 11.4127 34.0966 12.7483 34.0973Z" fill="#4C347C" stroke="#4C347C"/>
<path d="M6.88305 34.6517C6.88426 34.7274 6.87051 34.8027 6.84259 34.8731C6.81467 34.9435 6.77313 35.0078 6.72034 35.0622C6.66756 35.1166 6.60457 35.16 6.53497 35.1901C6.46537 35.2201 6.39052 35.2361 6.31472 35.2372C6.23942 35.2383 6.16465 35.2244 6.09478 35.1963C6.0249 35.1682 5.96131 35.1266 5.90769 35.0737C5.85407 35.0209 5.81149 34.9579 5.78244 34.8885C5.75338 34.819 5.73842 34.7445 5.73842 34.6693C5.73676 34.5959 5.74967 34.5229 5.7764 34.4546C5.80313 34.3862 5.84315 34.3238 5.89415 34.271C5.94514 34.2182 6.00611 34.176 6.07351 34.1469C6.14092 34.1177 6.21344 34.1022 6.28687 34.1013C6.36235 34.0975 6.43782 34.1089 6.50886 34.1347C6.5799 34.1604 6.64509 34.2001 6.70061 34.2513C6.75612 34.3026 6.80085 34.3644 6.83218 34.4331C6.86351 34.5019 6.8808 34.5762 6.88305 34.6517Z" fill="#4C347C" stroke="#4C347C"/>
<path d="M6.30701 30.0674C6.45933 30.0693 6.60474 30.1312 6.71175 30.2395C6.81877 30.3478 6.87877 30.4939 6.87876 30.6462C6.87663 30.7579 6.84159 30.8665 6.77801 30.9584C6.71443 31.0503 6.62514 31.1214 6.52132 31.1628C6.4175 31.2043 6.30375 31.2142 6.19432 31.1913C6.08488 31.1685 5.98462 31.1139 5.90608 31.0344C5.82753 30.9549 5.7742 30.854 5.75275 30.7443C5.7313 30.6347 5.74268 30.5211 5.78548 30.4179C5.82827 30.3147 5.90057 30.2264 5.99334 30.1641C6.08611 30.1017 6.19522 30.0681 6.30701 30.0674Z" fill="#4C347C" stroke="#4C347C"/>
<path d="M34.7483 5.85674C34.8239 5.85525 34.8991 5.86932 34.9691 5.89806C35.0391 5.9268 35.1024 5.9696 35.1552 6.02381C35.2079 6.07803 35.249 6.14249 35.2758 6.21322C35.3025 6.28394 35.3145 6.35941 35.3109 6.43494C35.3096 6.58294 35.2505 6.72458 35.1463 6.82971C35.0421 6.93484 34.9009 6.99515 34.7528 6.99781C34.6001 6.99583 34.454 6.93501 34.3451 6.82803C34.2361 6.72104 34.1727 6.57616 34.168 6.42358C34.1673 6.34783 34.1819 6.27272 34.2109 6.20275C34.24 6.13279 34.2829 6.06943 34.3371 6.01647C34.3914 5.96352 34.4557 5.92207 34.5264 5.89462C34.597 5.86717 34.6725 5.85429 34.7483 5.85674Z" fill="#4C347C" stroke="#4C347C"/>
<path d="M35.3103 10.4734C35.3049 10.6206 35.2427 10.76 35.1368 10.8625C35.0309 10.9649 34.8894 11.0225 34.742 11.0232C34.5889 11.0197 34.4431 10.9567 34.3359 10.8474C34.2286 10.7381 34.1684 10.5912 34.168 10.4381C34.1726 10.2855 34.2375 10.1409 34.3484 10.036C34.4594 9.93105 34.6074 9.87429 34.7602 9.87811C34.8361 9.87902 34.911 9.89539 34.9803 9.92621C35.0496 9.95703 35.112 10.0017 35.1635 10.0574C35.215 10.1131 35.2545 10.1787 35.2798 10.2502C35.305 10.3218 35.3154 10.3977 35.3103 10.4734Z" fill="#4C347C" stroke="#4C347C"/>
<path d="M34.168 14.4799C34.1696 14.3276 34.2307 14.1821 34.3383 14.0742C34.4459 13.9664 34.5914 13.9049 34.7437 13.9028C34.8193 13.9033 34.8941 13.9188 34.9637 13.9484C35.0333 13.978 35.0964 14.0211 35.1493 14.0752C35.2021 14.1292 35.2437 14.1933 35.2716 14.2635C35.2996 14.3338 35.3133 14.4089 35.312 14.4844C35.312 14.6322 35.2538 14.7739 35.15 14.8791C35.0462 14.9842 34.9051 15.0442 34.7573 15.0462C34.6041 15.0489 34.4561 14.9909 34.3456 14.8847C34.2351 14.7786 34.1713 14.633 34.168 14.4799Z" fill="#4C347C" stroke="#4C347C"/>
<path d="M15.1741 21.3019C11.3413 21.2536 8.31999 18.178 8.36375 14.3652C8.40638 10.6381 11.5362 7.59431 15.2764 7.64316C19.0167 7.692 22.0726 10.792 22.026 14.4964C21.9777 18.295 18.9041 21.3485 15.1741 21.3019ZM14.6058 8.85068C13.0048 8.92565 10.7599 10.0883 9.85848 12.5198C9.07929 14.6213 9.72151 16.8932 10.8161 18.0218C10.844 17.9985 10.873 17.9764 10.8997 17.9508C12.0977 16.7547 13.2939 15.5564 14.4881 14.3561C14.5697 14.2586 14.6144 14.1356 14.6143 14.0085C14.6217 12.3721 14.6189 10.7358 14.6177 9.10002C14.6183 9.01823 14.6103 8.9336 14.6064 8.85068H14.6058ZM20.8615 15.0717C20.7558 15.0598 20.7097 15.0502 20.6637 15.0502C18.9786 15.0502 17.2935 15.0456 15.6055 15.057C15.4844 15.057 15.3378 15.1439 15.2463 15.2342C14.0767 16.3921 12.9116 17.5553 11.751 18.7238C11.7073 18.7676 11.6732 18.8204 11.6135 18.8942C13.381 20.2006 15.2833 20.5414 17.3054 19.7275C19.3764 18.8959 20.5097 17.2903 20.862 15.0717H20.8615ZM20.8149 13.879C20.6796 11.364 18.371 8.98529 15.7828 8.85749V13.879H20.8149Z" fill="#4C347C" stroke="#4C347C"/>
</svg>
