<svg width="29" height="26" viewBox="0 0 29 26" fill="none" xmlns="http://www.w3.org/2000/svg">
<g clip-path="url(#clip0_427_2009)">
<path d="M11.1749 16.8955C10.3349 15.6469 9.95852 14.3073 10.0275 12.837C10.1097 11.0907 10.7941 9.63871 11.9771 8.41383C13.9018 6.42129 15.778 4.37676 17.7173 2.40028C19.4699 0.614949 21.5836 0.106493 23.884 0.900144C26.2237 1.70985 27.6138 3.49977 27.9858 6.05734C28.2764 8.05447 27.7547 9.86809 26.4076 11.3285C24.4094 13.4938 22.3712 15.6186 20.3287 17.7381C19.1138 18.9997 17.4375 19.6427 15.8397 19.515C15.9124 19.4225 15.9596 19.346 16.0192 19.2803C16.5445 18.6984 17.0946 18.1403 17.5901 17.5332C18.1642 16.8305 18.5347 16.004 18.8014 15.1186C18.8701 14.8919 18.9872 14.6848 19.1436 14.513C20.8047 12.7476 22.486 11.0043 24.142 9.23348C24.5265 8.83247 24.8025 8.33086 24.9416 7.78029C25.0807 7.22973 25.0778 6.65011 24.9333 6.10111C24.7887 5.55211 24.5077 5.05357 24.1192 4.65682C23.7307 4.26006 23.2487 3.97944 22.7229 3.84384C21.601 3.538 20.6063 3.84384 19.7896 4.69789C17.8544 6.71235 15.9291 8.73725 14.0137 10.7726C13.0493 11.7921 12.7964 12.9846 13.2552 14.3502C13.2929 14.4625 13.2748 14.6606 13.2036 14.7386C12.5489 15.455 11.8782 16.1531 11.1749 16.8955Z" fill="#373737"/>
<path d="M16.9279 9.16124C17.556 10.0339 17.9457 11.0706 18.0549 12.1592C18.2729 14.3001 17.6255 16.1107 16.173 17.6246C14.2293 19.6507 12.3314 21.7274 10.3601 23.7199C8.64675 25.4479 6.573 25.9487 4.31614 25.1964C2.04112 24.4379 0.639484 22.755 0.188984 20.2823C-0.211379 18.0902 0.374997 16.1665 1.86019 14.5792C3.83222 12.4745 5.81829 10.3846 7.81841 8.30948C9.03476 7.05172 10.5309 6.49968 12.3278 6.53638C12.1824 6.69847 12.0909 6.80399 11.995 6.90492C11.1957 7.75285 10.3383 8.55568 9.83185 9.65746C9.67418 10 9.50051 10.3456 9.41041 10.7088C9.29416 11.1752 9.03985 11.5131 8.72522 11.8411C7.12668 13.5103 5.52159 15.1733 3.95211 16.8722C3.58954 17.2593 3.32684 17.7374 3.1889 18.2611C3.05096 18.7849 3.04233 19.3371 3.16384 19.8653C3.28534 20.3936 3.53296 20.8805 3.88325 21.2799C4.23353 21.6793 4.67489 21.9781 5.16555 22.1479C6.34993 22.5715 7.42895 22.3008 8.31251 21.3833C10.3049 19.3189 12.2803 17.2366 14.2387 15.1366C15.1107 14.1992 15.3025 13.0462 14.8804 11.8113C14.7859 11.5323 14.8346 11.3832 15.0199 11.1912C15.6615 10.5375 16.2769 9.85932 16.9279 9.16124Z" fill="#373737"/>
</g>
<defs>
<clipPath id="clip0_427_2009">
<rect width="28" height="25" fill="white" transform="translate(0.0625 0.535645)"/>
</clipPath>
</defs>
</svg>
