<svg width="30" height="26" viewBox="0 0 30 26" fill="none" xmlns="http://www.w3.org/2000/svg">
<g clip-path="url(#clip0_427_1997)">
<path d="M0.289062 10.901C0.32426 5.64709 4.17533 1.28822 9.09786 0.788342C14.4148 0.24802 19.0578 3.63826 20.0848 8.85895C20.5149 10.9608 20.2272 13.1465 19.268 15.0649C19.0672 15.4724 19.1552 15.6425 19.4844 15.8945C22.4928 18.1761 25.4898 20.4757 28.4754 22.7932C28.8085 23.0562 29.0634 23.4056 29.2125 23.8034C29.4402 24.4443 29.1338 25.1091 28.581 25.47C28.0106 25.8423 27.3387 25.8267 26.7476 25.3797C25.056 24.0979 23.3768 22.8015 21.6915 21.5124C20.3084 20.4536 18.9181 19.404 17.5443 18.3307C17.2534 18.1035 17.0743 18.0776 16.7638 18.3307C13.7906 20.774 10.4375 21.4419 6.83484 20.1124C3.14838 18.7476 1.03754 15.9817 0.385338 12.0998C0.311837 11.658 0.311838 11.2028 0.289062 10.901ZM10.248 18.9363C11.3241 18.941 12.3905 18.7328 13.3861 18.3238C14.3818 17.9148 15.2871 17.313 16.0501 16.5528C16.8131 15.7927 17.4189 14.8891 17.8327 13.894C18.2465 12.8989 18.4602 11.8317 18.4616 10.7537C18.4651 9.67552 18.2562 8.60724 17.8468 7.61011C17.4373 6.61297 16.8355 5.7066 16.0757 4.94295C15.3159 4.17931 14.4132 3.57341 13.4192 3.15998C12.4252 2.74656 11.3595 2.53375 10.2832 2.53376C8.11919 2.53209 6.04271 3.38971 4.50864 4.91875C2.97457 6.44779 2.10796 8.5236 2.09865 10.6915C2.09037 15.2474 5.73232 18.9332 10.248 18.9363Z" fill="#373737"/>
</g>
<defs>
<clipPath id="clip0_427_1997">
<rect width="29" height="25" fill="white" transform="translate(0.289062 0.732422)"/>
</clipPath>
</defs>
</svg>
