<svg width="34" height="34" viewBox="0 0 34 34" fill="none" xmlns="http://www.w3.org/2000/svg">
<g clip-path="url(#clip0_427_1983)">
<path d="M27.5329 5.01168L32.7051 10.6316L29.9079 13.2059L27.3235 10.3979L25.3793 12.1872L27.9497 14.98L25.101 17.6018L22.5446 14.8241L17.7169 19.2672C17.9385 20.2165 18.2768 21.1685 18.3701 22.1541C18.5218 23.7739 18.1385 25.4078 17.2786 26.8073C16.4188 28.2067 15.1293 29.2952 13.6066 29.9069C10.4948 31.1542 6.90307 30.2278 4.94619 27.6774C2.8233 24.9079 2.76279 21.279 4.79201 18.5038C5.84592 17.0695 7.36594 16.0434 9.08511 15.6057C10.8043 15.1679 12.6126 15.3465 14.1926 16.1101C14.8944 16.4538 15.2655 16.3321 15.807 15.8267C19.4531 12.4243 23.1394 9.05516 26.8049 5.68164L27.5329 5.01168ZM8.4534 20.1989C8.08348 20.519 7.78056 20.909 7.56265 21.3457C7.34474 21.7824 7.21629 22.257 7.18495 22.7411C7.15361 23.2253 7.22002 23.7091 7.38023 24.1638C7.54043 24.6186 7.79116 25.0349 8.11749 25.3881C8.43388 25.7506 8.82124 26.0446 9.25647 26.2524C9.6917 26.4603 10.1659 26.5778 10.6507 26.5979C11.1356 26.618 11.6212 26.5403 12.0786 26.3694C12.536 26.1986 12.9559 25.9381 13.3131 25.6034C13.6725 25.2829 13.9662 24.8958 14.1776 24.4643C14.3889 24.0328 14.5137 23.5654 14.5447 23.0888C14.5758 22.6122 14.5125 22.1357 14.3585 21.6867C14.2045 21.2376 13.9629 20.8249 13.6473 20.4719C12.2593 18.9327 9.99275 18.8126 8.4534 20.1989Z" fill="#373737"/>
</g>
<defs>
<clipPath id="clip0_427_1983">
<rect width="32" height="15" fill="white" transform="translate(0.183594 22.5488) rotate(-42.6243)"/>
</clipPath>
</defs>
</svg>
