<svg width="18" height="18" viewBox="0 0 18 18" fill="none" xmlns="http://www.w3.org/2000/svg">
<path d="M8.64844 16.65C13.0667 16.65 16.6484 13.0683 16.6484 8.65002C16.6484 4.23175 13.0667 0.650024 8.64844 0.650024C4.23016 0.650024 0.648438 4.23175 0.648438 8.65002C0.648438 13.0683 4.23016 16.65 8.64844 16.65Z" stroke="#6E6E6E" stroke-width="1.3" stroke-miterlimit="10"/>
<path d="M1.10156 5.98334H16.1903" stroke="#6E6E6E" stroke-width="1.3" stroke-linecap="round" stroke-linejoin="round"/>
<path d="M1.10156 11.3167H16.1901" stroke="#6E6E6E" stroke-width="1.3" stroke-linecap="round" stroke-linejoin="round"/>
<path d="M8.64583 16.4352C10.4868 16.4352 11.9792 12.9496 11.9792 8.64993C11.9792 4.35026 10.4868 0.864685 8.64583 0.864685C6.80488 0.864685 5.3125 4.35026 5.3125 8.64993C5.3125 12.9496 6.80488 16.4352 8.64583 16.4352Z" stroke="#6E6E6E" stroke-width="1.3" stroke-miterlimit="10"/>
</svg>
