<svg width="20" height="20" viewBox="0 0 20 20" fill="none" xmlns="http://www.w3.org/2000/svg">
<path d="M0 16.7946V3.20538C0 2.3553 0.338174 1.54037 0.939274 0.939274C1.54037 0.338174 2.3553 0 3.20538 0H7.08837L7.21674 0.00617132C7.85429 0.0706729 8.35226 0.609323 8.35226 1.26389C8.35226 1.91845 7.85429 2.4571 7.21674 2.5216L7.08837 2.52777H3.20538C3.0257 2.52777 2.85354 2.59944 2.72649 2.72649C2.59944 2.85354 2.52777 3.0257 2.52777 3.20538V16.7946C2.52777 16.9743 2.59944 17.1465 2.72649 17.2735C2.85354 17.4006 3.0257 17.4722 3.20538 17.4722H7.08837C7.78621 17.4725 8.35226 18.0382 8.35226 18.7361C8.35226 19.434 7.78621 19.9998 7.08837 20H3.20538C2.3553 20 1.54037 19.6618 0.939274 19.0607C0.338174 18.4596 0 17.6447 0 16.7946ZM12.9894 4.25327C13.483 3.75969 14.283 3.75969 14.7766 4.25327L19.6297 9.10639C19.8667 9.34342 20 9.6648 20 10C20 10.3352 19.8667 10.6566 19.6297 10.8936L14.7766 15.7467C14.283 16.2403 13.483 16.2403 12.9894 15.7467C12.4958 15.2532 12.4958 14.4531 12.9894 13.9595L15.685 11.2639H7.08837C6.39035 11.2639 5.82449 10.698 5.82449 10C5.82449 9.30198 6.39035 8.73611 7.08837 8.73611H15.685L12.9894 6.04048C12.4958 5.54691 12.4958 4.74685 12.9894 4.25327Z" fill="#444444" stroke="#444444"/>
</svg>
