<svg width="21" height="21" viewBox="0 0 21 21" fill="none" xmlns="http://www.w3.org/2000/svg">
<path d="M0.296939 10.32C0.277273 4.83522 4.79211 0.308428 10.2921 0.3C15.7922 0.291572 20.263 4.77061 20.2967 10.306C20.3304 15.7439 15.8015 20.2829 10.3258 20.2997C4.82957 20.3232 0.316605 15.831 0.296939 10.32ZM8.05204 12.1573C5.64619 10.2844 6.00206 7.44698 7.45362 5.98987C8.20741 5.23885 9.22783 4.8167 10.2919 4.81565C11.356 4.81459 12.3772 5.23473 13.1325 5.98425C14.6019 7.45541 14.9362 10.2872 12.5435 12.1554C14.6169 12.9252 16.0562 14.3383 16.8813 16.3863C20.0654 13.0423 20.2199 7.33929 16.4646 3.76673C12.7841 0.26535 6.93855 0.523812 3.52035 4.41008C0.178009 8.20925 0.913155 13.5873 3.72451 16.3667C4.543 14.3333 5.98551 12.9315 8.05204 12.1611V12.1573ZM10.2912 12.8128C9.06017 12.8087 7.85797 13.1853 6.84924 13.8909C5.84051 14.5964 5.07457 15.5966 4.65631 16.7543C4.543 17.0653 4.57109 17.2432 4.84361 17.4576C7.96963 19.8924 12.6352 19.8924 15.7519 17.4492C16.0019 17.2535 16.0534 17.0905 15.9457 16.789C15.5312 15.6226 14.7643 14.614 13.7513 13.9026C12.7382 13.1913 11.5291 12.8124 10.2912 12.8185V12.8128ZM13.2936 8.7861C13.2906 8.19407 13.1124 7.61618 12.7813 7.12536C12.4502 6.63454 11.9811 6.25279 11.4333 6.02828C10.8854 5.80376 10.2834 5.74655 9.70304 5.86387C9.12272 5.98118 8.59014 6.26776 8.17253 6.68743C7.75492 7.10711 7.47099 7.64108 7.35657 8.22196C7.24215 8.80284 7.30236 9.40459 7.52962 9.95128C7.75687 10.498 8.14097 10.9651 8.63346 11.2937C9.12595 11.6223 9.70475 11.7977 10.2968 11.7977C11.0919 11.795 11.8536 11.4775 12.4152 10.9147C12.9768 10.3519 13.2926 9.58959 13.2936 8.79453V8.7861Z" fill="#3A7CEC" stroke="#3A7CEC" stroke-width="0.6"/>
</svg>
