<svg width="22" height="22" viewBox="0 0 22 22" fill="none" xmlns="http://www.w3.org/2000/svg">
<rect x="0.507812" y="0.0810547" width="21.2266" height="21.2266" rx="2" fill="#E4EAF5"/>
<path d="M11.1267 6.19423H15.8446C16.3537 6.19423 16.6231 6.45463 16.6231 6.95583C16.6246 9.43337 16.6246 11.9117 16.6231 14.3907C16.6231 14.9463 16.3689 15.1946 15.8089 15.1946H6.43085C5.88258 15.1946 5.625 14.9414 5.625 14.4021C5.625 11.9112 5.625 9.42029 5.625 6.92941C5.625 6.46558 5.90084 6.1946 6.37226 6.19423C7.95657 6.19372 9.54139 6.19372 11.1267 6.19423ZM6.03249 8.39979V8.62623C6.03249 10.5442 6.03249 12.4619 6.03249 14.3794C6.03249 14.7055 6.12228 14.7946 6.44721 14.7946H15.7651C16.1353 14.7946 16.2152 14.7172 16.2156 14.356C16.2156 12.438 16.2156 10.5203 16.2156 8.60283V8.39979H6.03249ZM16.216 7.97068C16.216 7.64648 16.216 7.33965 16.216 7.03282C16.216 6.67353 16.1399 6.59843 15.7845 6.59843H6.65838C6.53815 6.59843 6.41754 6.59541 6.29768 6.60258C6.1512 6.61126 6.04733 6.69882 6.04276 6.83657C6.02983 7.21133 6.0382 7.58648 6.0382 7.96879L16.216 7.97068Z" fill="#3A7CEC" stroke="#3A7CEC" stroke-width="0.5"/>
<path d="M9.94234 10.1228C9.94234 10.2673 9.945 10.4119 9.94234 10.5564C9.93511 10.8584 9.76161 11.0686 9.46218 11.0867C9.12707 11.1073 8.79103 11.1083 8.45581 11.0897C8.16741 11.0735 7.9825 10.8633 7.97489 10.5772C7.96652 10.2753 7.9669 9.97334 7.97489 9.67142C7.9825 9.35138 8.19518 9.14871 8.52125 9.14305C8.81879 9.1389 9.1167 9.13814 9.41424 9.14305C9.72394 9.14833 9.93321 9.35817 9.94348 9.66802C9.94653 9.82125 9.94234 9.97221 9.94234 10.1228ZM9.52876 10.1175C9.52876 9.97976 9.54284 9.83974 9.52229 9.70501C9.51354 9.64877 9.43288 9.56348 9.38151 9.56122C9.09761 9.54687 8.81315 9.54687 8.52924 9.56122C8.47902 9.56386 8.39494 9.65557 8.39227 9.70916C8.37857 9.98429 8.38771 10.2602 8.3858 10.5361C8.3858 10.6512 8.44668 10.6893 8.55245 10.6889C8.82361 10.6874 9.09514 10.6874 9.36706 10.6889C9.47587 10.6889 9.53104 10.6421 9.52914 10.5304C9.52686 10.393 9.52876 10.2553 9.52876 10.1175Z" fill="#3A7CEC" stroke="#3A7CEC" stroke-width="0.5"/>
<path d="M12.3913 9.63621C11.8658 9.63621 11.3404 9.63356 10.8149 9.63621C10.6608 9.63621 10.5372 9.5962 10.5391 9.42863C10.5391 9.27427 10.6627 9.22521 10.8054 9.22559H14.0155C14.162 9.22559 14.2754 9.28522 14.272 9.43844C14.2685 9.59167 14.1521 9.63734 14.0056 9.63621C13.4676 9.63356 12.9296 9.63621 12.3913 9.63621Z" fill="#3A7CEC" stroke="#3A7CEC" stroke-width="0.5"/>
<path d="M12.4073 12.2652C12.9514 12.2652 13.4955 12.2599 14.0392 12.2713C14.0825 12.2771 14.1241 12.2922 14.1609 12.3155C14.1978 12.3388 14.2291 12.3698 14.2527 12.4064C14.2789 12.4513 14.2329 12.5573 14.1918 12.6151C14.1678 12.6502 14.0906 12.6626 14.0369 12.6626C12.9488 12.6649 11.8606 12.6649 10.7724 12.6626C10.629 12.6626 10.535 12.5943 10.5392 12.4509C10.543 12.3147 10.6423 12.2622 10.7751 12.2622C11.3192 12.2656 11.8633 12.2648 12.4073 12.2652Z" fill="#3A7CEC" stroke="#3A7CEC" stroke-width="0.5"/>
<path d="M8.8695 13.434C9.19367 13.1057 9.48511 12.8094 9.7777 12.5147C9.91924 12.3724 10.044 12.3478 10.135 12.4528C10.2571 12.5939 10.173 12.7034 10.0661 12.8083C9.74231 13.1264 9.42195 13.448 9.09855 13.7661C8.9064 13.9548 8.83906 13.9548 8.64197 13.7612C8.44488 13.5676 8.25731 13.3816 8.06403 13.1887C7.96815 13.0932 7.92401 12.9845 8.03092 12.8758C8.13784 12.7671 8.25921 12.7962 8.36004 12.903C8.5206 13.0713 8.68306 13.2393 8.8695 13.434Z" fill="#3A7CEC" stroke="#3A7CEC" stroke-width="0.5"/>
<path d="M11.5812 13.6309C11.835 13.6309 12.0888 13.6335 12.3422 13.6309C12.4871 13.629 12.6028 13.6686 12.6051 13.8309C12.6051 13.9819 12.4966 14.0351 12.3616 14.0354C11.8354 14.0377 11.3092 14.0354 10.783 14.0354C10.646 14.0354 10.5376 13.9785 10.5391 13.8305C10.5391 13.6701 10.6532 13.6278 10.8016 13.6305C11.0615 13.6346 11.3213 13.6312 11.5812 13.6309Z" fill="#3A7CEC" stroke="#3A7CEC" stroke-width="0.5"/>
<path d="M11.5648 11.0037C11.305 11.0037 11.0451 11.0037 10.7852 11.0037C10.6464 11.0037 10.5406 10.9542 10.5391 10.8055C10.5376 10.6568 10.6403 10.6036 10.7811 10.604C11.3137 10.6055 11.8464 10.6055 12.3791 10.604C12.5134 10.604 12.6047 10.661 12.6074 10.7995C12.61 10.938 12.5176 11.0003 12.3844 11.001C12.112 11.001 11.8396 11.001 11.5671 11.001L11.5648 11.0037Z" fill="#3A7CEC" stroke="#3A7CEC" stroke-width="0.5"/>
</svg>
