<svg width="22" height="23" viewBox="0 0 22 23" fill="none" xmlns="http://www.w3.org/2000/svg">
<rect x="0.132812" y="0.854492" width="21.2266" height="21.2266" rx="2" fill="#E4EAF5"/>
<path d="M12.9181 10.4134C13.6012 10.4134 14.1565 9.85802 14.1565 9.17495C14.1565 8.49189 13.6012 7.93652 12.9181 7.93652C12.2351 7.93652 11.6797 8.49189 11.6797 9.17495C11.6797 9.85802 12.2351 10.4134 12.9181 10.4134ZM12.9181 8.61215C13.2282 8.61215 13.4809 8.86484 13.4809 9.17495C13.4809 9.48507 13.2282 9.73775 12.9181 9.73775C12.608 9.73775 12.3553 9.48574 12.3553 9.17495C12.3553 8.86416 12.608 8.61215 12.9181 8.61215Z" fill="#3A7CEC" stroke="#3A7CEC" stroke-width="0.5"/>
<path d="M15.2853 6.06299H6.03183V6.06366C5.30688 6.09069 4.65625 6.80348 4.65625 7.58451V15.5853C4.65625 16.3596 5.34134 16.8346 6.03183 16.8704L15.6961 16.8724C16.1149 16.8724 16.8176 16.7055 16.8176 15.5853V7.58518C16.8176 6.81699 16.0589 6.06299 15.2853 6.06299ZM6.07372 6.73862H15.2853C15.6859 6.73862 16.142 7.18926 16.142 7.58451V13.5111L13.859 11.6248L12.0916 13.1206L10.143 10.9991L7.37228 12.9267C6.36087 13.6307 5.72645 14.0733 5.3312 14.3672V7.58518C5.33188 7.16562 5.70618 6.73862 6.07372 6.73862ZM15.6961 16.1974H6.11629C5.73591 16.1974 5.33188 15.9833 5.33188 15.586V15.0968C5.34607 15.0887 5.35688 15.086 5.37174 15.0773L5.36701 15.0725C5.72645 14.8124 8.21817 13.0767 10.0356 11.814L12.0281 13.9841L13.8644 12.4295L16.142 14.3104V15.586C16.142 16.1515 15.94 16.1974 15.6961 16.1974Z" fill="#3A7CEC" stroke="#3A7CEC" stroke-width="0.5"/>
</svg>
