<svg width="22" height="22" viewBox="0 0 22 22" fill="none" xmlns="http://www.w3.org/2000/svg">
<rect x="0.132812" y="0.62793" width="21.2266" height="21.2266" rx="2" fill="#E4EAF5"/>
<path d="M6.47494 11.2424C7.30727 12.0712 8.08979 12.846 8.86622 13.6268C9.28289 14.0443 9.33269 14.5047 9.01358 14.8354C8.69447 15.1661 8.22089 15.1294 7.81032 14.7201C6.87603 13.7844 5.94207 12.8456 5.00846 11.9038C4.55216 11.4425 4.54911 11.0454 5.00034 10.5881C5.94208 9.63542 6.88789 8.68443 7.83776 7.73515C8.22292 7.35237 8.68837 7.32175 9.00545 7.64022C9.32253 7.95869 9.29204 8.42619 8.90992 8.81203C8.12231 9.60718 7.32353 10.3942 6.47494 11.2424Z" fill="#3A7CEC"/>
<path d="M15.0275 11.232C14.186 10.3991 13.4015 9.62637 12.62 8.84653C12.2064 8.43313 12.1637 7.96563 12.4909 7.63798C12.8181 7.31032 13.2795 7.3583 13.6942 7.77271C14.6305 8.70839 15.5641 9.64713 16.495 10.5889C16.9452 11.0452 16.9422 11.4433 16.4849 11.9057C15.5546 12.8482 14.6207 13.7866 13.683 14.7209C13.2765 15.1292 12.8019 15.168 12.4807 14.8342C12.1596 14.5004 12.2135 14.0441 12.6291 13.6256C13.4086 12.8448 14.1911 12.069 15.0275 11.232Z" fill="#3A7CEC"/>
</svg>
