<svg width="22" height="22" viewBox="0 0 22 22" fill="none" xmlns="http://www.w3.org/2000/svg">
<rect x="0.132812" y="0.0810547" width="21.2266" height="21.2266" rx="2" fill="#E4EAF5"/>
<path d="M10.739 16.1446H5.44581C5.22094 16.1446 5.125 16.0504 5.125 15.8285V5.54116C5.125 5.34872 5.22582 5.24637 5.41862 5.24365C5.45421 5.24365 5.4898 5.24365 5.52555 5.24365H16.0739C16.2615 5.24365 16.3672 5.34827 16.3672 5.53376C16.3672 8.97802 16.3672 12.4222 16.3672 15.8664C16.3672 16.0304 16.2661 16.1359 16.1005 16.1444C16.0749 16.1456 16.0494 16.1444 16.0241 16.1444L10.739 16.1446ZM11.4875 11.6888V5.77246H5.66197V11.6888H11.4875ZM12.0375 9.55727V15.6161H15.8317V9.55667L12.0375 9.55727ZM5.66228 12.2241V15.6158H11.4904V12.2241H5.66228ZM15.829 9.02483V5.77246H12.037V9.02483H15.829Z" fill="#3A7CEC" stroke="#3A7CEC" stroke-width="0.5"/>
</svg>
