<svg width="22" height="23" viewBox="0 0 22 23" fill="none" xmlns="http://www.w3.org/2000/svg">
<rect x="0.507812" y="0.854492" width="21.2266" height="21.2266" rx="2" fill="#E4EAF5"/>
<g clip-path="url(#clip0_1822_1588)">
<path d="M10.7135 16.3891C13.1137 16.3891 14.9478 15.155 15.6667 13.3384C15.8826 12.8161 15.9991 12.2581 16.0101 11.693C16.0101 11.5136 16.0616 11.4313 16.257 11.4267C16.4703 11.4144 16.6826 11.3868 16.892 11.3439C17.0791 11.3115 17.13 11.3866 17.1249 11.5655C17.0863 12.8829 16.7002 14.0789 15.8908 15.1293C15.1422 16.1161 14.1032 16.8434 12.9199 17.2092C11.8299 17.5579 10.6616 17.579 9.55972 17.2699C8.02694 16.8518 6.84432 15.9659 6.0026 14.6198C5.51464 13.8403 5.25035 12.9888 5.15677 12.0751C5.00766 10.584 5.38609 9.23371 6.23655 8.01304C6.72938 7.3113 7.372 6.72786 8.11795 6.30492C8.27786 6.21237 8.3663 6.24219 8.44034 6.39696C8.53186 6.58875 8.6311 6.77746 8.72057 6.97028C8.78381 7.10705 8.74628 7.21914 8.61259 7.29524C7.87469 7.71794 7.26846 8.33699 6.86129 9.08357C6.38274 9.92773 6.1707 10.8969 6.25301 11.8638C6.34864 13.1019 6.83455 14.1519 7.72203 15.0126C8.67429 15.9315 9.82658 16.3685 10.7135 16.3891Z" fill="#3A7CEC"/>
<path d="M9.87798 11.3213C9.83376 10.7634 10.2857 10.3258 10.9341 10.3202C12.0802 10.3099 13.2263 10.3166 14.373 10.3248C14.5164 10.3248 14.7257 10.2867 14.7787 10.4323C14.8075 10.5099 14.5817 10.5793 14.4702 10.6451C13.4932 11.2041 12.5163 11.7563 11.5445 12.3188C11.202 12.5173 10.8554 12.6222 10.4832 12.4247C10.0523 12.1985 9.87438 11.8221 9.87798 11.3213Z" fill="#3A7CEC"/>
<path d="M11.1315 5.45188C11.3485 5.43132 11.5578 5.48788 11.7701 5.50742C11.8869 5.5177 11.9501 5.56655 11.9244 5.68738C11.8653 5.94961 11.8015 6.21133 11.7377 6.47305C11.7043 6.61188 11.6071 6.63039 11.4807 6.61599C11.0107 6.56458 10.5443 6.57486 10.0877 6.71883C9.92114 6.77025 9.78951 6.73734 9.71443 6.55789C9.63217 6.36199 9.53755 6.17071 9.4486 5.97738C9.37507 5.8185 9.41724 5.70897 9.59154 5.66887C10.0975 5.55123 10.6128 5.47862 11.1315 5.45188Z" fill="#3A7CEC"/>
<path d="M16.0804 10.3839C15.9262 10.403 15.8552 10.3222 15.8233 10.1896C15.7139 9.74292 15.5259 9.31931 15.268 8.93857C15.1431 8.75707 15.1184 8.61412 15.3251 8.47067C15.4894 8.34808 15.6463 8.21587 15.795 8.07475C15.9102 7.97191 15.9915 7.98271 16.0856 8.11177C16.5149 8.69588 16.7874 9.34992 16.9931 10.0389C17.0363 10.1834 17.0018 10.2996 16.8116 10.2826C16.5601 10.2605 16.3226 10.3428 16.0804 10.3839Z" fill="#3A7CEC"/>
<path d="M13.0597 5.81899C13.342 5.90051 13.6157 6.00899 13.8772 6.14293C14.2956 6.35439 14.6871 6.61523 15.0434 6.91986C15.1894 7.04429 15.2686 7.13684 15.066 7.2875C14.8547 7.44484 14.6871 7.72764 14.4603 7.77854C14.2212 7.82996 14.0346 7.52145 13.813 7.38622C13.543 7.22322 13.2751 7.05971 12.9764 6.95739C12.8674 6.91986 12.8139 6.85816 12.8314 6.75172C12.8792 6.46635 12.9342 6.18149 12.9892 5.89715C12.9975 5.85344 13.0237 5.81796 13.0597 5.81899Z" fill="#3A7CEC"/>
</g>
<defs>
<clipPath id="clip0_1822_1588">
<rect width="12" height="12.0411" fill="white" transform="translate(5.125 5.44727)"/>
</clipPath>
</defs>
</svg>
