<svg width="22" height="22" viewBox="0 0 22 22" fill="none" xmlns="http://www.w3.org/2000/svg">
<rect x="0.507812" y="0.62793" width="21.2266" height="21.2266" rx="2" fill="#E4EAF5"/>
<path d="M11.0985 17.5393C10.1421 17.5393 9.18225 17.5446 8.2291 17.5393C7.40343 17.5332 6.90353 17.0098 6.90103 16.145C6.8952 14.2352 6.90103 12.3263 6.90103 10.4174C6.90103 9.8394 7.15098 9.41402 7.63589 9.19869C7.9025 9.08132 7.94416 8.9207 7.93249 8.66389C7.88917 7.75402 8.08496 6.92092 8.63069 6.19285C9.02166 5.67393 9.55019 5.2907 10.1484 5.09239C10.7465 4.89409 11.387 4.88977 11.9875 5.08C13.2373 5.48595 14.1538 6.70029 14.2371 8.0576C14.2473 8.1599 14.2493 8.26294 14.2429 8.3656C14.1946 8.7892 14.2629 9.08661 14.7153 9.26664C15.1444 9.43697 15.3402 9.87293 15.341 10.3707C15.341 12.3246 15.3485 14.2776 15.341 16.2306C15.341 16.9904 14.8211 17.5261 14.0988 17.5358C13.0948 17.549 12.0967 17.5393 11.0985 17.5393ZM11.0985 10.5383C10.2654 10.5383 9.4322 10.5507 8.59903 10.5322C8.31992 10.526 8.2466 10.6275 8.24826 10.9108C8.25826 12.5264 8.25826 14.1419 8.24826 15.7575C8.24826 16.0346 8.33825 16.1052 8.58153 16.1035C10.2584 16.0947 11.9362 16.0947 13.6147 16.1035C13.8888 16.1035 13.9738 16.0082 13.9721 15.7222C13.9621 14.1214 13.9596 12.5205 13.9721 10.9196C13.9721 10.5966 13.8613 10.5278 13.5847 10.5331C12.759 10.5489 11.9267 10.5383 11.0952 10.5383H11.0985ZM11.0794 9.05749H12.0792C12.8699 9.05749 12.8699 9.05749 12.844 8.21292C12.8361 7.8436 12.7241 7.48521 12.5225 7.18377C12.3209 6.88232 12.0389 6.65158 11.7126 6.52114C11.3876 6.38956 11.0333 6.3625 10.6938 6.44336C10.3544 6.52421 10.0451 6.70937 9.80463 6.97564C9.34389 7.47161 9.30473 8.08584 9.31889 8.73008C9.32472 8.97189 9.38388 9.06984 9.62466 9.0619C10.1046 9.04602 10.5928 9.05661 11.076 9.05749H11.0794Z" fill="#3A7CEC" stroke="#E3EAF5" stroke-width="0.5"/>
<path d="M13.0743 12.5362C13.0243 12.5971 12.9644 12.6757 12.8977 12.7472C12.2637 13.4214 11.623 14.0903 10.9956 14.7769C10.8289 14.9596 10.719 15.0073 10.5323 14.7955C10.1266 14.3348 9.69916 13.8935 9.27258 13.4576C9.11678 13.3005 9.09761 13.184 9.27258 13.041C9.33512 12.9836 9.39412 12.922 9.44921 12.8566C9.99827 12.2741 10.0066 12.2653 10.5665 12.8089C10.7415 12.9784 10.8348 12.9281 10.9706 12.778C11.2972 12.4197 11.6371 12.0791 11.9637 11.719C12.1187 11.5425 12.2312 11.509 12.3936 11.7084C12.5561 11.9079 12.7636 12.1038 12.9477 12.3024C13.0035 12.3597 13.0802 12.41 13.0743 12.5362Z" fill="#3A7CEC" stroke="#E3EAF5" stroke-width="0.5"/>
</svg>
